<?xml version="1.0" encoding="UTF-8"?>
<svg id="Livello_1" data-name="Livello 1" xmlns="http://www.w3.org/2000/svg" viewBox="0 0 600 270">
  <g>
    <g>
      <path d="m199.44,177.12l-5.77-3.22c-3.13-1.73-3.95-2.69-3.95-4.28,0-2.17,1.49-3.42,5.05-3.42,3.13,0,6.3.19,9.48.48h.1c.48,0,.82-.38.82-.87v-3.56c0-.48-.39-.82-.87-.91-1.64-.39-6.06-.87-9.24-.87-8.95,0-12.03,3.85-12.03,9.14,0,3.37,1.2,6.16,5.68,8.8l6.35,3.8c3.18,1.88,4.09,2.84,4.09,4.71,0,2.79-1.3,4.33-5.58,4.33-1.78,0-6.59-.24-8.52-.48h-.1c-.48,0-.91.39-.91.91v3.46c0,.53.43.87.91.96,2.31.53,4.91.87,8.51.87,9.62,0,12.65-5.2,12.65-10.05,0-3.8-1.39-6.88-6.69-9.81Z" style="fill: #002e67;"/>
      <path d="m232.48,161.24c-.72-.19-3.9-.77-7.6-.77-5.77,0-13.61,2.65-13.61,14.72v7.07c0,11.88,7.84,14.72,13.61,14.72,3.7,0,6.88-.58,7.6-.77.62-.19,1.06-.43,1.06-1.11v-3.22c0-.58-.24-1.01-.96-1.01h-.1c-1.68.14-4.95.38-7.5.38-4.04,0-6.98-2.31-6.98-9v-7.07c0-6.83,2.93-9,6.98-9,2.55,0,5.82.24,7.5.39h.1c.72,0,.96-.43.96-1.01v-3.22c0-.67-.43-.91-1.06-1.11Z" style="fill: #002e67;"/>
      <path d="m245.37,160.86h-4.76c-.53,0-.96.38-.96.91v33.87c0,.53.43.96.96.96h4.76c.53,0,.96-.43.96-.96v-33.87c0-.53-.43-.91-.96-.91Z" style="fill: #002e67;"/>
      <path d="m274.13,161.15c-1.54-.24-3.42-.67-9.14-.67-6.25,0-11.11,1.68-11.11,9.86v16.79c0,8.18,4.86,9.86,11.11,9.86,5.73,0,7.6-.43,9.14-.67.72-.1.96-.34.96-1.01v-3.08c0-.53-.43-.96-.96-.96h-9.81c-2.79,0-3.8-.96-3.8-4.14v-6.21h13.04c.53,0,.96-.43.96-.96v-3.46c0-.53-.43-.96-.96-.96h-13.04v-5.2c0-3.18,1.01-4.14,3.8-4.14h9.81c.53,0,.96-.43.96-.96v-3.08c0-.67-.24-.91-.96-1.01Z" style="fill: #002e67;"/>
      <path d="m294.57,160.47c-2.79,0-8.03.43-10.63.82-1.49.24-2.02.67-2.02,2.45v31.89c0,.53.39.96.91.96h4.86c.53,0,.91-.43.91-.96v-29.01c1.59-.19,4.23-.38,6.64-.38,4.62,0,6.54,2.21,6.54,7.7v21.7c0,.53.34.96.87.96h4.95c.53,0,.91-.43.91-.96v-21.7c0-10.25-5-13.47-13.95-13.47Z" style="fill: #002e67;"/>
      <path d="m335.75,160.86h-23.52c-.53,0-.96.38-.96.91v3.8c0,.53.43.87.96.87h8.42v29.2c0,.53.43.96.96.96h4.76c.53,0,.96-.43.96-.96v-29.2h8.42c.53,0,.96-.34.96-.87v-3.8c0-.53-.43-.91-.96-.91Z" style="fill: #002e67;"/>
      <path d="m347.58,160.86h-4.76c-.53,0-.96.38-.96.91v33.87c0,.53.43.96.96.96h4.76c.53,0,.96-.43.96-.96v-33.87c0-.53-.43-.91-.96-.91Z" style="fill: #002e67;"/>
      <path d="m376.34,161.15c-1.54-.24-3.42-.67-9.14-.67-6.25,0-11.11,1.68-11.11,9.86v25.3c0,.53.43.96.96.96h4.71c.53,0,.96-.43.96-.96v-14.72h13.04c.53,0,.96-.43.96-.96v-3.46c0-.53-.43-.96-.96-.96h-13.04v-5.2c0-3.18,1.01-4.14,3.8-4.14h9.81c.53,0,.96-.43.96-.96v-3.08c0-.67-.24-.91-.96-1.01Z" style="fill: #002e67;"/>
      <path d="m389.85,160.86h-4.76c-.53,0-.96.38-.96.91v33.87c0,.53.43.96.96.96h4.76c.53,0,.96-.43.96-.96v-33.87c0-.53-.43-.91-.96-.91Z" style="fill: #002e67;"/>
      <path d="m411.12,166.2c2.55,0,5.82.24,7.5.39h.1c.72,0,.96-.43.96-1.01v-3.22c0-.67-.43-.91-1.06-1.11-.72-.19-3.9-.77-7.6-.77-5.77,0-13.61,2.65-13.61,14.72v7.07c0,11.88,7.84,14.72,13.61,14.72,3.7,0,6.88-.58,7.6-.77.62-.19,1.06-.43,1.06-1.11v-3.22c0-.58-.24-1.01-.96-1.01h-.1c-1.68.14-4.95.38-7.5.38-4.04,0-6.98-2.31-6.98-9v-7.07c0-6.83,2.93-9,6.98-9Z" style="fill: #002e67;"/>
    </g>
    <path d="m209.96,250.71h-4.86c-.53,0-.87-.43-.87-.96v-12.7h-12.03v12.7c0,.53-.38.96-.91.96h-4.86c-.53,0-.91-.43-.91-.96v-24.78c0-8.08,4.38-10.25,11.02-10.25h3.32c6.64,0,11.02,2.16,11.02,10.25v24.78c0,.53-.38.96-.91.96Zm-5.72-25.74c0-3.37-.96-4.43-4.38-4.43h-3.32c-3.37,0-4.33,1.06-4.33,4.43v6.45h12.03v-6.45Z" style="fill: #002e67;"/>
    <path d="m229.15,251.1c-3.42,0-8.03-.34-9.48-.58-.82-.14-1.25-.53-1.25-1.49v-32.37c0-.96.43-1.35,1.25-1.49,1.44-.24,6.06-.58,9.48-.58,9.62,0,15.11,5.2,15.11,14.72v7.07c0,9.52-5.48,14.72-15.11,14.72Zm8.47-21.79c0-7.22-3.66-9.09-8.47-9.09-1.78,0-3.03.1-4.04.14v24.97c1.01.05,2.26.14,4.04.14,4.81,0,8.47-1.88,8.47-9.09v-7.07Z" style="fill: #002e67;"/>
    <path d="m277.35,216.03l-7.89,30.16c-1.15,4.47-4.62,4.91-6.69,4.91s-5.53-.43-6.69-4.91l-7.89-30.16c0-.1-.05-.14-.05-.24,0-.48.38-.82.87-.82h5.1c.43,0,.82.38.91.82l6.98,28.91c.14.58.29.77.77.77s.63-.19.77-.77l6.98-28.91c.1-.43.48-.82.91-.82h5.1c.48,0,.87.34.87.82,0,.1-.05.14-.05.24Z" style="fill: #002e67;"/>
    <path d="m287.26,250.71h-4.76c-.53,0-.96-.43-.96-.96v-33.87c0-.53.43-.91.96-.91h4.76c.53,0,.96.38.96.91v33.87c0,.53-.43.96-.96.96Z" style="fill: #002e67;"/>
    <path d="m304.77,251.1c-3.61,0-6.21-.34-8.51-.87-.48-.1-.91-.43-.91-.96v-3.46c0-.53.43-.91.91-.91h.1c1.92.24,6.73.48,8.51.48,4.28,0,5.58-1.54,5.58-4.33,0-1.88-.91-2.84-4.09-4.72l-6.35-3.8c-4.47-2.65-5.68-5.44-5.68-8.8,0-5.29,3.08-9.14,12.03-9.14,3.18,0,7.6.48,9.24.87.48.1.87.43.87.91v3.56c0,.48-.34.87-.82.87h-.1c-3.17-.29-6.35-.48-9.48-.48-3.56,0-5.05,1.25-5.05,3.42,0,1.59.82,2.55,3.94,4.28l5.77,3.22c5.29,2.93,6.69,6.01,6.69,9.81,0,4.86-3.03,10.05-12.65,10.05Z" style="fill: #002e67;"/>
    <path d="m336.27,251.1c-7.94,0-13.71-4.43-13.71-15.01v-6.49c0-10.58,5.77-15.01,13.71-15.01s13.71,4.43,13.71,15.01v6.49c0,10.58-5.77,15.01-13.71,15.01Zm6.97-21.5c0-6.35-2.26-9.19-6.97-9.19s-6.97,2.84-6.97,9.19v6.49c0,6.35,2.26,9.19,6.97,9.19s6.97-2.84,6.97-9.19v-6.49Z" style="fill: #002e67;"/>
    <path d="m381.97,250.71h-5.87c-.53,0-.72-.48-.96-.96l-6.93-12.84h-.67c-1.25,0-3.17-.14-4.28-.19v13.04c0,.53-.38.96-.91.96h-4.81c-.53,0-.96-.43-.96-.96v-33.1c0-.96.58-1.3,1.54-1.44,2.5-.38,5.92-.63,9.43-.63,7.41,0,13.85,2.65,13.85,10.87v.43c0,5.1-2.55,8.27-6.49,9.81l7.55,14.05c.1.14.1.29.1.38,0,.34-.19.58-.58.58Zm-7.21-25.26c0-3.61-2.41-5.15-7.22-5.15-1.01,0-3.42.1-4.28.19v10.82c.77.05,3.46.14,4.28.14,4.96,0,7.22-1.35,7.22-5.58v-.43Z" style="fill: #002e67;"/>
    <path d="m411.07,216.08l-10.25,20.44v13.23c0,.53-.38.96-.91.96h-4.95c-.53,0-.87-.43-.87-.96v-13.23l-10.25-20.44c-.1-.19-.14-.34-.14-.48,0-.38.34-.63.77-.63h5.49c.43,0,.67.38.86.77l6.64,14.14,6.64-14.14c.19-.38.48-.77.91-.77h5.44c.43,0,.77.24.77.63,0,.14-.05.29-.14.48Z" style="fill: #002e67;"/>
    <path d="m439.35,251.1c-3.9,0-6.83-.24-8.32-.53-1.59-.29-2.31-.82-2.31-2.6v-30.31c0-1.73.63-2.36,2.17-2.6,1.25-.19,4.28-.48,8.03-.48,8.71,0,14.82,2.5,14.82,9.77v.96c0,3.17-1.49,6.01-4.43,7.26,2.93,1.25,4.67,3.7,4.67,7.31v.82c0,7.65-5.68,10.39-14.62,10.39Zm7.89-26.36c0-3.37-2.17-4.62-8.32-4.62-1.15,0-2.5.05-3.51.1v9.77h6.11c4.47,0,5.72-2.12,5.72-4.57v-.67Zm.19,15.25c0-2.65-1.4-5.1-5.92-5.1h-6.11v10.58c1.15,0,2.93.1,3.94.1,6.16,0,8.08-1.59,8.08-4.95v-.63Z" style="fill: #002e67;"/>
    <path d="m473.07,251.1c-7.94,0-13.71-4.43-13.71-15.01v-6.49c0-10.58,5.77-15.01,13.71-15.01s13.71,4.43,13.71,15.01v6.49c0,10.58-5.77,15.01-13.71,15.01Zm6.97-21.5c0-6.35-2.26-9.19-6.97-9.19s-6.97,2.84-6.97,9.19v6.49c0,6.35,2.26,9.19,6.97,9.19s6.97-2.84,6.97-9.19v-6.49Z" style="fill: #002e67;"/>
    <path d="m517.8,250.71h-4.86c-.53,0-.87-.43-.87-.96v-12.7h-12.03v12.7c0,.53-.38.96-.91.96h-4.86c-.53,0-.91-.43-.91-.96v-24.78c0-8.08,4.38-10.25,11.02-10.25h3.32c6.64,0,11.02,2.16,11.02,10.25v24.78c0,.53-.38.96-.91.96Zm-5.72-25.74c0-3.37-.96-4.43-4.38-4.43h-3.32c-3.37,0-4.33,1.06-4.33,4.43v6.45h12.03v-6.45Z" style="fill: #002e67;"/>
    <path d="m547.82,250.71h-5.87c-.53,0-.72-.48-.96-.96l-6.93-12.84h-.67c-1.25,0-3.17-.14-4.28-.19v13.04c0,.53-.38.96-.91.96h-4.81c-.53,0-.96-.43-.96-.96v-33.1c0-.96.58-1.3,1.54-1.44,2.5-.38,5.92-.63,9.43-.63,7.41,0,13.85,2.65,13.85,10.87v.43c0,5.1-2.55,8.27-6.49,9.81l7.55,14.05c.1.14.1.29.1.38,0,.34-.19.58-.58.58Zm-7.21-25.26c0-3.61-2.41-5.15-7.22-5.15-1.01,0-3.42.1-4.28.19v10.82c.77.05,3.46.14,4.28.14,4.96,0,7.22-1.35,7.22-5.58v-.43Z" style="fill: #002e67;"/>
    <path d="m564.89,251.1c-3.42,0-8.03-.34-9.48-.58-.82-.14-1.25-.53-1.25-1.49v-32.37c0-.96.43-1.35,1.25-1.49,1.44-.24,6.06-.58,9.48-.58,9.62,0,15.11,5.2,15.11,14.72v7.07c0,9.52-5.48,14.72-15.11,14.72Zm8.47-21.79c0-7.22-3.66-9.09-8.47-9.09-1.78,0-3.03.1-4.04.14v24.97c1.01.05,2.26.14,4.04.14,4.81,0,8.47-1.88,8.47-9.09v-7.07Z" style="fill: #002e67;"/>
  </g>
  <g>
    <path d="m228.34,65.83h-35.75v38.07c0,1.29-1.05,2.34-2.33,2.34h-5.94c-1.29,0-2.33-1.05-2.33-2.34v-63.34c0-15.49,8.49-21.65,24.8-21.65,6.86,0,17.81.23,22.7.7.7.12,1.17.93,1.17,1.63v5.82c0,.81-.47,1.4-1.28,1.4h-22.47c-12.34,0-14.32,3.26-14.32,12.1v16.18h35.75c1.28,0,2.33,1.05,2.33,2.34v4.43c0,1.28-1.05,2.33-2.33,2.33" style="fill: #002e67;"/>
    <path d="m255.82,106.24h-6.41c-1.17,0-2.1-1.05-2.1-2.33V21.94c0-1.16.82-2.21,2.1-2.21h6.41c1.16,0,2.08.93,2.08,2.21v81.98c0,1.16-.82,2.33-2.08,2.33" style="fill: #002e67;"/>
    <path d="m340.42,107.05c-6.06,0-11.65-.58-18.29-2.91-6.64,2.33-12.11,2.91-18.16,2.91-17.71,0-24.69-11.53-24.69-31.78V21.94c0-1.16.93-2.21,2.21-2.21h6.17c1.16,0,2.21,1.05,2.21,2.21v53.33c0,15.71,3.15,22.82,16.3,22.82,1.98,0,8.15-.36,10.72-1.06V21.94c0-1.16.93-2.21,2.21-2.21h6.3c1.29,0,2.09.81,2.09,2.1v75.21c2.57.7,8.74,1.06,10.71,1.06,13.17,0,16.31-7.11,16.31-22.82V21.94c0-1.16.93-2.21,2.2-2.21h6.18c1.16,0,2.21,1.05,2.21,2.21v53.33c0,20.25-6.99,31.78-24.68,31.78" style="fill: #59c1d3;"/>
    <path d="m437.99,106.24h-6.4c-1.17,0-2.1-1.05-2.1-2.33v-34.47h-35.64v34.47c0,1.16-.81,2.33-2.09,2.33h-6.42c-1.16,0-2.09-1.17-2.09-2.33v-60.9c0-17.82,8.27-24.12,25.04-24.12h6.76c16.64,0,25.02,6.3,25.02,24.12v60.9c0,1.16-.93,2.33-2.09,2.33m-8.5-63.22c0-12.12-3.84-14.79-14.43-14.79h-6.76c-10.59,0-14.44,2.68-14.44,14.79v17.11h35.64v-17.11Z" style="fill: #59c1d3;"/>
    <path d="m515.88,106.24h-7.44c-1.4,0-2.1,0-3.03-1.52l-20.84-34.7h-3.03c-3.84,0-6.63-.11-12.81-.34v34.23c0,1.16-.81,2.33-2.1,2.33h-6.28c-1.16,0-2.09-1.05-2.09-2.33V22.4c0-1.63.69-2.33,2.79-2.56,5.01-.58,13.74-.94,20.5-.94,18.41,0,32.61,6.18,32.61,25.04v.81c0,13.04-7.68,20.74-18.27,23.52l21.18,35.41c.24.35.35.7.35,1.04,0,.82-.58,1.52-1.51,1.52m-12.22-62.3c0-11.64-7.58-15.48-22.13-15.48-3.61,0-10.01,0-12.81.35v31.91c5.13.11,10.13.23,12.81.23,14.33,0,22.13-3.61,22.13-16.19v-.81Z" style="fill: #59c1d3;"/>
    <path d="m578.53,106.47c-4.42.47-15.84.58-22.71.58-16.3,0-24.8-6.17-24.8-21.66v-44.83c0-15.49,8.5-21.67,24.8-21.67,6.88,0,17.81.24,22.71.71.7.12,1.16.93,1.16,1.62v5.83c0,.81-.46,1.4-1.28,1.4h-22.48c-12.34,0-14.32,3.26-14.32,12.11v16.18h35.75c1.28,0,2.33,1.04,2.33,2.33v4.43c0,1.28-1.05,2.34-2.33,2.34h-35.75v19.55c0,8.84,1.98,12.11,14.32,12.11h22.48c.82,0,1.28.58,1.28,1.4v5.94c0,.7-.46,1.51-1.16,1.63" style="fill: #59c1d3;"/>
  </g>
  <g>
    <path d="m105.83,27.24H36.64c-1.1-3.43-4.32-5.92-8.12-5.92-4.71,0-8.52,3.82-8.52,8.52s3.82,8.52,8.52,8.52c3.8,0,7.01-2.49,8.12-5.92h66.59v52.77h-16.72c-1.44,0-2.61,1.17-2.61,2.61s1.17,2.61,2.61,2.61h19.33c1.44,0,2.61-1.17,2.61-2.61V29.85c0-1.44-1.17-2.61-2.61-2.61Z" style="fill: #002e67;"/>
    <path d="m86.51,162.54H28.52c-1.44,0-2.61,1.17-2.61,2.61v69.2c-3.43,1.1-5.92,4.32-5.92,8.11,0,4.71,3.82,8.52,8.52,8.52s8.52-3.82,8.52-8.52c0-3.8-2.49-7.02-5.92-8.12v-66.6h52.77v16.72c0,1.44,1.17,2.61,2.61,2.61s2.61-1.17,2.61-2.61v-19.33c0-1.44-1.17-2.61-2.61-2.61Z" style="fill: #002e67;"/>
    <path d="m105.83,143.21H31.13V51.78h52.77v8.61c-3.43,1.1-5.92,4.32-5.92,8.12,0,4.71,3.82,8.52,8.52,8.52s8.52-3.82,8.52-8.52c0-3.8-2.49-7.01-5.92-8.12v-11.21c0-1.44-1.17-2.61-2.61-2.61H28.52c-1.44,0-2.61,1.17-2.61,2.61v96.64c0,1.44,1.17,2.61,2.61,2.61h74.71v52.77h-16.72c-1.44,0-2.61,1.17-2.61,2.61s1.17,2.61,2.61,2.61h19.33c1.44,0,2.61-1.17,2.61-2.61v-57.98c0-1.44-1.17-2.61-2.61-2.61Z" style="fill: #5dc0cf;"/>
    <path d="m125.18,123.88H50.46v-52.77h16.72c1.44,0,2.61-1.17,2.61-2.61s-1.17-2.61-2.61-2.61h-19.33c-1.44,0-2.61,1.17-2.61,2.61v57.98c0,1.44,1.17,2.61,2.61,2.61h74.73v91.43h-52.79v-8.61c3.43-1.1,5.92-4.32,5.92-8.12,0-4.71-3.82-8.52-8.52-8.52s-8.52,3.82-8.52,8.52c0,3.8,2.49,7.01,5.92,8.11v11.22c0,1.44,1.17,2.61,2.61,2.61h58c1.44,0,2.61-1.17,2.61-2.61v-96.64c0-1.44-1.17-2.61-2.61-2.61Z" style="fill: #002e67;"/>
    <path d="m133.71,29.84c0-4.71-3.82-8.52-8.52-8.52s-8.52,3.82-8.52,8.52c0,3.8,2.49,7.01,5.92,8.11v66.59h-52.79v-16.72c0-1.44-1.17-2.61-2.61-2.61s-2.61,1.17-2.61,2.61v19.33c0,1.44,1.17,2.61,2.61,2.61h58c1.44,0,2.61-1.17,2.61-2.61V37.96c3.43-1.1,5.92-4.32,5.92-8.12Z" style="fill: #5dc0cf;"/>
    <path d="m125.19,233.94c-3.8,0-7.01,2.48-8.11,5.91H50.46v-52.77h16.72c1.44,0,2.61-1.17,2.61-2.61s-1.17-2.61-2.61-2.61h-19.33c-1.44,0-2.61,1.17-2.61,2.61v57.98c0,1.44,1.17,2.61,2.61,2.61h69.22c1.1,3.44,4.32,5.92,8.12,5.92,4.71,0,8.52-3.82,8.52-8.52s-3.82-8.52-8.52-8.52Z" style="fill: #5dc0cf;"/>
  </g>
</svg>