<?xml version="1.0" encoding="UTF-8"?>
<svg id="Logo" xmlns="http://www.w3.org/2000/svg" viewBox="0 0 547.3 180">
  <g>
    <g>
      <path d="m250.77,83.35h-6.6c-1.42,0-2.59,1.16-2.59,2.57v10.31c0,1.42,1.16,2.58,2.59,2.58h6.6c1.42,0,2.59-1.16,2.59-2.58v-10.31c0-1.42-1.16-2.57-2.59-2.57Z" style="fill: #002e67;"/>
      <path d="m250.52,108.22h-6.21c-1.42,0-2.59,1.16-2.59,2.57v65.72c0,1.42,1.16,2.58,2.59,2.58h6.21c1.42,0,2.59-1.16,2.59-2.58v-65.72c0-1.42-1.16-2.57-2.59-2.57Z" style="fill: #002e67;"/>
      <path d="m338.75,83.35h-6.59c-1.43,0-2.59,1.16-2.59,2.58v37.37h-44.25v-37.37c0-1.42-1.17-2.58-2.59-2.58h-6.6c-1.42,0-2.59,1.16-2.59,2.58v90.59c0,1.42,1.16,2.58,2.59,2.58h6.6c1.42,0,2.59-1.16,2.59-2.58v-42.79h44.25v42.79c0,1.42,1.16,2.58,2.59,2.58h6.59c1.42,0,2.59-1.16,2.59-2.58v-90.59c0-1.42-1.17-2.58-2.59-2.58Z" style="fill: #002e67;"/>
      <path d="m412.37,108.22h-6.73c-1.42,0-2.33,1.16-2.33,2.58v38.92c0,15.46-6.6,20.36-15.27,20.36h-1.16c-8.67,0-15.27-4.9-15.27-20.36v-38.92c0-1.42-.9-2.58-2.33-2.58h-6.73c-1.42,0-2.33,1.16-2.33,2.58v38.92c0,25.39,17.86,30.28,26.65,30.28h1.16c8.8,0,26.65-4.9,26.65-30.28v-38.92c0-1.42-.9-2.58-2.32-2.58Z" style="fill: #002e67;"/>
      <path d="m458.81,107.32c-4.14,0-10.22.39-15.14,1.29v-23.97c0-1.42-1.16-2.45-2.45-2.45h-6.6c-1.42,0-2.32,1.16-2.32,2.45v90.21c0,1.8.38,2.57,2.72,2.96,8.02,1.55,16.04,2.19,23.8,2.19,19.41,0,28.21-12.5,28.21-31.83v-9.28c0-20.23-9.44-31.57-28.21-31.57Zm16.82,40.85c0,14.05-4.01,21.91-16.82,21.91-4.4,0-10.74-.39-15.14-.77v-51.16c4.28-.77,11.13-.9,15.14-.9,12.68,0,16.82,7.86,16.82,21.65v9.28Z" style="fill: #002e67;"/>
      <path d="m533.06,141.86l-12.81-7.6c-5.95-3.48-8.93-5.93-8.93-9.79,0-6.57,4.79-7.48,12.04-7.48s15.53.64,20.06,1.03h.39c1.29,0,2.2-.65,2.2-2.19v-4.25c0-1.42-.78-2.32-2.46-2.58-6.08-1.03-12.94-1.67-20.18-1.67-13.33,0-23.42,3.74-23.42,17.14,0,8.12,5.31,13.66,13.2,18.43l13.06,7.73c7.38,4.38,9.71,6.83,9.71,10.7,0,6.96-4.4,9.15-12.81,9.15-4.66,0-14.1-.64-20.32-1.42h-.51c-1.29,0-2.33.77-2.33,1.93v4.51c0,1.42,1.04,2.19,2.72,2.58,6.34,1.55,15.66,1.93,20.45,1.93,14.49,0,24.2-5.54,24.2-18.68,0-7.61-3.49-13.15-14.23-19.46Z" style="fill: #002e67;"/>
    </g>
    <g>
      <g>
        <path d="m278.01.54c-3.75-.36-12.14-.54-17.41-.54-12.5,0-19.01,4.72-19.01,16.6v48.56c0,.99.8,1.79,1.78,1.79h4.55c.98,0,1.78-.81,1.78-1.79v-29.19h27.41c.98,0,1.79-.8,1.79-1.78v-3.39c0-.99-.81-1.79-1.79-1.79h-27.41v-12.41c0-6.78,1.52-9.28,10.98-9.28h17.23c.62,0,.98-.45.98-1.07V1.79c0-.53-.36-1.16-.9-1.25Z" style="fill: #002e67;"/>
        <path d="m298.19.63h-4.91c-.98,0-1.61.8-1.61,1.69v62.85c0,.98.72,1.79,1.61,1.79h4.91c.97,0,1.6-.89,1.6-1.79V2.33c0-.98-.71-1.69-1.6-1.69Z" style="fill: #002e67;"/>
      </g>
      <g>
        <path d="m380.28.63h-4.74c-.97,0-1.69.8-1.69,1.69v40.89c0,12.04-2.41,17.5-12.51,17.5-1.51,0-6.24-.28-8.21-.81V2.24c0-.98-.61-1.61-1.6-1.61h-4.83c-.98,0-1.69.8-1.69,1.69v57.58c-1.96.54-6.7.81-8.22.81-10.09,0-12.5-5.45-12.5-17.5V2.33c0-.89-.8-1.69-1.69-1.69h-4.73c-.98,0-1.7.8-1.7,1.69v40.89c0,15.53,5.35,24.37,18.93,24.37,4.64,0,8.83-.44,13.92-2.23,5.09,1.79,9.37,2.23,14.02,2.23,13.57,0,18.93-8.84,18.93-24.37V2.33c0-.89-.81-1.69-1.7-1.69Z" style="fill: #002e67;"/>
        <path d="m420.28,0h-5.19c-12.86,0-19.2,4.83-19.2,18.49v46.69c0,.89.72,1.79,1.61,1.79h4.92c.98,0,1.6-.89,1.6-1.79v-26.43h27.32v26.43c0,.98.71,1.79,1.61,1.79h4.91c.89,0,1.6-.89,1.6-1.79V18.49c0-13.66-6.43-18.49-19.18-18.49Zm11.06,31.61h-27.32v-13.12c0-9.29,2.95-11.34,11.07-11.34h5.19c8.12,0,11.06,2.05,11.06,11.34v13.12Z" style="fill: #002e67;"/>
        <path d="m482.23,37.86c8.12-2.14,14.01-8.04,14.01-18.04v-.62c0-14.46-10.89-19.2-25-19.2-5.18,0-11.87.28-15.71.72-1.61.18-2.14.71-2.14,1.96v62.49c0,.98.71,1.79,1.6,1.79h4.82c.99,0,1.61-.89,1.61-1.79v-26.25c4.73.17,6.87.26,9.82.26h2.33l15.98,26.61c.71,1.16,1.25,1.16,2.32,1.16h5.71c.72,0,1.16-.54,1.16-1.16,0-.27-.09-.53-.27-.8l-16.24-27.15Zm-10.99-5.62c-2.05,0-5.89-.09-9.82-.18V7.6c2.15-.27,7.05-.27,9.82-.27,11.16,0,16.97,2.94,16.97,11.87v.62c0,9.65-5.98,12.41-16.97,12.41Z" style="fill: #002e67;"/>
        <path d="m528.28,7.33h17.24c.63,0,.98-.45.98-1.07V1.79c0-.53-.35-1.15-.89-1.24-3.76-.36-12.14-.54-17.41-.54-12.5,0-19.02,4.74-19.02,16.62v34.37c0,11.88,6.52,16.6,19.02,16.6,5.27,0,14.02-.08,17.41-.44.54-.09.89-.71.89-1.25v-4.55c0-.62-.35-1.07-.98-1.07h-17.24c-9.46,0-10.98-2.51-10.98-9.29v-14.99h27.41c.98,0,1.78-.81,1.78-1.79v-3.39c0-.99-.8-1.78-1.78-1.78h-27.41v-12.41c0-6.79,1.52-9.29,10.98-9.29Z" style="fill: #002e67;"/>
      </g>
    </g>
  </g>
  <path d="m148.31,49.5h-17.81v-17.81C130.5,14.22,116.28,0,98.81,0H31.69C14.22,0,0,14.22,0,31.69v67.11c0,17.48,14.22,31.7,31.69,31.7h17.81v17.8c0,17.48,14.22,31.7,31.69,31.7h67.12c17.47,0,31.69-14.22,31.69-31.7v-67.12c0-17.47-14.22-31.69-31.69-31.69Zm-105.46,15.85c0-12.43,10.07-22.5,22.5-22.5,6.24,0,11.88,2.54,15.96,6.65h30.55v18.64h-24.29c-1.27,10.17-9.26,18.16-19.43,19.43v24.29h-18.64v-30.55c-4.1-4.08-6.65-9.72-6.65-15.96Zm118.51,82.95c0,7.19-5.86,13.05-13.05,13.05h-67.12c-7.2,0-13.05-5.86-13.05-13.05v-17.8h30.55c4.08,4.1,9.72,6.65,15.96,6.65,12.43,0,22.5-10.07,22.5-22.5,0-6.24-2.54-11.88-6.65-15.96v-30.55h17.81c7.2,0,13.05,5.86,13.05,13.05v67.12Z" style="fill: #002e67;"/>
</svg>