<?xml version="1.0" encoding="UTF-8"?>
<svg id="Capa_1" data-name="Capa 1" xmlns="http://www.w3.org/2000/svg" xmlns:xlink="http://www.w3.org/1999/xlink" viewBox="0 0 562.09 175.63">
  <defs>
    <filter id="drop-shadow-1">
      <feOffset dx="0" dy="5"/>
      <feGaussianBlur result="blur" stdDeviation="4"/>
      <feFlood flood-color="#000" flood-opacity=".6"/>
      <feComposite in2="blur" operator="in"/>
      <feComposite in="SourceGraphic"/>
    </filter>
  </defs>
  <g style="fill: none; filter: url(#drop-shadow-1);">
    <g>
      <g>
        <path d="m238.39,122.92c-1.61-.14-3.59-.45-9.53-.04-6.49.45-11.41,2.55-10.82,11.04l1.84,26.25c.04.55.52.97,1.07.93l4.89-.34c.55-.04.97-.52.93-1.07l-1.07-15.27,13.53-.95c.55-.04.97-.52.93-1.07l-.25-3.59c-.04-.55-.52-.97-1.07-.93l-13.53.95-.38-5.39c-.23-3.3.75-4.37,3.64-4.57l10.18-.71c.55-.04.97-.52.93-1.07l-.22-3.19c-.05-.7-.31-.93-1.07-.98h0Z" style="fill: #002e67;"/>
        <path d="m263.05,120.5c-8.23.58-13.9,5.59-13.14,16.57l.47,6.74c.77,10.98,7.08,15.15,15.31,14.58s13.91-5.59,13.14-16.57l-.47-6.74c-.77-10.98-7.08-15.15-15.32-14.58h.01Zm8.8,21.81c.46,6.59-1.68,9.7-6.57,10.04s-7.44-2.44-7.9-9.03l-.47-6.74c-.46-6.59,1.68-9.7,6.57-10.04s7.44,2.44,7.9,9.03l.47,6.74Z" style="fill: #002e67;"/>
        <path d="m314.4,117.31l-4.94.35c-.55.04-.92.47-.88,1.02l2.13,30.4c-1.84.33-4.87.74-6.86.88-5.39.38-6.87-2.13-7.27-7.82l-1.57-22.51c-.04-.55-.52-.92-1.06-.88l-4.94.35c-.55.04-.97.47-.93,1.02l1.57,22.51c.74,10.63,6.57,13.63,14.61,13.07,3.04-.21,9.29-1.25,11.02-1.62,1.78-.37,2.63-1.14,2.48-3.23l-2.28-32.64c-.04-.55-.52-.92-1.06-.88l-.02-.02Z" style="fill: #002e67;"/>
        <path d="m340.48,115.08c-2.89.2-8.3,1.03-10.97,1.62-1.53.36-2.05.84-1.92,2.69l2.31,33.09c.04.55.47.97,1.02.93l5.04-.35c.55-.04.92-.52.88-1.06l-2.1-30.1c1.63-.31,4.36-.71,6.86-.88,4.79-.34,6.95,1.82,7.35,7.51l1.57,22.51c.04.55.42.97.97.94l5.14-.36c.55-.04.92-.52.88-1.06l-1.57-22.51c-.74-10.63-6.17-13.61-15.45-12.96h0Z" style="fill: #002e67;"/>
        <path d="m377.78,112.47c-3.54.25-8.31.93-9.79,1.29-.84.21-1.26.64-1.19,1.64l2.35,33.59c.07,1,.55,1.37,1.41,1.46,1.52.15,6.33.16,9.88-.09,9.98-.7,15.29-6.49,14.6-16.37l-.51-7.34c-.69-9.88-6.76-14.88-16.74-14.18h-.01Zm10.36,22c.52,7.49-3.13,9.7-8.12,10.05-1.85.13-3.15.12-4.21.15l-1.81-25.91c1.05-.12,2.34-.31,4.18-.44,4.99-.35,8.92,1.33,9.44,8.82l.51,7.34h0Z" style="fill: #002e67;"/>
        <path d="m419.32,109.72l-3.44.24c-6.89.48-11.27,3.05-10.69,11.43l1.8,25.7c.04.55.47.97,1.02.93l5.04-.35c.55-.04.92-.52.88-1.06l-.92-13.18,12.48-.87.92,13.18c.04.55.42.97.97.94l5.04-.35c.55-.04.92-.52.88-1.06l-1.8-25.7c-.59-8.38-5.29-10.31-12.17-9.83v-.02Zm5.75,17l-12.48.87-.47-6.69c-.24-3.49.68-4.66,4.17-4.91l3.44-.24c3.54-.25,4.62.78,4.86,4.27l.47,6.69h.01Z" style="fill: #002e67;"/>
        <path d="m464.22,106.83l-24.4,1.71c-.55.04-.97.47-.93,1.02l.28,3.94c.04.55.51.87,1.06.83l8.73-.61,2.12,30.3c.04.55.52.97,1.07.93l4.94-.35c.55-.04.97-.52.93-1.07l-2.12-30.3,8.73-.61c.55-.04.98-.42.94-.97l-.28-3.94c-.04-.55-.52-.92-1.07-.88h0Z" style="fill: #002e67;"/>
        <rect x="475.94" y="105.81" width="6.95" height="37.18" rx="1" ry="1" transform="translate(-7.51 33.74) rotate(-4)" style="fill: #002e67;"/>
        <path d="m506.77,103.45c-8.23.58-13.9,5.59-13.14,16.57l.47,6.74c.77,10.98,7.08,15.15,15.31,14.58s13.9-5.59,13.14-16.57l-.47-6.74c-.77-10.98-7.08-15.15-15.31-14.58Zm8.8,21.81c.46,6.59-1.68,9.7-6.57,10.04s-7.44-2.44-7.9-9.03l-.47-6.74c-.46-6.59,1.68-9.7,6.57-10.04s7.44,2.44,7.9,9.03l.47,6.74Z" style="fill: #002e67;"/>
        <path d="m545.06,100.78c-2.89.2-8.3,1.03-10.97,1.62-1.53.36-2.05.84-1.92,2.69l2.31,33.09c.04.55.47.97,1.02.93l5.04-.35c.55-.04.92-.52.88-1.06l-2.1-30.1c1.63-.31,4.36-.71,6.86-.88,4.79-.34,6.95,1.82,7.35,7.51l1.57,22.51c.04.55.42.97.97.94l5.14-.36c.55-.04.92-.52.88-1.06l-1.57-22.51c-.74-10.63-6.17-13.61-15.45-12.96h-.01Z" style="fill: #002e67;"/>
      </g>
      <g>
        <g>
          <path d="m250.62,21.09c-4.25-.1-13.71.35-19.64.77-14.08.98-21.04,6.83-20.11,20.2l3.82,54.69c.08,1.11,1.04,1.95,2.15,1.87l5.12-.36c1.11-.08,1.95-1.04,1.87-2.15l-2.3-32.88,30.87-2.16c1.11-.08,1.94-1.05,1.87-2.15l-.27-3.82c-.08-1.1-1.04-1.95-2.15-1.87l-30.87,2.16-.98-13.97c-.53-7.64.98-10.57,11.63-11.32l19.4-1.36c.7-.05,1.07-.58,1.02-1.29l-.35-5.03c-.04-.6-.49-1.27-1.11-1.33h.03Z" style="fill: #002e67;"/>
          <path d="m273.35,19.6l-5.53.39c-1.11.08-1.74,1.03-1.67,2.04l4.95,70.77c.08,1.11.94,1.96,1.95,1.89l5.53-.39c1.1-.08,1.74-1.13,1.67-2.14l-4.95-70.77c-.08-1.11-.93-1.86-1.94-1.78h-.01Z" style="fill: #002e67;"/>
        </g>
        <g>
          <path d="m365.81,13.14l-5.34.37c-1.1.08-1.85,1.04-1.78,2.04l3.22,46.05c.95,13.57-1.33,19.89-12.7,20.68-1.71.12-7.06.19-9.31-.25l-4.54-64.95c-.08-1.11-.83-1.76-1.93-1.68l-5.43.38c-1.1.08-1.84,1.04-1.77,2.04l4.53,64.85c-2.18.76-7.48,1.43-9.19,1.55-11.36.79-14.5-5.15-15.45-18.72l-3.22-46.05c-.07-1-1.03-1.84-2.05-1.77l-5.32.37c-1.11.08-1.85,1.04-1.78,2.04l3.22,46.05c1.22,17.49,7.95,27.02,23.24,25.95,5.22-.37,9.91-1.2,15.5-3.61,5.87,1.61,10.74,1.78,15.96,1.41,15.28-1.07,20.61-11.45,19.39-28.93l-3.22-46.05c-.07-1-1.04-1.84-2.04-1.77h.01Z" style="fill: #5dc0cf;"/>
          <path d="m410.78,9.28l-5.84.41c-14.47,1.01-21.23,6.94-20.15,22.32l3.68,52.58c.07,1,.94,1.96,1.95,1.88l5.53-.39c1.11-.08,1.74-1.13,1.67-2.14l-2.08-29.76,30.77-2.15,2.08,29.76c.08,1.11.94,1.96,1.95,1.88l5.53-.39c1.01-.07,1.73-1.13,1.66-2.14l-3.68-52.58c-1.08-15.39-8.69-20.31-23.07-19.3v.02Zm14.96,34.71l-30.77,2.15-1.03-14.77c-.73-10.46,2.42-13,11.57-13.64l5.84-.41c9.14-.64,12.63,1.44,13.36,11.9,0,0,1.03,14.77,1.03,14.77Z" style="fill: #5dc0cf;"/>
          <path d="m483.52,47.03c8.99-3.05,15.15-10.15,14.36-21.41l-.05-.7c-1.14-16.29-13.78-20.76-29.66-19.65-5.83.41-13.35,1.24-17.64,2.04-1.8.33-2.35.98-2.25,2.38l4.92,70.38c.08,1.11.95,1.95,1.95,1.88l5.43-.38c1.11-.08,1.74-1.13,1.67-2.14l-2.07-29.56c5.34-.17,7.76-.23,11.08-.47l1.71-.12.9-.06,20.09,28.7c.89,1.25,1.5,1.21,2.69,1.12l6.44-.45c.81-.06,1.26-.7,1.21-1.4-.02-.3-.14-.6-.36-.88l-20.44-29.29h.02Zm-12.81-5.47c-2.31.16-6.64.36-11.07.58l-1.93-27.55c2.39-.47,7.92-.86,11.03-1.08,12.56-.88,19.33,1.98,20.03,12.03l.05.7c.76,10.86-5.76,14.45-18.12,15.31h.01Z" style="fill: #5dc0cf;"/>
          <path d="m533,9.02l19.4-1.36c.71-.05,1.07-.58,1.02-1.28l-.35-5.02c-.04-.61-.49-1.28-1.11-1.34-4.25-.11-13.72.35-19.64.77-14.08.98-21.04,6.82-20.11,20.2l2.71,38.7c.94,13.37,8.64,18.19,22.72,17.2,5.93-.41,15.77-1.2,19.57-1.87.6-.15.95-.88.91-1.48l-.36-5.13c-.05-.7-.49-1.18-1.19-1.13l-19.4,1.36c-10.66.75-12.57-1.95-13.1-9.59l-1.18-16.88,30.87-2.16c1.11-.08,1.95-1.06,1.87-2.16l-.27-3.82c-.08-1.1-1.04-1.95-2.15-1.87l-30.87,2.16-.98-13.97c-.53-7.64.98-10.58,11.64-11.32h0Z" style="fill: #5dc0cf;"/>
        </g>
      </g>
    </g>
    <g>
      <g>
        <path d="m130.48,40.65c-3.62-1.81-7.91-3.01-12.76-3.47-4.82-.46-9.76-.11-14.57.89-4.79,1.01-9.47,2.66-13.79,4.85-4.33,2.19-8.3,4.93-11.69,8.09-3.4,3.16-6.21,6.76-8.17,10.67-1.98,3.93-2.91,7.83-2.9,11.5.02,3.71,1,7.19,2.85,10.25,1.86,3.11,4.61,5.79,8.13,7.87,3.56,2.09,7.89,3.56,12.91,4.22,5.04.65,10.27.42,15.4-.58,5.14-1.01,10.16-2.77,14.78-5.14,4.61-2.37,8.8-5.35,12.28-8.78,3.47-3.42,6.24-7.27,8.01-11.42,1.77-4.11,2.41-8.11,2.06-11.82-.35-3.66-1.67-7.04-3.83-9.96-2.13-2.9-5.08-5.33-8.72-7.16h.01Z" style="fill: #5dc0cf;"/>
        <path d="m156.09,50.76c-3.72-4.9-8.8-9.01-14.98-12.06-6.11-3.01-13.31-5.02-21.41-5.75-8.02-.72-16.21-.14-24.16,1.52-7.93,1.67-15.68,4.41-22.85,8.04-7.18,3.63-13.83,8.17-19.52,13.43-5.75,5.28-10.55,11.32-14.01,17.91-3.5,6.67-5.28,13.31-5.5,19.63-.22,6.41,1.19,12.49,4.08,17.91,2.94,5.5,7.41,10.32,13.26,14.11,5.93,3.85,13.26,6.62,21.82,7.93,8.65,1.33,17.68,1.06,26.56-.59,8.93-1.67,17.66-4.71,25.69-8.88,8-4.15,15.25-9.41,21.25-15.47,5.96-6.02,10.64-12.81,13.6-20.09,2.91-7.18,3.86-14.14,3.1-20.55-.74-6.32-3.14-12.11-6.92-17.07v-.02Zm-5.79,28.09c-2.37,5.68-6.09,10.95-10.79,15.64-4.72,4.71-10.41,8.8-16.69,12.04-6.29,3.25-13.13,5.64-20.13,6.97-6.97,1.33-14.07,1.59-20.89.63-6.77-.96-12.6-3.05-17.34-5.97-4.7-2.9-8.32-6.62-10.74-10.89-2.38-4.2-3.6-8.96-3.53-13.99.08-4.98,1.41-10.23,4.13-15.52,2.69-5.25,6.48-10.07,11.05-14.29,4.54-4.21,9.85-7.85,15.61-10.76,5.75-2.91,11.96-5.12,18.33-6.46,6.39-1.33,12.96-1.79,19.39-1.2,6.47.6,12.23,2.2,17.07,4.62,4.91,2.45,8.91,5.71,11.83,9.6,2.94,3.94,4.78,8.51,5.31,13.47.54,5.04-.26,10.5-2.62,16.11h0Z" style="fill: #5dc0cf;"/>
        <path d="m183.82,78.32c-1.28-9.12-4.91-17.44-10.46-24.53-5.44-6.95-12.75-12.75-21.56-17.05-8.65-4.21-18.8-6.98-30.14-7.98-11.2-.99-22.58-.15-33.63,2.18-11,2.32-21.75,6.13-31.73,11.17-10.01,5.05-19.32,11.37-27.36,18.69-8.14,7.4-15.04,15.89-20.13,25.21C3.63,95.5.79,105.01.16,114.11c-.66,9.29.97,18.19,4.74,26.21,3.85,8.19,9.93,15.45,18.05,21.24,8.28,5.9,18.67,10.26,30.93,12.48,12.44,2.25,25.51,2.07,38.45-.22,13.02-2.3,25.77-6.71,37.49-12.85,11.68-6.13,22.22-13.9,30.89-22.92,8.56-8.9,15.22-18.96,19.31-29.7,4.01-10.55,5.14-20.7,3.83-30.03h-.03Zm-14.03,19.9c-3.53,8.97-9.19,17.34-16.44,24.77-7.31,7.5-16.18,13.97-25.99,19.09-9.83,5.13-20.53,8.85-31.46,10.82-10.87,1.99-21.9,2.23-32.41.47-10.38-1.74-19.23-5.25-26.35-10.09-6.99-4.75-12.29-10.75-15.7-17.56-3.35-6.68-4.89-14.14-4.49-21.97.4-7.69,2.69-15.75,7.01-23.82,4.26-7.96,10.11-15.21,17.04-21.55,6.87-6.29,14.85-11.72,23.45-16.06,8.58-4.34,17.83-7.62,27.3-9.62,9.52-1.99,19.31-2.7,28.92-1.84,9.72.86,18.4,3.26,25.78,6.88,7.49,3.67,13.66,8.62,18.24,14.54,4.65,6.02,7.63,13.05,8.63,20.76,1.01,7.84-.04,16.37-3.51,25.19h-.02Z" style="fill: #5dc0cf;"/>
      </g>
      <g>
        <path d="m77.58,91.29c3.56,2.09,7.89,3.57,12.91,4.21,5.04.66,10.27.41,15.4-.58,5.14-1,10.17-2.76,14.78-5.14,4.11-2.11,7.89-4.72,11.13-7.69-19.76-9.05-41.73-13.92-64.71-13.58-.32,1.59-.49,3.14-.48,4.66.02,3.7,1,7.19,2.84,10.26,1.87,3.1,4.62,5.79,8.14,7.86h-.01Z" style="fill: #002e67;"/>
        <path d="m50.98,125.49c5.93,3.84,13.27,6.61,21.82,7.93,8.64,1.33,17.67,1.05,26.56-.6,8.92-1.66,17.66-4.7,25.68-8.88,8.01-4.15,15.26-9.4,21.26-15.47,3.81-3.85,7.09-8.02,9.73-12.42-3.71-2.62-7.53-5.08-11.46-7.36-1.52,2.01-3.22,3.95-5.06,5.8-4.73,4.71-10.42,8.8-16.69,12.04-6.28,3.24-13.13,5.64-20.12,6.97-6.97,1.33-14.07,1.6-20.9.64-6.77-.96-12.6-3.05-17.34-5.98-4.7-2.9-8.32-6.62-10.74-10.88-2.38-4.22-3.61-8.97-3.53-14,.07-4.49,1.17-9.2,3.38-13.97-4.39.46-8.72,1.1-12.97,1.91-.51.86-1,1.73-1.47,2.62-3.5,6.68-5.29,13.32-5.5,19.63-.22,6.41,1.19,12.49,4.08,17.91,2.94,5.5,7.41,10.32,13.26,14.11h.01Z" style="fill: #002e67;"/>
        <path d="m166.92,104.5c-3.44,6.61-8.04,12.82-13.57,18.49-7.31,7.5-16.17,13.97-25.98,19.09-9.83,5.12-20.53,8.84-31.46,10.82-10.87,1.98-21.89,2.22-32.41.46-10.38-1.74-19.24-5.26-26.35-10.1-6.99-4.74-12.29-10.74-15.69-17.56-3.36-6.68-4.9-14.14-4.5-21.97.4-7.69,2.69-15.75,7-23.83,1.01-1.87,2.1-3.69,3.27-5.49-4.93,1.42-9.74,3.08-14.44,4.98-1.43,2.15-2.77,4.34-3.99,6.59C3.62,95.46.78,104.98.14,114.09c-.65,9.3.98,18.19,4.74,26.21,3.85,8.18,9.92,15.45,18.04,21.24,8.29,5.91,18.67,10.26,30.93,12.48,12.44,2.25,25.51,2.08,38.45-.21,13.01-2.3,25.77-6.71,37.48-12.86,11.68-6.12,22.22-13.9,30.89-22.91,6.95-7.23,12.65-15.21,16.74-23.7-3.34-3.45-6.84-6.73-10.49-9.84h0Z" style="fill: #002e67;"/>
      </g>
    </g>
  </g>
</svg>