<?xml version="1.0" encoding="UTF-8"?>
<svg id="Capa_1" data-name="Capa 1" xmlns="http://www.w3.org/2000/svg" viewBox="0 0 560.02 144.68">
  <g>
    <g>
      <path d="m21.81,103.41c-1.6-.25-3.55-.7-9.51-.7-6.5,0-11.56,1.75-11.56,10.26v26.32c0,.55.45,1,1,1h4.9c.55,0,1-.45,1-1v-15.31h13.56c.55,0,1-.45,1-1v-3.6c0-.55-.45-1-1-1H7.64v-5.4c0-3.3,1.05-4.3,3.95-4.3h10.21c.55,0,1-.45,1-1v-3.2c0-.7-.25-.95-1-1.05v-.02Z" style="fill: #002e67;"/>
      <path d="m46.59,102.71c-8.25,0-14.26,4.6-14.26,15.61v6.76c0,11.01,6,15.61,14.26,15.61s14.26-4.6,14.26-15.61v-6.76c0-11.01-6-15.61-14.26-15.61Zm7.26,22.37c0,6.6-2.35,9.56-7.26,9.56s-7.25-2.95-7.25-9.56v-6.76c0-6.61,2.35-9.56,7.25-9.56s7.26,2.95,7.26,9.56v6.76Z" style="fill: #002e67;"/>
      <path d="m98.03,103.11h-4.95c-.55,0-.95.4-.95.95v30.47c-1.85.2-4.91.4-6.91.4-5.4,0-6.7-2.6-6.7-8.31v-22.57c0-.55-.45-.95-1-.95h-4.95c-.55,0-1,.4-1,.95v22.57c0,10.66,5.6,14.06,13.66,14.06,3.05,0,9.36-.6,11.11-.85,1.8-.25,2.7-.95,2.7-3.05v-32.72c0-.55-.45-.95-1-.95h-.01Z" style="fill: #002e67;"/>
      <path d="m124.21,102.71c-2.9,0-8.36.45-11.06.85-1.55.25-2.1.7-2.1,2.55v33.17c0,.55.4,1,.95,1h5.05c.55,0,.95-.45.95-1v-30.17c1.65-.2,4.4-.4,6.91-.4,4.8,0,6.8,2.3,6.8,8.01v22.57c0,.55.35,1,.9,1h5.15c.55,0,.95-.45.95-1v-22.57c0-10.66-5.2-14.01-14.51-14.01h.01Z" style="fill: #002e67;"/>
      <path d="m161.59,102.71c-3.55,0-8.36.35-9.86.6-.85.15-1.3.55-1.3,1.55v33.67c0,1,.45,1.4,1.3,1.55,1.5.25,6.31.6,9.86.6,10.01,0,15.71-5.4,15.71-15.31v-7.35c0-9.91-5.7-15.31-15.71-15.31Zm8.8,22.66c0,7.51-3.8,9.46-8.8,9.46-1.85,0-3.15-.1-4.21-.15v-25.97c1.05-.05,2.35-.15,4.21-.15,5,0,8.8,1.95,8.8,9.46v7.35h0Z" style="fill: #002e67;"/>
      <path d="m203.23,102.86h-3.45c-6.91,0-11.46,2.25-11.46,10.66v25.77c0,.55.4,1,.95,1h5.05c.55,0,.95-.45.95-1v-13.21h12.51v13.21c0,.55.35,1,.9,1h5.06c.55,0,.95-.45.95-1v-25.77c0-8.4-4.55-10.66-11.46-10.66h0Zm4.55,17.36h-12.51v-6.7c0-3.5,1-4.6,4.51-4.6h3.45c3.55,0,4.55,1.1,4.55,4.6v6.7Z" style="fill: #002e67;"/>
      <path d="m248.21,103.11h-24.46c-.55,0-1,.4-1,.95v3.95c0,.55.45.9,1,.9h8.75v30.37c0,.55.45,1,1,1h4.95c.55,0,1-.45,1-1v-30.37h8.75c.55,0,1-.35,1-.9v-3.95c0-.55-.45-.95-1-.95h0Z" style="fill: #002e67;"/>
      <path d="m264.63,103.11h-4.95c-.55,0-1,.4-1,.95v35.22c0,.55.45,1,1,1h4.95c.55,0,1-.45,1-1v-35.22c0-.55-.45-.95-1-.95Z" style="fill: #002e67;"/>
      <path d="m290.9,102.71c-8.25,0-14.26,4.6-14.26,15.61v6.76c0,11.01,6,15.61,14.26,15.61s14.26-4.6,14.26-15.61v-6.76c0-11.01-6-15.61-14.26-15.61Zm7.25,22.37c0,6.6-2.35,9.56-7.25,9.56s-7.25-2.95-7.25-9.56v-6.76c0-6.61,2.35-9.56,7.25-9.56s7.25,2.95,7.25,9.56v6.76Z" style="fill: #002e67;"/>
      <path d="m329.29,102.71c-2.9,0-8.36.45-11.06.85-1.55.25-2.1.7-2.1,2.55v33.17c0,.55.4,1,.95,1h5.05c.55,0,.95-.45.95-1v-30.17c1.65-.2,4.4-.4,6.91-.4,4.8,0,6.8,2.3,6.8,8.01v22.57c0,.55.35,1,.9,1h5.15c.55,0,.95-.45.95-1v-22.57c0-10.66-5.2-14.01-14.51-14.01h.01Z" style="fill: #002e67;"/>
    </g>
    <g>
      <g>
        <path d="m41.12,2.68c-4.23-.4-13.71-.6-19.65-.6C7.36,2.08,0,7.43,0,20.83v54.83c0,1.11.9,2.01,2.01,2.01h5.14c1.12,0,2.02-.9,2.02-2.01v-32.96h30.94c1.11,0,2.01-.91,2.01-2.02v-3.83c0-1.1-.9-2.02-2.01-2.02H9.17v-14.01c0-7.66,1.72-10.48,12.4-10.48h19.45c.71,0,1.11-.51,1.11-1.21v-5.04c0-.6-.4-1.31-1.01-1.41Z" style="fill: #002e67;"/>
        <path d="m63.9,2.78h-5.54c-1.11,0-1.81.91-1.81,1.92v70.95c0,1.12.8,2.02,1.81,2.02h5.54c1.11,0,1.81-1.01,1.81-2.02V4.7c0-1.11-.8-1.92-1.81-1.92Z" style="fill: #002e67;"/>
      </g>
      <g>
        <path d="m156.58,2.78h-5.35c-1.11,0-1.92.91-1.92,1.91v46.16c0,13.6-2.72,19.75-14.11,19.75-1.71,0-7.05-.3-9.27-.9V4.6c0-1.11-.7-1.81-1.81-1.81h-5.44c-1.1,0-1.91.91-1.91,1.91v65.01c-2.22.6-7.56.9-9.28.9-11.39,0-14.11-6.15-14.11-19.75V4.69c0-1-.9-1.91-1.92-1.91h-5.34c-1.11,0-1.91.91-1.91,1.91v46.16c0,17.53,6.05,27.51,21.37,27.51,5.23,0,9.97-.51,15.71-2.52,5.75,2.02,10.59,2.52,15.83,2.52,15.32,0,21.36-9.98,21.36-27.51V4.69c0-1-.91-1.91-1.91-1.91h.01Z" style="fill: #5dc0cf;"/>
        <path d="m201.71,2.08h-5.85c-14.51,0-21.66,5.44-21.66,20.86v52.71c0,1.01.8,2.02,1.81,2.02h5.54c1.11,0,1.82-1.01,1.82-2.02v-29.83h30.84v29.83c0,1.11.8,2.02,1.81,2.02h5.55c1.01,0,1.81-1.01,1.81-2.02V22.94c0-15.42-7.25-20.86-21.66-20.86h0Zm12.5,35.67h-30.84v-14.81c0-10.48,3.32-12.8,12.5-12.8h5.85c9.17,0,12.5,2.32,12.5,12.8v14.81h-.01Z" style="fill: #5dc0cf;"/>
        <path d="m271.65,44.8c9.18-2.42,15.82-9.07,15.82-20.36v-.7c0-16.33-12.29-21.67-28.22-21.67-5.84,0-13.4.31-17.74.81-1.82.2-2.42.81-2.42,2.22v70.55c0,1.11.81,2.01,1.81,2.01h5.44c1.11,0,1.82-1.01,1.82-2.01v-29.63c5.34.2,7.75.31,11.08.31h2.62l18.04,30.03c.8,1.31,1.41,1.31,2.61,1.31h6.46c.81,0,1.31-.61,1.31-1.31,0-.3-.1-.61-.3-.91l-18.34-30.64h.01Zm-12.4-6.35c-2.32,0-6.65-.1-11.08-.2V10.63c2.42-.3,7.96-.3,11.08-.3,12.6,0,19.15,3.33,19.15,13.4v.7c0,10.88-6.75,14.01-19.15,14.01h0Z" style="fill: #5dc0cf;"/>
        <path d="m323.65,10.34h19.45c.71,0,1.11-.5,1.11-1.21v-5.04c0-.61-.4-1.31-1.01-1.41-4.23-.4-13.71-.6-19.65-.6-14.11,0-21.47,5.34-21.47,18.75v38.8c0,13.4,7.35,18.75,21.47,18.75,5.94,0,15.82-.1,19.65-.5.61-.1,1.01-.81,1.01-1.41v-5.14c0-.7-.4-1.21-1.11-1.21h-19.45c-10.69,0-12.4-2.82-12.4-10.48v-16.92h30.94c1.11,0,2.02-.92,2.02-2.02v-3.83c0-1.1-.9-2.02-2.02-2.02h-30.94v-14.01c0-7.66,1.71-10.48,12.4-10.48v-.02Z" style="fill: #5dc0cf;"/>
      </g>
    </g>
  </g>
  <g>
    <g>
      <path d="m509.3,13.81c-3.49-2.06-7.68-3.56-12.49-4.35-4.78-.8-9.73-.8-14.59-.13-4.85.67-9.63,2-14.09,3.87-4.47,1.89-8.63,4.34-12.22,7.25-3.61,2.91-6.67,6.31-8.89,10.08-2.25,3.78-3.45,7.61-3.69,11.27-.23,3.7.5,7.24,2.13,10.43,1.64,3.23,4.2,6.1,7.57,8.41,3.4,2.34,7.63,4.11,12.58,5.11,4.98,1,10.21,1.14,15.4.5,5.2-.65,10.32-2.05,15.1-4.1,4.76-2.04,9.15-4.72,12.86-7.9,3.7-3.17,6.73-6.82,8.79-10.83,2.05-3.97,2.97-7.93,2.88-11.65-.1-3.68-1.17-7.14-3.13-10.2-1.92-3.04-4.7-5.67-8.2-7.75h0Z" style="fill: #5dc0cf;"/>
      <path d="m534.14,25.69c-3.37-5.15-8.15-9.6-14.11-13.08-5.88-3.43-12.93-5.94-20.96-7.23-7.95-1.28-16.16-1.28-24.21-.17-8.03,1.11-15.95,3.31-23.35,6.43-7.42,3.12-14.36,7.19-20.41,12.03-6.1,4.87-11.32,10.56-15.23,16.89-3.96,6.41-6.2,12.91-6.85,19.2-.67,6.38.32,12.54,2.82,18.15,2.55,5.7,6.68,10.81,12.25,15,5.64,4.25,12.77,7.52,21.21,9.43,8.53,1.93,17.56,2.29,26.53,1.26,9.02-1.05,17.95-3.47,26.24-7.06,8.27-3.58,15.87-8.32,22.28-13.95,6.36-5.59,11.51-12.04,14.97-19.1,3.41-6.96,4.83-13.84,4.53-20.28-.3-6.36-2.28-12.3-5.71-17.52h0Zm-7.74,27.62c-2.76,5.5-6.84,10.5-11.85,14.85-5.04,4.37-11,8.05-17.48,10.85-6.5,2.81-13.49,4.71-20.56,5.55-7.05.84-14.15.61-20.89-.82-6.69-1.43-12.35-3.92-16.88-7.17-4.48-3.22-7.83-7.18-9.95-11.61-2.08-4.36-2.97-9.19-2.54-14.2.42-4.96,2.12-10.11,5.2-15.2,3.05-5.05,7.17-9.6,12.02-13.48,4.82-3.88,10.37-7.14,16.32-9.64,5.94-2.5,12.29-4.27,18.74-5.16,6.47-.89,13.05-.89,19.43.15,6.41,1.05,12.04,3.05,16.71,5.8,4.73,2.78,8.49,6.32,11.13,10.4,2.66,4.13,4.18,8.82,4.36,13.81.18,5.07-1,10.45-3.73,15.89l-.03-.02Z" style="fill: #5dc0cf;"/>
      <path d="m559.88,55.11c-.64-9.19-3.68-17.74-8.73-25.2-4.94-7.32-11.82-13.61-20.32-18.51-8.33-4.8-18.27-8.28-29.51-10.07-11.1-1.77-22.52-1.72-33.7-.17-11.13,1.54-22.12,4.6-32.43,8.93-10.34,4.34-20.06,10-28.6,16.74-8.64,6.82-16.12,14.8-21.84,23.74-5.83,9.11-9.32,18.39-10.59,27.43-1.3,9.22-.3,18.22,2.9,26.48,3.27,8.44,8.83,16.11,16.52,22.45,7.85,6.47,17.91,11.53,29.98,14.61,12.25,3.11,25.31,3.85,38.37,2.47,13.15-1.38,26.18-4.89,38.29-10.2,12.08-5.3,23.13-12.31,32.41-20.71,9.16-8.29,16.51-17.85,21.34-28.28,4.74-10.24,6.57-20.29,5.92-29.69v-.02Zm-15.38,18.87c-4.15,8.7-10.38,16.66-18.12,23.57-7.82,6.97-17.12,12.81-27.26,17.23-10.16,4.43-21.09,7.39-32.14,8.6-10.99,1.22-22,.7-32.37-1.8-10.23-2.46-18.82-6.58-25.58-11.9-6.64-5.22-11.51-11.58-14.44-18.61-2.87-6.9-3.89-14.44-2.95-22.23.94-7.64,3.78-15.53,8.65-23.28,4.8-7.64,11.15-14.47,18.5-20.31,7.29-5.8,15.63-10.66,24.51-14.39,8.86-3.73,18.32-6.36,27.91-7.69,9.63-1.32,19.45-1.35,28.97.18,9.64,1.54,18.13,4.53,25.23,8.66,7.22,4.19,13.03,9.55,17.18,15.78,4.22,6.33,6.71,13.55,7.16,21.31.46,7.89-1.19,16.33-5.26,24.89h.01Z" style="fill: #5dc0cf;"/>
    </g>
    <g>
      <path d="m453,60.64c3.4,2.34,7.62,4.11,12.58,5.1,4.98,1.01,10.22,1.13,15.4.49,5.2-.64,10.34-2.05,15.1-4.09,4.25-1.82,8.2-4.16,11.64-6.9-19.09-10.41-40.66-16.8-63.61-18.06-.43,1.56-.71,3.1-.81,4.61-.24,3.7.49,7.24,2.12,10.44,1.65,3.22,4.2,6.1,7.57,8.41h.01Z" style="fill: #002e67;"/>
      <path d="m424.08,92.9c5.65,4.24,12.77,7.52,21.22,9.43,8.53,1.93,17.55,2.28,26.53,1.26,9.02-1.04,17.95-3.46,26.23-7.06,8.28-3.58,15.88-8.32,22.29-13.95,4.07-3.58,7.63-7.5,10.57-11.71-3.52-2.88-7.16-5.59-10.92-8.14-1.66,1.9-3.48,3.72-5.45,5.43-5.04,4.37-11,8.05-17.49,10.85-6.49,2.79-13.49,4.71-20.56,5.55-7.05.84-14.15.62-20.89-.82-6.69-1.43-12.36-3.92-16.88-7.17-4.48-3.22-7.83-7.18-9.95-11.61-2.08-4.37-2.97-9.2-2.55-14.21.38-4.48,1.81-9.1,4.35-13.7-4.41.15-8.77.48-13.07,1-.57.83-1.12,1.66-1.64,2.51-3.95,6.42-6.2,12.92-6.85,19.2-.66,6.37.32,12.54,2.83,18.15,2.55,5.69,6.67,10.81,12.24,15h0Z" style="fill: #002e67;"/>
      <path d="m541.19,80.05c-3.89,6.35-8.92,12.23-14.82,17.49-7.81,6.97-17.11,12.81-27.25,17.23-10.17,4.43-21.1,7.39-32.14,8.6-10.99,1.22-21.99.69-32.36-1.8-10.23-2.46-18.83-6.59-25.58-11.91-6.64-5.22-11.51-11.57-14.43-18.61-2.88-6.89-3.9-14.45-2.95-22.23.93-7.65,3.78-15.53,8.65-23.28,1.13-1.79,2.35-3.54,3.64-5.24-5.01,1.08-9.93,2.4-14.75,3.96-1.58,2.04-3.06,4.14-4.44,6.29-5.83,9.1-9.33,18.39-10.6,27.43-1.3,9.23-.29,18.21,2.9,26.47,3.27,8.43,8.82,16.1,16.52,22.44,7.85,6.47,17.91,11.54,29.98,14.61,12.25,3.11,25.3,3.85,38.37,2.47,13.14-1.39,26.17-4.89,38.29-10.21,12.08-5.29,23.14-12.31,32.41-20.7,7.44-6.72,13.68-14.29,18.35-22.48-3.09-3.67-6.36-7.2-9.78-10.55v.02Z" style="fill: #002e67;"/>
    </g>
  </g>
</svg>