<?xml version="1.0" encoding="UTF-8"?>
<svg id="Livello_1" data-name="Livello 1" xmlns="http://www.w3.org/2000/svg" viewBox="0 0 269.4 231.19">
  <path d="m0,0v209.36h210.86l58.54,21.83V0H0Zm260,217.65l-47.44-17.69H9.4V9.4h250.6v208.25Z" style="fill: #fff;"/>
  <g>
    <path d="m58.17,37.29h-11.17c-2.59,0-3.52.88-3.52,3.74v4.95h14.25c.61,0,1.1.5,1.1,1.1v5.23c0,.61-.5,1.1-1.1,1.1h-14.25v16.07c0,.61-.5,1.1-1.1,1.1h-7.15c-.61,0-1.1-.5-1.1-1.1v-28.46c0-10.02,6.33-11.78,13.43-11.78,5.94,0,8.7.44,10.62.72.77.11,1.1.39,1.1,1.1v5.12c0,.61-.5,1.1-1.1,1.1Z" style="fill: #fff;"/>
    <path d="m74.63,70.59h-7.38c-.61,0-.99-.5-.99-1.1V30.75c0-.61.39-1.05.99-1.05h7.38c.6,0,1.05.44,1.05,1.05v38.75c0,.61-.44,1.1-1.05,1.1Z" style="fill: #fff;"/>
    <path d="m115.79,71.09c-3.96,0-7.1-.44-10.02-1.76-2.92,1.32-6,1.76-9.96,1.76-8.04,0-12.44-4.79-12.44-14.14v-26.2c0-.55.5-1.05,1.1-1.05h7.15c.61,0,1.1.5,1.1,1.05v26.2c0,5.01.77,5.94,4.84,5.94h3.52V30.8c0-.61.5-1.1,1.1-1.1h7.21c.61,0,1.1.44,1.1,1.05v32.14h3.52c4.07,0,4.84-.94,4.84-5.94v-26.2c0-.55.5-1.05,1.1-1.05h7.16c.61,0,1.1.5,1.1,1.05v26.2c0,9.36-4.4,14.14-12.44,14.14Z" style="fill: #fff;"/>
    <path d="m165.43,70.59h-7.27c-.61,0-.99-.5-.99-1.1v-13.37h-11.94v13.37c0,.61-.44,1.1-1.05,1.1h-7.27c-.61,0-1.1-.5-1.1-1.1v-28.07c0-9.91,6-12.11,13.37-12.11h4.02c7.38,0,13.32,2.2,13.32,12.11v28.07c0,.61-.5,1.1-1.1,1.1Zm-8.26-29.17c0-3.03-.88-3.96-3.96-3.96h-4.02c-3.03,0-3.96.94-3.96,3.96v6.94h11.94v-6.94Z" style="fill: #fff;"/>
    <path d="m204.89,70.59h-8.42c-.61,0-.83-.55-1.1-1.1l-7.38-13.92-.6.05c-1.16,0-2.86-.11-3.91-.11v13.98c0,.61-.5,1.1-1.1,1.1h-7.15c-.61,0-1.1-.5-1.1-1.1v-36.93c0-1.87.77-2.37,2.48-2.64,2.53-.39,7.21-.72,11.17-.72,9.36,0,16.57,3.14,16.57,12.88v.72c0,5.83-3.08,9.41-7.1,11.01l8.31,15.52c.11.22.17.44.17.61,0,.39-.22.66-.83.66Zm-9.91-28.51c0-3.36-2.59-4.9-7.21-4.9-.77,0-3.63.11-4.29.17v10.57c.6.06,3.3.11,3.91.11,5.78,0,7.6-1.49,7.6-5.23v-.72Z" style="fill: #fff;"/>
    <path d="m234.55,70.37c-1.93.28-4.73.72-10.68.72-7.1,0-13.37-1.82-13.37-11.83v-18.27c0-10.02,6.33-11.78,13.43-11.78,5.94,0,8.7.44,10.62.72.77.11,1.1.39,1.1,1.1v5.12c0,.61-.5,1.1-1.1,1.1h-11.17c-2.59,0-3.52.88-3.52,3.74v5.01h14.25c.61,0,1.1.5,1.1,1.1v5.23c0,.61-.5,1.1-1.1,1.1h-14.25v5.83c0,2.86.94,3.74,3.52,3.74h11.17c.61,0,1.1.5,1.1,1.1v5.12c0,.72-.33,1.05-1.1,1.16Z" style="fill: #fff;"/>
    <path d="m42.65,125.63h-7.38c-.61,0-.99-.5-.99-1.1v-38.75c0-.61.39-1.05.99-1.05h7.38c.6,0,1.05.44,1.05,1.05v38.75c0,.61-.44,1.1-1.05,1.1Z" style="fill: #fff;"/>
    <path d="m95.1,125.63h-7.27c-.61,0-1.05-.5-1.05-1.1v-24.27c0-6.49-1.71-7.65-8.26-7.65v31.92c0,.61-.5,1.1-1.1,1.1h-7.27c-.61,0-1.05-.5-1.05-1.1v-31.92c-6.55,0-8.31,1.16-8.31,7.65v24.27c0,.61-.44,1.1-1.05,1.1h-7.27c-.61,0-1.1-.5-1.1-1.1v-24.27c0-13.59,6.94-16.02,22.4-16.02s22.4,2.42,22.4,16.02v24.27c0,.61-.5,1.1-1.1,1.1Z" style="fill: #fff;"/>
    <path d="m117.66,111.32c-1.32,0-3.08-.11-4.46-.17v13.37c0,.61-.5,1.1-1.1,1.1h-7.1c-.61,0-1.1-.44-1.1-1.05v-36.99c0-1.87.77-2.37,2.48-2.64,2.81-.44,7.21-.72,11.17-.72,8.31,0,16.51,2.92,16.51,13.26v.5c0,10.29-8.2,13.32-16.4,13.32Zm7.04-13.81c0-3.91-2.42-5.45-7.04-5.45-.77,0-3.8.11-4.46.17v11.23c.61.06,3.85.11,4.46.11,4.9,0,7.04-1.82,7.04-5.56v-.5Z" style="fill: #fff;"/>
    <path d="m169.23,125.63h-7.27c-.61,0-.99-.5-.99-1.1v-13.37h-11.94v13.37c0,.61-.44,1.1-1.05,1.1h-7.27c-.61,0-1.1-.5-1.1-1.1v-28.07c0-9.91,6-12.11,13.37-12.11h4.02c7.38,0,13.32,2.2,13.32,12.11v28.07c0,.61-.5,1.1-1.1,1.1Zm-8.26-29.17c0-3.03-.88-3.96-3.96-3.96h-4.02c-3.03,0-3.96.94-3.96,3.96v6.94h11.94v-6.94Z" style="fill: #fff;"/>
    <path d="m201.48,125.19c-1.16.39-4.35.94-8.2.94-8.37,0-16.29-4.4-16.29-17.5v-6.94c0-13.1,7.93-17.45,16.29-17.45,3.85,0,7.04.55,8.2.94.77.22,1.21.44,1.21,1.21v5.34c0,.66-.33,1.1-1.05,1.1h-.17c-2.09-.17-5.12-.44-8.15-.44-3.8,0-6.83,1.98-6.83,9.3v6.94c0,7.32,3.03,9.3,6.83,9.3,3.03,0,6.05-.27,8.15-.44h.17c.72,0,1.05.44,1.05,1.1v5.34c0,.77-.44,1.05-1.21,1.27Z" style="fill: #fff;"/>
    <path d="m234.72,92.49h-8.92v32.03c0,.61-.5,1.1-1.1,1.1h-7.21c-.61,0-1.1-.5-1.1-1.1v-32.03h-8.97c-.61,0-1.1-.44-1.1-1.05v-5.67c0-.61.5-1.05,1.1-1.05h27.3c.61,0,1.16.44,1.16,1.05v5.67c0,.61-.55,1.05-1.16,1.05Z" style="fill: #fff;"/>
    <path d="m45.46,181.16c-4.35,0-7.6-.5-10.4-1.21-.55-.17-1.1-.5-1.1-1.1v-5.39c0-.77.44-1.05.99-1.05h.17c2.26.22,8.31.66,10.46.66,3.8,0,4.9-1.21,4.9-3.85,0-1.6-.77-2.48-3.63-4.18l-7.6-4.51c-5.12-3.03-6.49-6.49-6.49-10.51,0-6.05,3.41-10.73,14.09-10.73,4.02,0,9.58.66,11.67,1.21.44.11.83.39.83.99v5.56c0,.5-.22.94-.94.94h-.11c-1.54-.11-7.93-.61-11.67-.61-3.14,0-4.29.94-4.29,2.92,0,1.54.72,2.26,3.69,3.85l7.04,3.8c5.72,3.08,7.43,6.71,7.43,11.17,0,5.83-3.85,12.05-15.03,12.05Z" style="fill: #fff;"/>
    <path d="m90.92,147.53h-8.92v32.03c0,.61-.5,1.1-1.1,1.1h-7.21c-.61,0-1.1-.5-1.1-1.1v-32.03h-8.97c-.61,0-1.1-.44-1.1-1.05v-5.67c0-.61.5-1.05,1.1-1.05h27.3c.61,0,1.16.44,1.16,1.05v5.67c0,.61-.55,1.05-1.16,1.05Z" style="fill: #fff;"/>
    <path d="m109.35,181.16c-9.08,0-16.29-4.9-16.29-17.67v-6.55c0-12.77,7.21-17.67,16.29-17.67s16.29,4.9,16.29,17.67v6.55c0,12.77-7.21,17.67-16.29,17.67Zm6.82-24.22c0-6.6-2.2-9.41-6.82-9.41s-6.77,2.81-6.77,9.41v6.55c0,6.6,2.15,9.41,6.77,9.41s6.82-2.81,6.82-9.41v-6.55Z" style="fill: #fff;"/>
    <path d="m160.43,180.66h-8.42c-.61,0-.83-.55-1.1-1.1l-7.38-13.92-.6.06c-1.16,0-2.86-.11-3.91-.11v13.98c0,.61-.5,1.1-1.1,1.1h-7.15c-.61,0-1.1-.5-1.1-1.1v-36.93c0-1.87.77-2.37,2.48-2.64,2.53-.39,7.21-.72,11.17-.72,9.36,0,16.57,3.14,16.57,12.88v.72c0,5.83-3.08,9.41-7.1,11.01l8.31,15.52c.11.22.17.44.17.61,0,.39-.22.66-.83.66Zm-9.91-28.51c0-3.36-2.59-4.9-7.21-4.9-.77,0-3.63.11-4.29.17v10.57c.61.06,3.3.11,3.91.11,5.78,0,7.6-1.49,7.6-5.23v-.72Z" style="fill: #fff;"/>
    <path d="m173.8,180.66h-7.38c-.61,0-.99-.5-.99-1.1v-38.75c0-.61.39-1.05.99-1.05h7.38c.6,0,1.05.44,1.05,1.05v38.75c0,.61-.44,1.1-1.05,1.1Z" style="fill: #fff;"/>
    <path d="m203.68,180.44c-1.93.28-4.73.72-10.68.72-7.1,0-13.37-1.82-13.37-11.83v-18.27c0-10.02,6.33-11.78,13.43-11.78,5.94,0,8.7.44,10.62.72.77.11,1.1.39,1.1,1.1v5.12c0,.61-.5,1.1-1.1,1.1h-11.17c-2.59,0-3.52.88-3.52,3.74v5.01h14.26c.6,0,1.1.5,1.1,1.1v5.23c0,.61-.5,1.1-1.1,1.1h-14.26v5.83c0,2.86.94,3.74,3.52,3.74h11.17c.61,0,1.1.5,1.1,1.1v5.12c0,.72-.33,1.05-1.1,1.16Z" style="fill: #fff;"/>
    <path d="m221.23,181.16c-4.35,0-7.6-.5-10.4-1.21-.55-.17-1.1-.5-1.1-1.1v-5.39c0-.77.44-1.05.99-1.05h.17c2.26.22,8.31.66,10.46.66,3.8,0,4.9-1.21,4.9-3.85,0-1.6-.77-2.48-3.63-4.18l-7.6-4.51c-5.12-3.03-6.49-6.49-6.49-10.51,0-6.05,3.41-10.73,14.09-10.73,4.02,0,9.58.66,11.67,1.21.44.11.83.39.83.99v5.56c0,.5-.22.94-.94.94h-.11c-1.54-.11-7.93-.61-11.67-.61-3.14,0-4.29.94-4.29,2.92,0,1.54.72,2.26,3.69,3.85l7.04,3.8c5.72,3.08,7.43,6.71,7.43,11.17,0,5.83-3.85,12.05-15.03,12.05Z" style="fill: #fff;"/>
  </g>
</svg>