<?xml version="1.0" encoding="UTF-8"?>
<svg id="Livello_1" data-name="Livello 1" xmlns="http://www.w3.org/2000/svg" viewBox="0 0 412.58 260">
  <polygon points="6.08 .1 43.86 .1 43.86 6.07 13.08 6.07 13.08 32.92 39.06 32.92 39.06 38.89 13.08 38.89 13.08 72.02 6.08 72.02 6.08 .1" style="fill: #e14c28;"/>
  <rect x="55.36" y=".1" width="7" height="71.91" style="fill: #e14c28;"/>
  <polygon points="73.25 .1 80.75 .1 96.75 63.17 114.64 .1 122.43 .1 139.82 63.17 155.91 .1 163.41 .1 143.62 72.02 135.82 72.02 118.23 10.7 100.24 72.02 92.64 72.12 73.25 .1" style="fill: #e14c28;"/>
  <path d="m194.39,10.08l-13.79,38.89h27.59l-13.79-38.89Zm15.89,44.86h-31.78l-6.1,17.08h-7.4L190.5,1.03h7.9l25.39,70.99h-7.4l-6.1-17.08Z" style="fill: #e14c28;"/>
  <path d="m256.17,6.17h-14v29.94h14.1c11.4,0,16.49-6.38,16.49-15.12s-4.8-14.82-16.59-14.82m0-6.07c16.19,0,23.78,9.05,23.78,20.89,0,9.87-5.39,18.21-17.19,20.47l17.99,30.55h-8.4l-17.29-30.04h-12.9v30.04h-6.99V.1h20.99Z" style="fill: #e14c28;"/>
  <polygon points="331.23 5.97 301.74 5.97 301.74 32.82 328.23 32.82 328.23 38.79 301.74 38.79 301.74 66.05 331.23 66.05 331.23 72.02 294.75 72.02 294.75 0 331.23 0 331.23 5.97" style="fill: #e14c28;"/>
  <path d="m70.78,114.92h-16.73c-3.32-6.31-9.35-9.63-17.04-9.63-12.99,0-22.03,9.52-22.03,24.39s9.14,24.61,22.66,24.61c11.23,0,18.4-6.63,20.58-17.22h-24.94v-11.45h39.29v13.05c-2.91,15.19-16.11,29.1-35.44,29.1-21.1,0-37.11-15.72-37.11-38.08s16-38.19,37-38.19c16.22,0,29.11,8.45,33.78,23.43" style="fill: #e14c28;"/>
  <rect x="83.37" y="87.96" width="14.55" height="79.17" style="fill: #e14c28;"/>
  <g>
    <path d="m137.84,155.04c7.69,0,15.07-5.78,15.07-17.55s-7.17-17.54-14.86-17.54-14.65,5.67-14.65,17.54,6.65,17.55,14.45,17.55m0,13.05c-16.63,0-29.21-11.98-29.21-30.6s12.99-30.6,29.62-30.6,29.62,11.88,29.62,30.6-13.3,30.6-30.04,30.6" style="fill: #e14c28;"/>
    <path d="m208.31,120.06c-7.79,0-15.18,6.2-15.18,17.44s7.38,17.44,15.18,17.44,15.28-6.42,15.28-17.65-7.38-17.22-15.28-17.22m3.85-13.16c14.76,0,26.29,11.88,26.29,30.39s-11.53,30.81-26.29,30.81c-9.04,0-15.49-4.28-19.02-9.42v8.45h-14.55v-79.17h14.55v28.56c3.54-5.45,10.3-9.63,19.02-9.63" style="fill: #e14c28;"/>
    <path d="m275.37,120.06c-7.79,0-15.18,5.99-15.18,17.22s7.38,17.65,15.18,17.65,15.28-6.2,15.28-17.44-7.28-17.44-15.28-17.44m-3.74-13.16c9.25,0,15.59,4.49,19.02,9.42v-8.45h14.65v59.26h-14.65v-8.66c-3.43,5.14-9.98,9.63-19.12,9.63-14.55,0-26.19-12.31-26.19-30.81s11.64-30.39,26.29-30.39" style="fill: #e14c28;"/>
  </g>
  <rect x="319.55" y="87.96" width="14.55" height="79.17" style="fill: #e14c28;"/>
  <g>
    <path d="m29,260c-15.08,0-26.71-8.13-26.92-22.25h15.59c.42,5.99,4.26,9.95,11.02,9.95s10.91-3.74,10.91-9.09c0-16.16-37.42-6.42-37.31-33.49,0-13.48,10.6-21.61,25.56-21.61s25.05,7.81,25.98,21.29h-16c-.31-4.92-4.16-8.77-10.4-8.88-5.72-.21-9.98,2.68-9.98,8.77,0,14.98,37.21,6.63,37.21,32.95,0,11.77-9.15,22.36-25.67,22.36" style="fill: #e14c28;"/>
    <path d="m121.62,259.25h-14.65v-7.49c-3.64,5.03-9.98,8.24-17.15,8.24-13.41,0-23.08-8.99-23.08-25.25v-34.77h14.55v32.63c0,9.52,5.09,14.66,12.79,14.66s12.89-5.14,12.89-14.66v-32.63h14.65v59.27Z" style="fill: #e14c28;"/>
    <path d="m216.52,226.51c0-9.41-5.09-14.34-12.78-14.34s-12.89,4.92-12.89,14.34v32.74h-14.55v-32.74c0-9.41-5.09-14.34-12.78-14.34s-12.99,4.92-12.99,14.34v32.74h-14.55v-59.27h14.55v7.17c3.64-4.92,9.77-8.02,16.94-8.02,8.94,0,16.32,3.96,20.27,11.34,3.74-6.74,11.33-11.34,19.75-11.34,13.82,0,23.59,8.99,23.59,25.35v34.77h-14.55v-32.74Z" style="fill: #e14c28;"/>
    <path d="m325.47,226.51c0-9.41-5.09-14.34-12.79-14.34s-12.88,4.92-12.88,14.34v32.74h-14.55v-32.74c0-9.41-5.09-14.34-12.79-14.34s-12.99,4.92-12.99,14.34v32.74h-14.55v-59.27h14.55v7.17c3.64-4.92,9.77-8.02,16.94-8.02,8.94,0,16.31,3.96,20.27,11.34,3.74-6.74,11.33-11.34,19.74-11.34,13.83,0,23.6,8.99,23.6,25.35v34.77h-14.55v-32.74Z" style="fill: #e14c28;"/>
    <path d="m353.85,199.98h14.55v59.27h-14.55v-59.27Zm-1.56-15.83c0-4.92,3.74-8.77,8.94-8.77s8.94,3.86,8.94,8.77-3.85,8.77-8.94,8.77-8.94-3.86-8.94-8.77" style="fill: #e14c28;"/>
    <path d="m385.04,212.28h-6.86v-12.3h6.86v-14.66h14.65v14.66h12.89v12.3h-12.89v28.67c0,3.96,1.56,5.67,6.13,5.67h6.76v12.63h-9.15c-11.01,0-18.39-4.82-18.39-18.4v-28.56Z" style="fill: #e14c28;"/>
  </g>
</svg>