<?xml version="1.0" encoding="UTF-8"?>
<svg id="Livello_1" data-name="Livello 1" xmlns="http://www.w3.org/2000/svg" viewBox="0 0 260 260">
  <circle cx="130" cy="130" r="130" style="fill: #fff;"/>
  <g>
    <polygon points="49.98 78.04 65.09 78.04 65.09 80.43 52.78 80.43 52.78 91.17 63.17 91.17 63.17 93.56 52.78 93.56 52.78 106.81 49.98 106.81 49.98 78.04"/>
    <rect x="69.69" y="78.04" width="2.8" height="28.77"/>
    <polygon points="76.84 78.04 79.84 78.04 86.24 103.27 93.4 78.04 96.52 78.04 103.47 103.27 109.91 78.04 112.91 78.04 104.99 106.81 101.87 106.81 94.84 82.28 87.64 106.81 84.6 106.85 76.84 78.04"/>
    <path d="m125.3,82.03l-5.52,15.55h11.04l-5.52-15.55Zm6.36,17.94h-12.71l-2.44,6.83h-2.96l10.19-28.4h3.16l10.16,28.4h-2.96l-2.44-6.83Z"/>
    <path d="m150.01,80.47h-5.6v11.97h5.64c4.56,0,6.6-2.55,6.6-6.05s-1.92-5.93-6.64-5.93m0-2.43c6.48,0,9.51,3.62,9.51,8.35,0,3.95-2.16,7.28-6.88,8.19l7.2,12.22h-3.36l-6.92-12.02h-5.16v12.02h-2.8v-28.77h8.4Z"/>
    <polygon points="180.04 80.39 168.24 80.39 168.24 91.13 178.84 91.13 178.84 93.51 168.24 93.51 168.24 104.42 180.04 104.42 180.04 106.81 165.44 106.81 165.44 78 180.04 78 180.04 80.39"/>
    <path d="m75.86,123.97h-6.69c-1.33-2.52-3.74-3.85-6.82-3.85-5.2,0-8.81,3.81-8.81,9.76s3.66,9.84,9.06,9.84c4.49,0,7.36-2.65,8.23-6.89h-9.98v-4.58h15.72v5.22c-1.16,6.08-6.44,11.64-14.18,11.64-8.44,0-14.84-6.29-14.84-15.23s6.4-15.28,14.8-15.28c6.49,0,11.64,3.38,13.51,9.37"/>
    <rect x="80.89" y="113.18" width="5.82" height="31.67"/>
    <g>
      <path d="m102.68,140.02c3.08,0,6.03-2.31,6.03-7.02s-2.87-7.02-5.94-7.02-5.86,2.27-5.86,7.02,2.66,7.02,5.78,7.02m0,5.22c-6.65,0-11.68-4.79-11.68-12.24s5.2-12.24,11.85-12.24,11.85,4.75,11.85,12.24-5.32,12.24-12.02,12.24"/>
      <path d="m130.87,126.02c-3.12,0-6.07,2.48-6.07,6.97s2.95,6.97,6.07,6.97,6.11-2.57,6.11-7.06-2.95-6.89-6.11-6.89m1.54-5.26c5.9,0,10.52,4.75,10.52,12.15s-4.61,12.32-10.52,12.32c-3.62,0-6.19-1.71-7.61-3.77v3.38h-5.82v-31.67h5.82v11.43c1.41-2.18,4.12-3.85,7.61-3.85"/>
      <path d="m157.69,126.02c-3.12,0-6.07,2.4-6.07,6.89s2.95,7.06,6.07,7.06,6.11-2.48,6.11-6.97-2.91-6.97-6.11-6.97m-1.5-5.26c3.7,0,6.24,1.8,7.61,3.77v-3.38h5.86v23.71h-5.86v-3.47c-1.37,2.05-3.99,3.85-7.65,3.85-5.82,0-10.48-4.92-10.48-12.32s4.66-12.15,10.52-12.15"/>
    </g>
    <rect x="175.36" y="113.18" width="5.82" height="31.67"/>
    <g>
      <path d="m59.14,182c-6.03,0-10.68-3.25-10.77-8.9h6.24c.17,2.4,1.7,3.98,4.41,3.98s4.36-1.5,4.36-3.64c0-6.46-14.97-2.57-14.92-13.4,0-5.39,4.24-8.64,10.23-8.64s10.02,3.12,10.39,8.52h-6.4c-.12-1.97-1.66-3.51-4.16-3.55-2.29-.09-3.99,1.07-3.99,3.51,0,5.99,14.88,2.65,14.88,13.18,0,4.71-3.66,8.94-10.27,8.94"/>
      <path d="m96.19,181.7h-5.86v-3c-1.46,2.01-3.99,3.3-6.86,3.3-5.36,0-9.23-3.59-9.23-10.1v-13.91h5.82v13.05c0,3.81,2.04,5.86,5.11,5.86s5.16-2.05,5.16-5.86v-13.05h5.86v23.71Z"/>
      <path d="m134.15,168.61c0-3.76-2.04-5.73-5.11-5.73s-5.16,1.97-5.16,5.73v13.1h-5.82v-13.1c0-3.76-2.04-5.73-5.11-5.73s-5.2,1.97-5.2,5.73v13.1h-5.82v-23.71h5.82v2.87c1.46-1.97,3.91-3.21,6.78-3.21,3.57,0,6.53,1.58,8.11,4.54,1.5-2.7,4.53-4.54,7.9-4.54,5.53,0,9.44,3.59,9.44,10.14v13.91h-5.82v-13.1Z"/>
      <path d="m177.73,168.61c0-3.76-2.04-5.73-5.11-5.73s-5.15,1.97-5.15,5.73v13.1h-5.82v-13.1c0-3.76-2.04-5.73-5.11-5.73s-5.2,1.97-5.2,5.73v13.1h-5.82v-23.71h5.82v2.87c1.46-1.97,3.91-3.21,6.78-3.21,3.57,0,6.53,1.58,8.11,4.54,1.5-2.7,4.53-4.54,7.9-4.54,5.53,0,9.44,3.59,9.44,10.14v13.91h-5.82v-13.1Z"/>
      <path d="m189.08,157.99h5.82v23.71h-5.82v-23.71Zm-.62-6.33c0-1.97,1.5-3.51,3.58-3.51s3.58,1.54,3.58,3.51-1.54,3.51-3.58,3.51-3.58-1.54-3.58-3.51"/>
      <path d="m201.56,162.91h-2.74v-4.92h2.74v-5.86h5.86v5.86h5.16v4.92h-5.16v11.47c0,1.58.62,2.27,2.45,2.27h2.7v5.05h-3.66c-4.4,0-7.36-1.93-7.36-7.36v-11.43Z"/>
    </g>
  </g>
</svg>