<?xml version="1.0" encoding="UTF-8"?>
<svg id="logo_FIWARE_Claim" data-name="logo FIWARE Claim" xmlns="http://www.w3.org/2000/svg" xmlns:xlink="http://www.w3.org/1999/xlink" viewBox="0 0 563.81 158.05">
  <defs>
    <filter id="drop-shadow-1">
      <feOffset dx="0" dy="5"/>
      <feGaussianBlur result="blur" stdDeviation="4"/>
      <feFlood flood-color="#000" flood-opacity=".6"/>
      <feComposite in2="blur" operator="in"/>
      <feComposite in="SourceGraphic"/>
    </filter>
  </defs>
  <g style="fill: none; filter: url(#drop-shadow-1);">
    <g>
      <g>
        <path d="m114.51,19.2c-3.18-1.59-6.94-2.64-11.2-3.05-4.23-.4-8.56-.1-12.78.78-4.21.88-8.31,2.34-12.1,4.25-3.8,1.93-7.29,4.32-10.26,7.09-2.98,2.77-5.45,5.93-7.17,9.37-1.74,3.45-2.55,6.87-2.54,10.09.02,3.25.88,6.31,2.5,9,1.64,2.72,4.05,5.08,7.14,6.9,3.12,1.84,6.93,3.13,11.33,3.7,4.42.58,9.01.37,13.51-.51,4.51-.88,8.91-2.43,12.97-4.51,4.04-2.08,7.72-4.7,10.78-7.7,3.05-3,5.47-6.38,7.03-10.02,1.55-3.6,2.11-7.12,1.81-10.37-.31-3.22-1.46-6.18-3.36-8.74-1.87-2.54-4.46-4.68-7.65-6.29h-.01Z" style="fill: #5dc0cf;"/>
        <path d="m136.98,28.08c-3.27-4.3-7.72-7.91-13.15-10.58-5.36-2.65-11.68-4.41-18.79-5.05-7.04-.63-14.22-.13-21.2,1.33-6.96,1.46-13.76,3.87-20.05,7.05-6.3,3.18-12.13,7.17-17.13,11.78-5.04,4.63-9.26,9.93-12.3,15.72-3.07,5.86-4.64,11.68-4.82,17.23-.19,5.62,1.04,10.96,3.58,15.71,2.58,4.83,6.5,9.06,11.64,12.38,5.2,3.37,11.64,5.8,19.15,6.96,7.59,1.17,15.51.93,23.3-.52,7.84-1.47,15.5-4.14,22.54-7.79,7.02-3.64,13.38-8.25,18.65-13.57,5.23-5.28,9.34-11.24,11.93-17.63,2.56-6.3,3.38-12.41,2.73-18.03-.65-5.55-2.75-10.63-6.07-14.98h0Zm-5.08,24.66c-2.08,4.98-5.34,9.61-9.46,13.72-4.14,4.14-9.14,7.72-14.64,10.56-5.52,2.85-11.52,4.95-17.66,6.12-6.12,1.16-12.35,1.4-18.34.56-5.94-.84-11.05-2.68-15.22-5.24-4.12-2.55-7.29-5.81-9.42-9.56-2.09-3.69-3.17-7.87-3.1-12.28.06-4.37,1.24-8.98,3.62-13.62,2.36-4.61,5.69-8.84,9.7-12.54,3.98-3.69,8.64-6.89,13.7-9.44,5.04-2.56,10.5-4.49,16.09-5.67,5.61-1.17,11.37-1.58,17.02-1.05,5.68.52,10.73,1.93,14.98,4.05,4.31,2.15,7.82,5.01,10.38,8.43,2.58,3.45,4.2,7.46,4.66,11.82.47,4.43-.23,9.21-2.3,14.14h0Z" style="fill: #5dc0cf;"/>
        <path d="m161.32,52.26c-1.12-8.01-4.31-15.3-9.18-21.53-4.77-6.1-11.19-11.19-18.93-14.96-7.59-3.69-16.5-6.13-26.45-7.01-9.82-.86-19.82-.13-29.52,1.91-9.65,2.04-19.09,5.38-27.84,9.8-8.78,4.43-16.95,9.98-24.01,16.4-7.14,6.5-13.2,13.94-17.67,22.12C3.17,67.32.68,75.66.13,83.65c-.58,8.16.86,15.97,4.16,23,3.38,7.19,8.71,13.56,15.84,18.64,7.27,5.18,16.38,9,27.14,10.95,10.91,1.97,22.39,1.82,33.74-.19,11.42-2.02,22.62-5.89,32.9-11.28,10.25-5.38,19.5-12.2,27.11-20.11,7.52-7.81,13.36-16.64,16.95-26.06,3.52-9.26,4.51-18.17,3.36-26.35h-.01Zm-12.31,17.46c-3.1,7.87-8.07,15.22-14.42,21.74-6.42,6.58-14.2,12.26-22.81,16.75-8.63,4.5-18.01,7.76-27.61,9.5-9.54,1.74-19.21,1.96-28.44.41-9.11-1.52-16.88-4.61-23.13-8.85-6.13-4.17-10.78-9.43-13.78-15.41-2.94-5.86-4.29-12.41-3.94-19.28.35-6.75,2.36-13.82,6.15-20.91,3.74-6.98,8.87-13.35,14.95-18.91,6.03-5.52,13.03-10.29,20.58-14.1,7.53-3.81,15.65-6.69,23.96-8.44,8.35-1.75,16.94-2.37,25.37-1.62,8.53.76,16.15,2.86,22.62,6.03,6.57,3.22,11.99,7.56,16,12.76,4.08,5.29,6.7,11.45,7.57,18.22.88,6.88-.04,14.36-3.08,22.11h0Z" style="fill: #5dc0cf;"/>
      </g>
      <g>
        <path d="m68.1,63.65c3.12,1.84,6.93,3.13,11.33,3.7,4.42.58,9.02.36,13.51-.51,4.51-.88,8.92-2.42,12.97-4.51,3.61-1.85,6.92-4.14,9.77-6.75-17.34-7.94-36.62-12.22-56.79-11.92-.28,1.39-.43,2.76-.42,4.09.02,3.25.87,6.31,2.49,9.01,1.64,2.72,4.05,5.08,7.14,6.9h0Z" style="fill: #002e67;"/>
        <path d="m44.75,93.66c5.2,3.37,11.64,5.8,19.15,6.96,7.59,1.17,15.51.92,23.31-.52,7.83-1.46,15.5-4.13,22.53-7.79,7.03-3.64,13.39-8.25,18.66-13.57,3.34-3.38,6.22-7.04,8.54-10.9-3.25-2.3-6.61-4.46-10.06-6.46-1.33,1.76-2.82,3.47-4.44,5.09-4.15,4.14-9.14,7.72-14.65,10.57-5.51,2.84-11.52,4.95-17.66,6.12-6.12,1.17-12.35,1.4-18.33.56-5.94-.84-11.06-2.67-15.22-5.24-4.12-2.55-7.3-5.81-9.42-9.55-2.09-3.7-3.17-7.87-3.1-12.28.06-3.94,1.03-8.07,2.97-12.26-3.85.4-7.65.96-11.38,1.68-.45.76-.88,1.52-1.28,2.29-3.07,5.86-4.64,11.69-4.82,17.23-.19,5.62,1.04,10.96,3.58,15.72,2.58,4.83,6.5,9.06,11.63,12.38v-.03Z" style="fill: #002e67;"/>
        <path d="m146.49,75.24c-3.02,5.8-7.06,11.25-11.9,16.22-6.41,6.58-14.2,12.26-22.8,16.75-8.63,4.5-18.02,7.76-27.61,9.5-9.54,1.74-19.21,1.95-28.44.41-9.11-1.53-16.89-4.61-23.12-8.86-6.14-4.16-10.78-9.42-13.77-15.41-2.95-5.86-4.3-12.41-3.95-19.28.35-6.75,2.36-13.82,6.15-20.91.88-1.64,1.84-3.24,2.87-4.81-4.32,1.25-8.55,2.71-12.67,4.37-1.26,1.88-2.43,3.81-3.5,5.78C3.2,67.32.71,75.67.15,83.66c-.57,8.16.86,15.97,4.16,23,3.38,7.18,8.71,13.55,15.83,18.63,7.27,5.18,16.39,9,27.14,10.95,10.91,1.98,22.39,1.82,33.74-.19,11.42-2.02,22.61-5.89,32.89-11.28,10.25-5.37,19.5-12.2,27.1-20.11,6.1-6.34,11.1-13.35,14.69-20.8-2.93-3.02-6.01-5.91-9.21-8.64v.02Z" style="fill: #002e67;"/>
      </g>
    </g>
    <g>
      <g>
        <g>
          <path d="m230.12,22.68c-4.57-.11-14.75.38-21.12.82-15.13,1.06-22.61,7.33-21.61,21.71l4.11,58.78c.08,1.19,1.12,2.1,2.31,2.02l5.51-.39c1.19-.08,2.09-1.13,2.01-2.32l-2.47-35.33,33.17-2.32c1.19-.08,2.09-1.13,2.01-2.31l-.29-4.11c-.08-1.19-1.13-2.09-2.31-2.01l-33.17,2.32-1.05-15.02c-.57-8.22,1.05-11.36,12.5-12.16l20.85-1.46c.75-.05,1.15-.63,1.1-1.38l-.38-5.4c-.05-.64-.54-1.37-1.19-1.44h.02Z" style="fill: #002e67;"/>
          <path d="m254.55,21.08l-5.95.42c-1.19.08-1.88,1.11-1.8,2.18l5.32,76.07c.08,1.19,1.02,2.1,2.1,2.03l5.95-.42c1.18-.08,1.87-1.21,1.79-2.3l-5.32-76.07c-.08-1.19-1-1.99-2.08-1.91h-.01Z" style="fill: #002e67;"/>
        </g>
        <g>
          <path d="m353.92,14.13l-5.73.4c-1.18.08-1.98,1.12-1.91,2.2l3.46,49.49c1.02,14.59-1.43,21.38-13.65,22.24-1.84.13-7.59.2-10.01-.28l-4.88-69.8c-.08-1.19-.89-1.9-2.08-1.82l-5.84.41c-1.19.08-1.98,1.12-1.9,2.2l4.87,69.7c-2.34.81-8.04,1.54-9.88,1.67-12.21.85-15.59-5.53-16.61-20.12l-3.46-49.49c-.08-1.08-1.12-1.99-2.2-1.91l-5.73.4c-1.19.08-1.98,1.12-1.91,2.2l3.46,49.49c1.31,18.8,8.54,29.05,24.97,27.9,5.63-.39,10.66-1.29,16.67-3.88,6.31,1.73,11.53,1.91,17.15,1.52,16.43-1.15,22.16-12.3,20.85-31.1l-3.46-49.49c-.08-1.08-1.12-1.99-2.19-1.91v-.02Z" style="fill: #5dc0cf;"/>
          <path d="m402.27,9.99l-6.27.44c-15.56,1.09-22.82,7.46-21.66,23.99l3.95,56.51c.08,1.08,1.02,2.11,2.09,2.03l5.95-.42c1.19-.08,1.87-1.22,1.79-2.3l-2.24-31.99,33.07-2.31,2.24,31.99c.08,1.2,1.01,2.11,2.1,2.03l5.94-.42c1.09-.08,1.87-1.22,1.8-2.3l-3.95-56.51c-1.16-16.53-9.35-21.82-24.8-20.74h-.01Zm16.08,37.31l-33.07,2.31-1.11-15.88c-.79-11.24,2.61-13.97,12.44-14.66l6.27-.44c9.83-.69,13.58,1.55,14.36,12.79l1.11,15.88h0Z" style="fill: #5dc0cf;"/>
          <path d="m480.45,50.56c9.66-3.28,16.28-10.91,15.44-23.01l-.05-.76c-1.22-17.51-14.81-22.31-31.88-21.12-6.27.44-14.35,1.33-18.96,2.2-1.93.35-2.53,1.04-2.43,2.56l5.29,75.65c.08,1.19,1.02,2.1,2.1,2.02l5.83-.41c1.19-.08,1.87-1.21,1.79-2.29l-2.22-31.77c5.74-.19,8.34-.26,11.91-.51l1.84-.13.97-.07,21.6,30.85c.96,1.34,1.61,1.3,2.9,1.21l6.92-.48c.87-.06,1.36-.74,1.31-1.5-.02-.32-.16-.64-.39-.95l-21.97-31.48h0Zm-13.76-5.88c-2.48.17-7.14.39-11.9.62l-2.07-29.61c2.57-.51,8.51-.92,11.86-1.16,13.51-.94,20.78,2.13,21.53,12.94l.05.76c.82,11.67-6.19,15.52-19.48,16.45h.01Z" style="fill: #5dc0cf;"/>
          <path d="m533.63,9.7l20.86-1.46c.75-.05,1.14-.62,1.09-1.37l-.38-5.41c-.05-.64-.53-1.37-1.18-1.44-4.57-.12-14.74.38-21.11.82-15.13,1.06-22.62,7.34-21.62,21.71l2.91,41.6c1.01,14.37,9.3,19.55,24.43,18.49,6.37-.45,16.96-1.29,21.03-2.01.64-.15,1.02-.94.97-1.59l-.39-5.51c-.05-.75-.52-1.26-1.27-1.21l-20.86,1.46c-11.46.8-13.51-2.1-14.08-10.31l-1.27-18.16,33.18-2.32c1.19-.08,2.09-1.12,2.01-2.31l-.29-4.1c-.08-1.19-1.12-2.09-2.31-2.01l-33.18,2.32-1.05-15.02c-.57-8.21,1.05-11.37,12.51-12.17Z" style="fill: #5dc0cf;"/>
        </g>
      </g>
      <g>
        <path d="m205.4,153.1c-5.08.36-8.97-2.22-9.45-8.99l-.29-4.16c-.47-6.77,3.02-9.86,8.1-10.22s8.97,2.22,9.45,8.99l.29,4.16c.47,6.77-3.02,9.86-8.1,10.22Zm3.5-14.07c-.28-4.06-1.86-5.78-4.87-5.57s-4.34,2.13-4.05,6.19l.29,4.16c.28,4.06,1.86,5.78,4.88,5.57s4.34-2.13,4.05-6.19l-.29-4.16h-.01Z" style="fill: #5dc0cf;"/>
        <path d="m224.89,151.74c-.74.05-1.82.07-2.97,0l.38,5.45c.02.34-.23.63-.57.66l-2.83.2c-.34.02-.63-.23-.66-.57l-1.5-21.43c-.03-.46.08-.66.77-.89,1.87-.63,4.16-1.1,6.13-1.24,4.96-.35,7.56,2.41,7.9,7.21l.17,2.37c.34,4.8-1.86,7.9-6.82,8.24h0Zm2.59-10.33c-.18-2.52-.95-4.36-3.6-4.17-1.11.08-2.36.26-2.94.42l.75,10.75c.87.06,2.23.06,2.97,0,2.65-.19,3.16-2.11,2.99-4.63l-.17-2.37Z" style="fill: #5dc0cf;"/>
        <path d="m248.68,142.52l-10.04.7v.09c.13,1.79,1.02,3.86,3.97,3.65,2.25-.16,4.36-.49,5.64-.7h.09c.31-.03.56.11.59.42l.14,2.03c.03.49-.04.72-.59.85-1.97.51-3.16.75-5.94.94-3.08.22-7.57-1.14-7.99-7.21l-.16-2.28c-.34-4.8,2.13-8.01,6.84-8.34s7.55,2.72,7.87,7.31l.12,1.72c.03.49-.13.78-.56.81h.02Zm-3.69-2.77c-.17-2.4-1.59-3.7-3.5-3.56s-3.2,1.59-3.03,4.02v.12l6.54-.46v-.12h-.01Z" style="fill: #5dc0cf;"/>
        <path d="m266.77,148.56l-2.89.2c-.34.02-.61-.27-.63-.61l-.74-10.65c-.11-1.51-.51-2.87-2.3-2.75l-1.91.13c-1.79.12-2,1.53-1.89,3.04l.74,10.65c.02.34-.2.66-.54.69l-2.89.2c-.34.02-.61-.27-.63-.61l-.74-10.65c-.26-3.73,1.72-6.43,5.72-6.71l1.91-.13c4-.28,6.34,2.12,6.6,5.85l.74,10.65c.02.34-.2.66-.54.69h0Z" style="fill: #5dc0cf;"/>
        <path d="m294.85,146.6l-3.11.22c-.34.02-.57-.24-.6-.58l-.57-8.13-7.7.54.57,8.13c.02.34-.2.63-.54.66l-3.11.22c-.34.02-.6-.24-.63-.57l-1.11-15.86c-.36-5.17,2.34-6.75,6.59-7.05l2.12-.15c4.25-.3,7.15.89,7.51,6.06l1.11,15.86c.02.34-.2.63-.54.66h.01Zm-4.82-16.21c-.15-2.15-.81-2.79-3-2.64l-2.12.15c-2.16.15-2.72.87-2.57,3.03l.29,4.13,7.7-.54-.29-4.13h-.01Z" style="fill: #5dc0cf;"/>
        <path d="m306.47,137.21c-.8.06-2.04.05-2.75.07l.56,8.04c.02.34-.2.63-.54.66l-3.08.22c-.34.02-.63-.23-.66-.57l-1.48-21.18c-.04-.61.31-.86.92-.99,1.58-.36,3.76-.66,6.01-.82,4.74-.33,8.98,1.04,9.36,6.49l.02.28c.38,5.45-3.62,7.49-8.36,7.82v-.02Zm4.09-7.8c-.18-2.58-1.79-3.46-4.87-3.25-.65.05-2.18.21-2.73.32l.51,7.33c.49,0,2.22-.06,2.75-.1,3.32-.23,4.53-1.55,4.36-4.02l-.02-.28Z" style="fill: #5dc0cf;"/>
        <path d="m322.98,144.63l-3.05.21c-.34.02-.63-.23-.66-.57l-1.52-21.67c-.02-.34.24-.6.57-.63l3.05-.21c.34-.02.63.2.66.54l1.52,21.67c.02.34-.23.63-.57.66h0Z" style="fill: #5dc0cf;"/>
        <path d="m333.56,144.14c-1.2.08-3.8.11-5.55-.23-.37-.07-.61-.3-.63-.67l-.13-1.85c-.02-.25.18-.51.49-.53h.12c1.49.07,4.27.03,5.2-.03,1.91-.13,2.14-.8,2.08-1.63-.04-.59-.43-.93-1.46-1.48l-4.4-2.29c-1.57-.82-2.76-2.28-2.88-4.07-.22-3.08,1.62-4.76,5.53-5.03,2.49-.17,3.93,0,5.52.23.37.07.58.3.6.67l.12,1.79c.03.37-.14.6-.45.62h-.12c-.87-.05-3.35-.13-5.11,0-1.48.1-2.1.49-2.03,1.44.03.49.52.77,1.32,1.18l4.2,2.18c2.7,1.39,3.17,2.9,3.28,4.47.19,2.68-1.66,4.94-5.7,5.22h0Z" style="fill: #5dc0cf;"/>
        <path d="m357.94,127.8l-4.34.3.96,13.67c.02.34-.23.67-.57.69l-2.83.2c-.34.02-.67-.26-.69-.6l-1.27-18.22c-.28-3.97,2.03-5.09,4.86-5.29.86-.06,2.35-.07,3.31.02.47.03.57.18.59.45l.13,1.82c.02.34-.09.53-.43.56l-2.68.19c-1.42.1-1.79.47-1.69,1.97l.11,1.51,4.34-.3c.34-.02.64.23.66.57l.13,1.85c.02.34-.24.6-.58.63v-.02Z" style="fill: #5dc0cf;"/>
        <path d="m368.72,141.68c-4.83.34-7.59-2.75-7.89-7.15l-.17-2.49c-.31-4.4,1.99-7.84,6.82-8.18s7.59,2.75,7.89,7.15l.17,2.49c.31,4.4-1.99,7.84-6.82,8.18h0Zm2.58-10.39c-.18-2.52-1.43-4.08-3.58-3.93s-3.18,1.86-3,4.39l.17,2.49c.18,2.53,1.43,4.08,3.58,3.93s3.18-1.86,3-4.39l-.17-2.49Z" style="fill: #5dc0cf;"/>
        <path d="m385.63,126.02c-1.02.07-2.27.22-3,.43l.93,13.3c.02.34-.2.66-.54.69l-2.86.2c-.34.02-.64-.26-.66-.6l-1.06-15.12c-.03-.4.22-.76.77-.98,1.93-.78,3.54-1.15,6.19-1.33.37-.03.9,0,.93.46l.16,2.34c.02.34-.15.57-.85.62h0Z" style="fill: #5dc0cf;"/>
        <path d="m406.46,139.04c-5.08.36-8.97-2.22-9.45-8.99l-.29-4.16c-.47-6.77,3.02-9.86,8.1-10.22s8.97,2.22,9.44,8.99l.29,4.16c.47,6.77-3.02,9.86-8.1,10.22h.01Zm3.5-14.07c-.28-4.06-1.86-5.78-4.87-5.57s-4.34,2.13-4.05,6.19l.29,4.16c.28,4.06,1.86,5.78,4.88,5.57s4.33-2.13,4.05-6.19l-.29-4.16h-.01Z" style="fill: #5dc0cf;"/>
        <path d="m425.95,137.68c-.74.05-1.82.07-2.97,0l.38,5.45c.02.34-.23.63-.57.66l-2.83.2c-.34.02-.64-.23-.66-.57l-1.5-21.43c-.03-.46.08-.66.77-.89,1.87-.63,4.16-1.1,6.13-1.24,4.96-.35,7.56,2.41,7.9,7.21l.17,2.37c.34,4.8-1.86,7.9-6.82,8.24h0Zm2.59-10.33c-.18-2.52-.95-4.36-3.6-4.17-1.11.08-2.36.26-2.94.42l.75,10.75c.87.06,2.23.06,2.97,0,2.65-.19,3.16-2.11,2.99-4.63l-.17-2.37h0Z" style="fill: #5dc0cf;"/>
        <path d="m449.75,128.46l-10.04.7v.09c.13,1.79,1.02,3.86,3.97,3.65,2.25-.16,4.36-.49,5.64-.7h.09c.31-.03.56.11.59.42l.14,2.03c.03.49-.04.72-.59.85-1.97.51-3.16.75-5.94.94-3.08.22-7.57-1.14-7.99-7.21l-.16-2.28c-.34-4.8,2.13-8.01,6.84-8.34s7.55,2.72,7.88,7.31l.12,1.72c.03.49-.13.78-.56.81h0Zm-3.69-2.77c-.17-2.4-1.59-3.69-3.5-3.56s-3.2,1.59-3.03,4.02v.12l6.54-.46v-.12h-.01Z" style="fill: #5dc0cf;"/>
        <path d="m467.83,134.5l-2.89.2c-.34.02-.61-.27-.63-.61l-.74-10.65c-.11-1.51-.51-2.87-2.3-2.75l-1.91.13c-1.79.12-2,1.53-1.89,3.04l.74,10.65c.02.34-.2.66-.54.69l-2.89.2c-.34.02-.61-.27-.63-.61l-.74-10.65c-.26-3.73,1.72-6.43,5.72-6.71l1.91-.13c4-.28,6.34,2.12,6.6,5.85l.74,10.65c.02.34-.2.66-.54.69h0Z" style="fill: #5dc0cf;"/>
        <path d="m503.6,132l-3.14.22c-.34.02-.57-.24-.6-.58l-.97-13.85c-.3-4.28-1.51-4.75-5.88-4.45l1.31,18.69c.02.34-.2.63-.54.66l-3.11.22c-.34.02-.6-.24-.63-.57l-1.31-18.69c-4.37.31-5.5.94-5.2,5.22l.97,13.85c.02.34-.17.63-.51.65l-3.14.22c-.34.02-.6-.24-.63-.57l-.97-13.85c-.54-7.67,3.09-8.91,11.37-9.49,8.28-.58,12.01.15,12.55,7.82l.97,13.85c.02.34-.2.63-.54.66h0Z" style="fill: #5dc0cf;"/>
        <path d="m510.76,111.73l-2.99.21c-.34.02-.67-.23-.69-.57l-.19-2.71c-.02-.34.26-.64.6-.66l2.99-.21c.34-.02.63.23.66.57l.19,2.71c.02.34-.23.64-.57.66h0Zm1.28,19.68l-2.83.2c-.34.02-.64-.26-.66-.6l-1.13-16.1c-.02-.34.23-.63.57-.66l2.83-.2c.34-.02.63.23.66.57l1.13,16.1c.02.34-.23.67-.57.69Z" style="fill: #5dc0cf;"/>
        <path d="m530.23,130.14l-2.9.2c-.34.02-.6-.27-.63-.61l-.74-10.65c-.11-1.51-.51-2.87-2.3-2.75l-1.91.13c-1.79.13-2,1.53-1.89,3.04l.74,10.65c.02.34-.2.66-.54.69l-2.89.2c-.34.02-.61-.27-.63-.61l-.74-10.65c-.26-3.73,1.72-6.43,5.72-6.71l1.91-.13c4-.28,6.33,2.12,6.59,5.85l.74,10.65c.02.34-.2.66-.54.69h.01Z" style="fill: #5dc0cf;"/>
        <path d="m547.56,128.37c-1.87.62-4.16,1.1-6.13,1.23-4.96.35-7.56-2.41-7.9-7.21l-.17-2.37c-.34-4.8,1.86-7.9,6.82-8.24.74-.05,1.82-.07,2.97.01l-.38-5.45c-.02-.34.24-.64.57-.66l2.83-.2c.34-.02.63.23.66.57l1.5,21.43c.03.46-.08.66-.77.89h0Zm-4.18-13.26c-.87-.06-2.23-.06-2.97,0-2.65.19-3.16,2.11-2.99,4.63l.17,2.37c.18,2.53.95,4.36,3.6,4.17,1.11-.08,2.36-.26,2.94-.42l-.75-10.75Z" style="fill: #5dc0cf;"/>
        <path d="m558.08,128.44c-1.2.08-3.8.11-5.55-.23-.38-.07-.61-.3-.63-.67l-.13-1.85c-.02-.25.18-.51.49-.53h.12c1.49.07,4.27.03,5.2-.03,1.91-.13,2.14-.8,2.08-1.63-.04-.59-.44-.93-1.47-1.48l-4.4-2.29c-1.57-.82-2.76-2.28-2.88-4.07-.22-3.08,1.62-4.76,5.53-5.03,2.49-.17,3.93,0,5.52.23.38.07.58.3.61.67l.12,1.79c.03.37-.14.6-.45.62h-.12c-.87-.05-3.35-.13-5.1,0-1.48.1-2.1.49-2.03,1.44.03.49.52.77,1.32,1.18l4.21,2.18c2.69,1.39,3.17,2.9,3.28,4.47.19,2.68-1.67,4.94-5.7,5.22h-.02Z" style="fill: #5dc0cf;"/>
      </g>
    </g>
  </g>
</svg>