<?xml version="1.0" encoding="UTF-8"?>
<svg id="logo_FIWARE_Claim" data-name="logo FIWARE Claim" xmlns="http://www.w3.org/2000/svg" viewBox="0 0 559.99 157.9">
  <g>
    <path d="m119.09,12.13c-3.06-1.81-6.74-3.12-10.96-3.82-4.19-.7-8.53-.7-12.81-.11-4.26.58-8.45,1.75-12.37,3.4-3.92,1.66-7.57,3.81-10.73,6.36-3.17,2.56-5.85,5.54-7.8,8.84-1.97,3.32-3.03,6.67-3.24,9.89-.21,3.24.44,6.35,1.86,9.15,1.44,2.83,3.69,5.35,6.64,7.39,2.98,2.05,6.69,3.6,11.04,4.48,4.37.88,8.96,1,13.52.43,4.56-.57,9.06-1.8,13.25-3.59,4.18-1.79,8.02-4.15,11.29-6.93,3.25-2.78,5.9-5.99,7.72-9.51,1.8-3.49,2.6-6.96,2.52-10.22-.08-3.23-1.03-6.27-2.74-8.95-1.69-2.67-4.12-4.98-7.19-6.81h0Z" style="fill: #fff;"/>
    <path d="m140.89,22.55c-2.96-4.52-7.15-8.43-12.38-11.48-5.16-3.01-11.35-5.21-18.39-6.35-6.98-1.12-14.18-1.12-21.25-.15-7.05.97-13.99,2.9-20.49,5.64-6.51,2.74-12.6,6.31-17.91,10.56-5.35,4.27-9.93,9.26-13.37,14.82-3.47,5.63-5.44,11.33-6.01,16.85-.58,5.6.28,11,2.48,15.92,2.24,5,5.86,9.49,10.75,13.16,4.95,3.73,11.2,6.6,18.61,8.28,7.49,1.7,15.41,2.01,23.28,1.11,7.92-.92,15.75-3.04,23.03-6.2,7.26-3.14,13.93-7.3,19.55-12.24,5.58-4.91,10.1-10.56,13.14-16.76,2.99-6.11,4.24-12.14,3.98-17.8-.26-5.58-2.01-10.79-5.01-15.37h-.01Zm-6.79,24.24c-2.42,4.82-6,9.21-10.4,13.03-4.42,3.84-9.66,7.06-15.34,9.52-5.7,2.46-11.84,4.14-18.04,4.87-6.18.73-12.42.53-18.33-.72-5.87-1.25-10.84-3.44-14.82-6.29-3.93-2.83-6.87-6.3-8.73-10.19-1.83-3.83-2.61-8.07-2.23-12.47.37-4.35,1.86-8.87,4.56-13.34,2.68-4.44,6.29-8.42,10.55-11.83,4.23-3.41,9.1-6.27,14.33-8.46,5.21-2.2,10.78-3.75,16.44-4.53,5.68-.78,11.45-.78,17.05.14,5.63.92,10.57,2.67,14.66,5.09,4.15,2.44,7.45,5.55,9.77,9.13,2.34,3.63,3.67,7.74,3.82,12.12.16,4.45-.88,9.17-3.28,13.94h-.01Z" style="fill: #fff;"/>
    <path d="m163.48,48.37c-.56-8.06-3.23-15.57-7.66-22.12-4.34-6.42-10.38-11.94-17.84-16.25-7.32-4.21-16.03-7.26-25.9-8.83-9.74-1.55-19.76-1.51-29.58-.15-9.77,1.36-19.41,4.04-28.46,7.84-9.07,3.81-17.61,8.77-25.1,14.69-7.58,5.98-14.14,12.99-19.17,20.83C4.65,52.37,1.59,60.52.48,68.45c-1.14,8.1-.26,15.99,2.54,23.23,2.87,7.41,7.74,14.14,14.5,19.7,6.89,5.68,15.71,10.12,26.31,12.82,10.75,2.73,22.21,3.38,33.67,2.16,11.54-1.21,22.97-4.3,33.6-8.96,10.6-4.65,20.3-10.81,28.44-18.17,8.04-7.27,14.48-15.66,18.72-24.81,4.16-8.99,5.77-17.81,5.19-26.06h.03Zm-13.5,16.56c-3.64,7.63-9.11,14.62-15.9,20.68-6.86,6.11-15.02,11.24-23.92,15.12-8.92,3.89-18.51,6.49-28.2,7.55-9.64,1.07-19.3.61-28.4-1.58-8.98-2.15-16.52-5.77-22.45-10.44-5.83-4.58-10.1-10.16-12.67-16.33-2.52-6.05-3.42-12.68-2.59-19.51.82-6.71,3.32-13.63,7.59-20.43,4.22-6.71,9.78-12.7,16.24-17.82,6.4-5.09,13.71-9.35,21.51-12.63,7.77-3.27,16.08-5.58,24.49-6.75,8.45-1.16,17.07-1.18,25.43.16,8.46,1.35,15.91,3.98,22.14,7.6,6.33,3.67,11.43,8.38,15.07,13.85,3.7,5.56,5.89,11.89,6.28,18.7.4,6.92-1.04,14.33-4.62,21.84h0Z" style="fill: #fff;"/>
  </g>
  <g>
    <g>
      <g>
        <path d="m234.18,23.66c-4.55-.43-14.74-.65-21.13-.65-15.17,0-23.07,5.74-23.07,20.15v58.93c0,1.19.97,2.17,2.16,2.17h5.53c1.19,0,2.17-.98,2.17-2.17v-35.42h33.25c1.19,0,2.17-.98,2.17-2.17v-4.12c0-1.19-.98-2.17-2.17-2.17h-33.25v-15.05c0-8.24,1.84-11.26,13.32-11.26h20.9c.76,0,1.19-.54,1.19-1.3v-5.42c0-.65-.44-1.4-1.08-1.52h.01Z" style="fill: #fff;"/>
        <path d="m258.65,23.77h-5.96c-1.19,0-1.95.97-1.95,2.05v76.26c0,1.19.87,2.17,1.95,2.17h5.96c1.18,0,1.95-1.08,1.95-2.17V25.82c0-1.19-.86-2.05-1.95-2.05Z" style="fill: #fff;"/>
      </g>
      <g>
        <path d="m358.27,23.76h-5.75c-1.19,0-2.06.97-2.06,2.06v49.61c0,14.63-2.92,21.23-15.17,21.23-1.84,0-7.58-.33-9.96-.98V25.72c0-1.19-.75-1.96-1.95-1.96h-5.86c-1.19,0-2.05.97-2.05,2.06v69.87c-2.39.65-8.13.98-9.97.98-12.24,0-15.16-6.61-15.16-21.23V25.83c0-1.09-.98-2.06-2.06-2.06h-5.74c-1.19,0-2.06.97-2.06,2.06v49.61c0,18.85,6.5,29.57,22.96,29.57,5.64,0,10.72-.54,16.9-2.71,6.17,2.17,11.37,2.71,17.01,2.71,16.47,0,22.97-10.72,22.97-29.57V25.83c0-1.09-.98-2.06-2.05-2.06h0Z" style="fill: #fff;"/>
        <path d="m406.79,23.01h-6.29c-15.6,0-23.29,5.85-23.29,22.42v56.65c0,1.09.87,2.17,1.95,2.17h5.96c1.19,0,1.95-1.09,1.95-2.17v-32.07h33.15v32.07c0,1.2.87,2.17,1.95,2.17h5.95c1.09,0,1.95-1.09,1.95-2.17v-56.65c0-16.58-7.8-22.42-23.29-22.42h0Zm13.43,38.34h-33.15v-15.92c0-11.26,3.57-13.76,13.43-13.76h6.29c9.86,0,13.43,2.49,13.43,13.76v15.92Z" style="fill: #fff;"/>
        <path d="m481.95,68.93c9.86-2.6,17.01-9.75,17.01-21.88v-.76c0-17.55-13.21-23.29-30.33-23.29-6.29,0-14.41.33-19.07.87-1.95.22-2.6.86-2.6,2.38v75.83c0,1.19.87,2.16,1.96,2.16h5.85c1.19,0,1.95-1.08,1.95-2.16v-31.85c5.74.21,8.34.32,11.92.32h2.81l19.39,32.28c.87,1.41,1.51,1.41,2.81,1.41h6.94c.87,0,1.41-.65,1.41-1.41,0-.33-.12-.65-.33-.97l-19.72-32.93h0Zm-13.32-6.82c-2.49,0-7.15-.11-11.92-.21v-29.68c2.6-.33,8.56-.33,11.92-.33,13.54,0,20.58,3.58,20.58,14.41v.76c0,11.7-7.26,15.06-20.58,15.06h0Z" style="fill: #fff;"/>
        <path d="m537.85,31.89h20.91c.75,0,1.19-.54,1.19-1.29v-5.42c0-.65-.43-1.41-1.08-1.52-4.55-.43-14.73-.65-21.12-.65-15.17,0-23.08,5.74-23.08,20.15v41.7c0,14.41,7.91,20.15,23.08,20.15,6.39,0,17.01-.11,21.12-.54.65-.11,1.08-.86,1.08-1.52v-5.53c0-.76-.43-1.3-1.19-1.3h-20.91c-11.48,0-13.33-3.04-13.33-11.27v-18.2h33.26c1.19,0,2.16-.97,2.16-2.17v-4.11c0-1.19-.97-2.16-2.16-2.16h-33.26v-15.06c0-8.23,1.84-11.27,13.33-11.27h0Z" style="fill: #fff;"/>
      </g>
    </g>
    <g>
      <path d="m200.42,152.04c-5.09,0-8.8-2.84-8.8-9.63v-4.17c0-6.79,3.7-9.63,8.8-9.63s8.8,2.84,8.8,9.63v4.17c0,6.79-3.7,9.63-8.8,9.63Zm4.47-13.8c0-4.07-1.45-5.89-4.47-5.89s-4.47,1.82-4.47,5.89v4.17c0,4.07,1.45,5.89,4.47,5.89s4.47-1.82,4.47-5.89v-4.17Z" style="fill: #fff;"/>
      <path d="m219.95,152.04c-.74,0-1.82-.06-2.96-.22v5.46c0,.34-.28.62-.62.62h-2.84c-.34,0-.62-.28-.62-.62v-21.48c0-.46.12-.65.83-.83,1.91-.5,4.23-.8,6.2-.8,4.97,0,7.38,2.93,7.38,7.75v2.38c0,4.81-2.41,7.75-7.38,7.75h0Zm3.3-10.12c0-2.53-.65-4.41-3.3-4.41-1.11,0-2.38.09-2.96.22v10.77c.86.12,2.22.22,2.96.22,2.65,0,3.3-1.88,3.3-4.41v-2.38h0Z" style="fill: #fff;"/>
      <path d="m244.33,144.51h-10.06v.09c0,1.79.74,3.92,3.7,3.92,2.25,0,4.38-.19,5.68-.31h.09c.31,0,.56.15.56.46v2.04c0,.49-.09.71-.65.8-2.01.37-3.21.52-5.99.52-3.09,0-7.47-1.67-7.47-7.75v-2.28c0-4.82,2.68-7.84,7.41-7.84s7.34,3.24,7.34,7.84v1.73c0,.49-.19.77-.62.77h0Zm-3.49-3.02c0-2.41-1.33-3.8-3.24-3.8s-3.3,1.36-3.3,3.8v.12h6.54v-.12Z" style="fill: #fff;"/>
      <path d="m261.95,151.79h-2.9c-.34,0-.59-.31-.59-.65v-10.68c0-1.51-.31-2.9-2.1-2.9h-1.91c-1.79,0-2.1,1.39-2.1,2.9v10.68c0,.34-.25.65-.59.65h-2.9c-.34,0-.59-.31-.59-.65v-10.68c0-3.74,2.16-6.3,6.17-6.3h1.91c4.01,0,6.17,2.56,6.17,6.3v10.68c0,.34-.25.65-.59.65h.02Z" style="fill: #fff;"/>
      <path d="m290.1,151.79h-3.12c-.34,0-.55-.28-.55-.62v-8.15h-7.72v8.15c0,.34-.25.62-.59.62h-3.12c-.34,0-.59-.28-.59-.62v-15.9c0-5.18,2.81-6.57,7.07-6.57h2.13c4.26,0,7.07,1.39,7.07,6.57v15.9c0,.34-.25.62-.59.62h0Zm-3.67-16.51c0-2.16-.62-2.84-2.81-2.84h-2.13c-2.16,0-2.78.68-2.78,2.84v4.14h7.72v-4.14Z" style="fill: #fff;"/>
      <path d="m302.35,143.24c-.8,0-2.04-.09-2.75-.12v8.06c0,.34-.25.62-.59.62h-3.09c-.34,0-.62-.28-.62-.62v-21.23c0-.62.37-.83.99-.93,1.6-.25,3.79-.4,6.05-.4,4.75,0,8.89,1.67,8.89,7.13v.28c0,5.46-4.14,7.22-8.89,7.22h.01Zm4.63-7.5c0-2.59-1.54-3.58-4.63-3.58-.65,0-2.19.06-2.75.12v7.34c.49.03,2.22.09,2.75.09,3.33,0,4.63-1.24,4.63-3.7v-.28h0Z" style="fill: #fff;"/>
      <path d="m318.31,151.79h-3.06c-.34,0-.62-.28-.62-.62v-21.73c0-.34.28-.59.62-.59h3.06c.34,0,.62.25.62.59v21.73c0,.34-.28.62-.62.62Z" style="fill: #fff;"/>
      <path d="m328.89,152.04c-1.2,0-3.79-.15-5.52-.62-.37-.09-.58-.34-.58-.71v-1.85c0-.25.22-.5.52-.5h.12c1.48.19,4.26.34,5.19.34,1.91,0,2.19-.65,2.19-1.48,0-.59-.37-.96-1.36-1.57l-4.23-2.59c-1.51-.93-2.59-2.47-2.59-4.26,0-3.09,1.95-4.63,5.86-4.63,2.5,0,3.92.28,5.49.62.37.09.55.34.55.71v1.79c0,.37-.19.59-.49.59h-.12c-.86-.12-3.33-.37-5.09-.37-1.48,0-2.13.34-2.13,1.3,0,.49.46.8,1.24,1.26l4.04,2.47c2.59,1.57,2.96,3.12,2.96,4.69,0,2.69-2,4.81-6.05,4.81h0Z" style="fill: #fff;"/>
      <path d="m354.35,137.44h-4.35v13.7c0,.34-.28.65-.62.65h-2.84c-.34,0-.65-.31-.65-.65v-18.27c0-3.98,2.38-4.94,5.22-4.94.86,0,2.35.09,3.3.25.46.06.56.22.56.49v1.82c0,.34-.12.52-.46.52h-2.69c-1.42,0-1.82.34-1.82,1.85v1.51h4.35c.34,0,.62.28.62.62v1.85c0,.34-.28.59-.62.59h0Z" style="fill: #fff;"/>
      <path d="m364.14,152.04c-4.85,0-7.38-3.27-7.38-7.69v-2.5c0-4.41,2.53-7.69,7.38-7.69s7.38,3.27,7.38,7.69v2.5c0,4.41-2.53,7.69-7.38,7.69Zm3.3-10.19c0-2.53-1.14-4.17-3.3-4.17s-3.3,1.64-3.3,4.17v2.5c0,2.53,1.14,4.17,3.3,4.17s3.3-1.64,3.3-4.17v-2.5Z" style="fill: #fff;"/>
      <path d="m382.1,137.59c-1.02,0-2.28.06-3.02.22v13.33c0,.34-.25.65-.59.65h-2.87c-.34,0-.62-.31-.62-.65v-15.15c0-.4.28-.74.83-.93,1.98-.65,3.61-.9,6.26-.9.37,0,.89.06.89.52v2.35c0,.34-.19.56-.89.56h0Z" style="fill: #fff;"/>
      <path d="m401.97,152.04c-5.09,0-8.8-2.84-8.8-9.63v-4.17c0-6.79,3.7-9.63,8.8-9.63s8.79,2.84,8.79,9.63v4.17c0,6.79-3.7,9.63-8.79,9.63Zm4.47-13.8c0-4.07-1.45-5.89-4.47-5.89s-4.47,1.82-4.47,5.89v4.17c0,4.07,1.45,5.89,4.47,5.89s4.47-1.82,4.47-5.89v-4.17Z" style="fill: #fff;"/>
      <path d="m421.51,152.04c-.74,0-1.82-.06-2.96-.22v5.46c0,.34-.28.62-.62.62h-2.84c-.34,0-.62-.28-.62-.62v-21.48c0-.46.12-.65.83-.83,1.91-.5,4.23-.8,6.2-.8,4.97,0,7.38,2.93,7.38,7.75v2.38c0,4.81-2.41,7.75-7.38,7.75h0Zm3.3-10.12c0-2.53-.65-4.41-3.3-4.41-1.11,0-2.38.09-2.96.22v10.77c.86.12,2.22.22,2.96.22,2.66,0,3.3-1.88,3.3-4.41v-2.38h0Z" style="fill: #fff;"/>
      <path d="m445.89,144.51h-10.06v.09c0,1.79.74,3.92,3.7,3.92,2.25,0,4.38-.19,5.68-.31h.09c.31,0,.55.15.55.46v2.04c0,.49-.09.71-.65.8-2,.37-3.21.52-5.99.52-3.09,0-7.47-1.67-7.47-7.75v-2.28c0-4.82,2.69-7.84,7.41-7.84s7.35,3.24,7.35,7.84v1.73c0,.49-.19.77-.62.77h0Zm-3.49-3.02c0-2.41-1.33-3.8-3.24-3.8s-3.3,1.36-3.3,3.8v.12h6.54v-.12h0Z" style="fill: #fff;"/>
      <path d="m463.51,151.79h-2.9c-.34,0-.59-.31-.59-.65v-10.68c0-1.51-.31-2.9-2.1-2.9h-1.91c-1.79,0-2.1,1.39-2.1,2.9v10.68c0,.34-.25.65-.59.65h-2.9c-.34,0-.59-.31-.59-.65v-10.68c0-3.74,2.16-6.3,6.17-6.3h1.91c4.01,0,6.17,2.56,6.17,6.3v10.68c0,.34-.25.65-.59.65h.02Z" style="fill: #fff;"/>
      <path d="m499.37,151.79h-3.15c-.34,0-.55-.28-.55-.62v-13.89c0-4.29-1.17-4.85-5.55-4.85v18.73c0,.34-.25.62-.59.62h-3.12c-.34,0-.59-.28-.59-.62v-18.73c-4.38,0-5.55.56-5.55,4.85v13.89c0,.34-.22.62-.55.62h-3.15c-.34,0-.59-.28-.59-.62v-13.89c0-7.69,3.7-8.67,12-8.67s11.97.99,11.97,8.67v13.89c0,.34-.25.62-.59.62h.01Z" style="fill: #fff;"/>
      <path d="m507.92,132.07h-2.99c-.34,0-.65-.28-.65-.62v-2.72c0-.34.31-.62.65-.62h2.99c.34,0,.62.28.62.62v2.72c0,.34-.28.62-.62.62Zm-.09,19.72h-2.84c-.34,0-.62-.31-.62-.65v-16.14c0-.34.28-.62.62-.62h2.84c.34,0,.62.28.62.62v16.14c0,.34-.28.65-.62.65Z" style="fill: #fff;"/>
      <path d="m526.06,151.79h-2.9c-.34,0-.58-.31-.58-.65v-10.68c0-1.51-.31-2.9-2.1-2.9h-1.91c-1.79,0-2.1,1.39-2.1,2.9v10.68c0,.34-.25.65-.59.65h-2.9c-.34,0-.59-.31-.59-.65v-10.68c0-3.74,2.16-6.3,6.17-6.3h1.91c4.01,0,6.17,2.56,6.17,6.3v10.68c0,.34-.24.65-.58.65h0Z" style="fill: #fff;"/>
      <path d="m543.47,151.23c-1.91.49-4.23.8-6.21.8-4.97,0-7.38-2.93-7.38-7.75v-2.38c0-4.81,2.41-7.75,7.38-7.75.74,0,1.82.06,2.96.22v-5.46c0-.34.28-.62.62-.62h2.84c.34,0,.62.28.62.62v21.48c0,.46-.12.65-.83.83h0Zm-3.24-13.52c-.86-.12-2.22-.22-2.96-.22-2.65,0-3.3,1.88-3.3,4.41v2.38c0,2.53.65,4.41,3.3,4.41,1.11,0,2.38-.09,2.96-.22v-10.77h0Z" style="fill: #fff;"/>
      <path d="m553.96,152.04c-1.2,0-3.8-.15-5.52-.62-.37-.09-.59-.34-.59-.71v-1.85c0-.25.22-.5.52-.5h.12c1.48.19,4.26.34,5.19.34,1.91,0,2.19-.65,2.19-1.48,0-.59-.37-.96-1.36-1.57l-4.23-2.59c-1.51-.93-2.59-2.47-2.59-4.26,0-3.09,1.94-4.63,5.86-4.63,2.5,0,3.92.28,5.49.62.37.09.56.34.56.71v1.79c0,.37-.19.59-.5.59h-.12c-.86-.12-3.33-.37-5.09-.37-1.48,0-2.13.34-2.13,1.3,0,.49.46.8,1.23,1.26l4.04,2.47c2.59,1.57,2.96,3.12,2.96,4.69,0,2.69-2.01,4.81-6.05,4.81h.02Z" style="fill: #fff;"/>
    </g>
  </g>
</svg>