<?xml version="1.0" encoding="UTF-8"?>
<svg id="Capa_1" data-name="Capa 1" xmlns="http://www.w3.org/2000/svg" xmlns:xlink="http://www.w3.org/1999/xlink" viewBox="0 0 317.63 271.31">
  <defs>
    <filter id="drop-shadow-1">
      <feOffset dx="0" dy="5"/>
      <feGaussianBlur result="blur" stdDeviation="4"/>
      <feFlood flood-color="#000" flood-opacity=".6"/>
      <feComposite in2="blur" operator="in"/>
      <feComposite in="SourceGraphic"/>
    </filter>
  </defs>
  <g style="fill: none; filter: url(#drop-shadow-1);">
    <g>
      <g>
        <path d="m38.07,236.97l-28.23,1.97,2.1,30.07c.07,1.01-.7,1.9-1.71,1.97l-4.69.33c-1.01.07-1.89-.7-1.96-1.71L.08,219.58c-.86-12.23,5.51-17.57,18.39-18.47,5.42-.38,14.09-.8,17.97-.7.56.06.97.67,1.01,1.22l.32,4.6c.05.65-.29,1.13-.94,1.18l-17.74,1.24c-9.75.68-11.13,3.36-10.64,10.35l.89,12.78,28.23-1.97c1.01-.07,1.89.7,1.97,1.72l.24,3.49c.07,1.01-.7,1.9-1.71,1.97" style="fill: #002e67;"/>
        <path d="m62,267.36l-5.06.35c-.92.06-1.71-.71-1.78-1.72l-4.53-64.73c-.06-.92.52-1.79,1.53-1.86l5.06-.35c.92-.06,1.7.61,1.77,1.63l4.53,64.73c.06.92-.52,1.88-1.52,1.95" style="fill: #002e67;"/>
      </g>
      <g>
        <path d="m128.85,263.34c-4.78.33-9.23.18-14.6-1.3-5.11,2.21-9.4,2.97-14.18,3.31-13.98.98-20.13-7.74-21.24-23.74l-2.94-42.11c-.06-.92.61-1.79,1.62-1.87l4.87-.34c.92-.06,1.81.7,1.87,1.62l2.94,42.11c.87,12.41,3.74,17.85,14.13,17.12,1.56-.11,6.41-.73,8.4-1.42l-4.15-59.31c-.06-.92.61-1.79,1.62-1.87l4.97-.35c1.01-.07,1.7.53,1.77,1.54l4.15,59.39c2.06.41,6.95.35,8.51.24,10.4-.73,12.49-6.51,11.62-18.92l-2.94-42.11c-.06-.92.61-1.79,1.62-1.87l4.88-.34c.92-.06,1.81.7,1.87,1.62l2.94,42.11c1.12,16-3.77,25.49-17.74,26.47" style="fill: #5dc0cf;"/>
        <path d="m205.84,257.3l-5.05.35c-.92.06-1.71-.71-1.78-1.72l-1.9-27.22-28.14,1.97,1.9,27.22c.06.92-.51,1.88-1.53,1.96l-5.06.35c-.92.06-1.72-.81-1.78-1.72l-3.36-48.09c-.98-14.07,5.19-19.49,18.43-20.41l5.34-.37c13.15-.92,20.12,3.58,21.1,17.65l3.36,48.09c.06.92-.61,1.89-1.53,1.96m-10.2-49.46c-.67-9.56-3.85-11.47-12.22-10.88l-5.34.37c-8.37.58-11.25,2.91-10.58,12.47l.95,13.52,28.14-1.97-.95-13.52h0Z" style="fill: #5dc0cf;"/>
        <path d="m267.35,253l-5.89.41c-1.1.08-1.65.12-2.47-1.03l-18.38-26.25-.83.06-1.56.11c-3.03.21-5.25.27-10.14.43l1.89,27.03c.06.92-.51,1.88-1.52,1.95l-4.97.35c-.92.06-1.71-.71-1.79-1.72l-4.5-64.36c-.09-1.29.43-1.88,2.06-2.18,3.92-.74,10.8-1.49,16.13-1.86,14.53-1.02,26.08,3.07,27.12,17.97l.05.65c.72,10.3-4.92,16.79-13.14,19.58l18.69,26.78c.2.26.31.53.33.81.05.65-.37,1.23-1.11,1.28m-13.1-48.52c-.64-9.19-6.83-11.81-18.32-11-2.85.2-7.91.55-10.1.98l1.76,25.2c4.05-.19,8.02-.38,10.13-.53,11.31-.79,17.27-4.07,16.58-14l-.05-.65Z" style="fill: #5dc0cf;"/>
        <path d="m316.83,249.73c-3.47.61-12.47,1.33-17.89,1.71-12.87.9-19.93-3.5-20.79-15.73l-2.48-35.4c-.86-12.23,5.52-17.57,18.39-18.47,5.42-.38,14.08-.8,17.96-.7.55.06.97.68,1.01,1.22l.32,4.6c.04.64-.29,1.13-.93,1.17l-17.75,1.24c-9.74.68-11.13,3.36-10.64,10.35l.89,12.78,28.23-1.97c1.01-.07,1.89.7,1.96,1.71l.24,3.5c.07,1.01-.69,1.9-1.71,1.97l-28.23,1.97,1.08,15.44c.49,6.99,2.24,9.45,11.98,8.77l17.75-1.24c.64-.04,1.04.39,1.08,1.03l.33,4.69c.04.55-.29,1.22-.83,1.35" style="fill: #5dc0cf;"/>
      </g>
    </g>
    <g>
      <g>
        <path d="m178.26,10.29c5.65.53,10.65,1.94,14.86,4.04,4.24,2.14,7.68,4.97,10.16,8.34,2.52,3.4,4.05,7.33,4.46,11.61.4,4.31-.34,8.98-2.4,13.76-2.07,4.83-5.29,9.33-9.33,13.3-4.06,3.99-8.94,7.47-14.3,10.23-5.38,2.76-11.23,4.81-17.22,5.99-5.97,1.16-12.06,1.45-17.93.67-5.84-.75-10.9-2.46-15.04-4.91-4.11-2.41-7.3-5.54-9.47-9.16-2.15-3.58-3.29-7.63-3.31-11.95-.02-4.27,1.07-8.81,3.37-13.39,2.28-4.56,5.55-8.75,9.52-12.44,3.94-3.67,8.57-6.86,13.61-9.42,5.03-2.54,10.48-4.47,16.06-5.64,5.6-1.17,11.35-1.57,16.97-1.04" style="fill: #5dc0cf;"/>
        <path d="m180.55,5.36c9.44.85,17.84,3.19,24.95,6.7,7.2,3.56,13.11,8.34,17.46,14.05,4.4,5.78,7.19,12.53,8.06,19.89.88,7.47-.23,15.57-3.61,23.94-3.45,8.48-8.91,16.39-15.84,23.4-6.98,7.07-15.43,13.18-24.75,18.02-9.34,4.85-19.52,8.39-29.92,10.34-10.35,1.92-20.86,2.24-30.94.69-9.97-1.53-18.51-4.76-25.42-9.24-6.81-4.41-12.01-10.03-15.45-16.44-3.37-6.31-5.01-13.39-4.75-20.86.25-7.35,2.33-15.09,6.41-22.87,4.03-7.68,9.63-14.71,16.32-20.86,6.63-6.11,14.38-11.4,22.74-15.63,8.35-4.23,17.37-7.43,26.61-9.36,9.27-1.94,18.8-2.61,28.15-1.77m-44.13,94.57c7.94,1.13,16.22.81,24.34-.74,8.15-1.55,16.12-4.33,23.44-8.12,7.3-3.78,13.94-8.54,19.44-14.02,5.47-5.46,9.8-11.61,12.56-18.22,2.74-6.54,3.68-12.89,3.05-18.76-.61-5.79-2.75-11.11-6.18-15.7-3.4-4.53-8.05-8.34-13.77-11.19-5.64-2.81-12.34-4.68-19.88-5.38-7.49-.69-15.15-.15-22.59,1.4-7.41,1.55-14.66,4.12-21.36,7.52-6.71,3.39-12.89,7.63-18.18,12.52-5.32,4.92-9.73,10.53-12.88,16.65-3.16,6.17-4.71,12.28-4.8,18.08-.08,5.86,1.33,11.39,4.11,16.3,2.83,4.97,7.04,9.3,12.51,12.69,5.52,3.4,12.32,5.83,20.2,6.95" style="fill: #5dc0cf;"/>
        <path d="m255.26,58.21c-1.48-10.62-5.71-20.32-12.19-28.58-6.34-8.1-14.85-14.85-25.13-19.85-10.08-4.9-21.9-8.13-35.11-9.3-13.03-1.15-26.29-.18-39.17,2.54-12.81,2.7-25.34,7.14-36.96,13.01-11.65,5.88-22.49,13.25-31.87,21.78-9.48,8.62-17.53,18.5-23.45,29.36-6.03,11.05-9.34,22.12-10.08,32.73-.77,10.83,1.14,21.2,5.52,30.53,4.48,9.54,11.56,17.99,21.02,24.74,9.64,6.88,21.75,11.95,36.02,14.54,14.49,2.62,29.72,2.41,44.79-.26,15.16-2.67,30.02-7.81,43.67-14.97,13.6-7.13,25.88-16.19,35.98-26.7,9.98-10.37,17.73-22.08,22.5-34.59,4.68-12.28,6-24.11,4.46-34.98m-16.34,23.18c-4.11,10.45-10.71,20.2-19.14,28.86-8.52,8.74-18.85,16.28-30.27,22.24-11.45,5.97-23.91,10.31-36.64,12.61-12.67,2.31-25.5,2.59-37.75.54-12.1-2.02-22.41-6.12-30.7-11.75-8.14-5.53-14.31-12.51-18.29-20.45-3.9-7.78-5.7-16.47-5.23-25.59.46-8.96,3.13-18.35,8.16-27.76,4.96-9.26,11.77-17.71,19.84-25.1,8.01-7.33,17.3-13.66,27.32-18.71,9.99-5.05,20.77-8.88,31.81-11.21,11.09-2.32,22.49-3.15,33.68-2.14,11.33,1,21.43,3.79,30.03,8.01,8.72,4.28,15.91,10.04,21.24,16.93,5.41,7.02,8.89,15.21,10.05,24.19,1.17,9.14-.06,19.06-4.09,29.34" style="fill: #5dc0cf;"/>
      </g>
      <g>
        <path d="m118.73,52.22c.02,4.31,1.16,8.38,3.31,11.95,2.17,3.6,5.37,6.75,9.47,9.15,4.14,2.44,9.19,4.15,15.04,4.91,5.87.77,11.97.48,17.94-.68,5.99-1.16,11.84-3.22,17.22-5.99,4.79-2.46,9.19-5.49,12.96-8.96-23.02-10.54-48.61-16.22-75.37-15.82-.38,1.85-.57,3.66-.57,5.43" style="fill: #002e67;"/>
        <path d="m203.64,77.06c-5.5,5.49-12.14,10.24-19.44,14.02-7.32,3.78-15.29,6.57-23.44,8.12-8.12,1.55-16.4,1.87-24.34.74-7.88-1.12-14.68-3.54-20.2-6.95-5.47-3.39-9.68-7.72-12.51-12.69-2.78-4.91-4.21-10.44-4.11-16.3.07-5.23,1.36-10.72,3.93-16.27-5.11.53-10.15,1.28-15.11,2.22-.59,1.01-1.16,2.02-1.7,3.04-4.08,7.78-6.16,15.52-6.4,22.87-.26,7.47,1.38,14.55,4.75,20.86,3.43,6.41,8.63,12.03,15.44,16.44,6.91,4.48,15.45,7.7,25.42,9.24,10.07,1.55,20.59,1.23,30.94-.69,10.39-1.95,20.57-5.49,29.92-10.34,9.33-4.84,17.78-10.95,24.76-18.02,4.43-4.48,8.26-9.34,11.34-14.47-4.32-3.05-8.77-5.91-13.36-8.57-1.77,2.35-3.74,4.61-5.9,6.76" style="fill: #002e67;"/>
        <path d="m235.57,88.71c-4.01,7.7-9.37,14.94-15.8,21.53-8.52,8.74-18.85,16.27-30.27,22.24-11.46,5.97-23.92,10.31-36.65,12.61-12.67,2.31-25.5,2.59-37.75.54-12.09-2.03-22.41-6.12-30.7-11.76-8.14-5.53-14.31-12.51-18.28-20.45-3.9-7.78-5.71-16.47-5.23-25.59.46-8.96,3.13-18.35,8.16-27.75,1.16-2.18,2.44-4.3,3.8-6.39-5.74,1.65-11.35,3.59-16.82,5.8-1.67,2.5-3.23,5.06-4.65,7.67-6.04,11.05-9.34,22.13-10.09,32.74-.76,10.83,1.14,21.2,5.52,30.53,4.48,9.53,11.56,17.99,21.02,24.74,9.64,6.88,21.75,11.95,36.02,14.53,14.49,2.62,29.72,2.42,44.79-.25,15.16-2.67,30.02-7.81,43.66-14.97,13.61-7.13,25.89-16.19,35.98-26.69,8.09-8.42,14.73-17.72,19.49-27.62-3.89-4.01-7.97-7.84-12.22-11.46" style="fill: #002e67;"/>
      </g>
    </g>
  </g>
</svg>