<?xml version="1.0" encoding="UTF-8"?>
<svg id="Livello_1" data-name="Livello 1" xmlns="http://www.w3.org/2000/svg" viewBox="0 0 560 70.65">
  <g>
    <path d="m136.23,36.75h-15.57v16.58c0,.56-.46,1.01-1.01,1.01h-2.59c-.56,0-1.01-.46-1.01-1.01v-27.59c0-6.75,3.7-9.43,10.8-9.43,2.99,0,7.76.1,9.89.3.3.05.51.41.51.71v2.54c0,.36-.2.61-.56.61h-9.79c-5.38,0-6.24,1.42-6.24,5.27v7.05h15.57c.56,0,1.01.46,1.01,1.01v1.93c0,.56-.46,1.01-1.01,1.01Z"/>
    <path d="m148.2,54.34h-2.79c-.51,0-.91-.46-.91-1.01V17.63c0-.51.36-.96.91-.96h2.79c.51,0,.91.41.91.96v35.7c0,.51-.35,1.01-.91,1.01Z"/>
    <path d="m184.16,54.7c-2.64,0-5.07-.25-7.96-1.27-2.89,1.01-5.27,1.27-7.91,1.27-7.71,0-10.75-5.02-10.75-13.84v-23.23c0-.51.41-.96.96-.96h2.69c.51,0,.96.46.96.96v23.23c0,6.85,1.37,9.94,7.1,9.94.86,0,3.55-.15,4.67-.46V17.63c0-.51.41-.96.96-.96h2.74c.56,0,.91.35.91.91v32.76c1.12.3,3.8.46,4.67.46,5.73,0,7.1-3.09,7.1-9.94v-23.23c0-.51.41-.96.96-.96h2.69c.51,0,.96.46.96.96v23.23c0,8.82-3.04,13.84-10.75,13.84Z"/>
    <path d="m226.66,54.34h-2.79c-.51,0-.91-.46-.91-1.01v-15.01h-15.52v15.01c0,.51-.35,1.01-.91,1.01h-2.79c-.51,0-.91-.51-.91-1.01v-26.52c0-7.76,3.6-10.5,10.9-10.5h2.94c7.25,0,10.9,2.74,10.9,10.5v26.52c0,.51-.41,1.01-.91,1.01Zm-3.7-27.54c0-5.27-1.67-6.44-6.29-6.44h-2.94c-4.61,0-6.29,1.17-6.29,6.44v7.46h15.52v-7.46Z"/>
    <path d="m260.59,54.34h-3.25c-.61,0-.91,0-1.32-.66l-9.08-15.11h-1.32c-1.67,0-2.89-.05-5.58-.15v14.91c0,.51-.36,1.01-.91,1.01h-2.74c-.51,0-.91-.46-.91-1.01V17.83c0-.71.3-1.01,1.22-1.12,2.18-.25,5.98-.41,8.93-.41,8.01,0,14.2,2.69,14.2,10.9v.35c0,5.68-3.35,9.03-7.96,10.24l9.23,15.42c.1.15.15.3.15.46,0,.36-.25.66-.66.66Zm-5.33-27.13c0-5.07-3.3-6.74-9.64-6.74-1.57,0-4.36,0-5.58.15v13.9c2.23.05,4.41.1,5.58.1,6.24,0,9.64-1.57,9.64-7.05v-.35Z"/>
    <path d="m287.88,54.45c-1.93.2-6.9.25-9.89.25-7.1,0-10.8-2.69-10.8-9.43v-19.53c0-6.75,3.7-9.43,10.8-9.43,2.99,0,7.76.1,9.89.3.3.05.51.41.51.71v2.54c0,.36-.2.61-.56.61h-9.79c-5.38,0-6.24,1.42-6.24,5.27v7.05h15.57c.56,0,1.01.46,1.01,1.01v1.93c0,.56-.46,1.01-1.01,1.01h-15.57v8.52c0,3.85.86,5.27,6.24,5.27h9.79c.36,0,.56.25.56.61v2.59c0,.3-.2.66-.51.71Z"/>
    <path d="m330.74,54.34h-2.84c-.51,0-.91-.46-.91-1.01v-22.16c0-9.48-2.43-10.75-11.36-10.75v32.91c0,.51-.35,1.01-.91,1.01h-2.79c-.56,0-.91-.46-.91-1.01V20.42c-8.93,0-11.36,1.27-11.36,10.75v22.16c0,.51-.35,1.01-.91,1.01h-2.84c-.51,0-.91-.46-.91-1.01v-22.16c0-12.98,5.32-14.86,18.36-14.86s18.31,1.88,18.31,14.86v22.16c0,.51-.35,1.01-.91,1.01Z"/>
    <path d="m357.88,53.53c-2.69.66-6.24,1.17-9.33,1.17-7.56,0-11.06-4.92-11.06-12.53v-3.55c0-7.61,3.45-12.53,11.06-12.53,3.04,0,6.64.51,9.33,1.17.91.2,1.06.46,1.06,1.17v23.94c0,.66-.15.96-1.06,1.17Zm-3.4-23.18c-1.37-.25-3.8-.51-5.93-.51-5.02,0-6.59,3.4-6.59,8.77v3.55c0,5.32,1.57,8.77,6.59,8.77,2.13,0,4.51-.25,5.93-.51v-20.08Z"/>
    <path d="m376.85,30c-3.45,0-5.12.1-7.05.51v22.82c0,.51-.36,1.01-.91,1.01h-2.64c-.51,0-.91-.46-.91-1.01v-24.65c0-.56.35-.91.91-1.17,2.89-1.27,6.39-1.42,10.6-1.42.66,0,1.06.05,1.06.76v2.33c0,.56-.1.81-1.06.81Z"/>
    <path d="m402.16,54.34h-3.65c-.56,0-.76-.15-1.17-.66l-10.09-12.48v12.12c0,.56-.46,1.01-1.01,1.01h-2.43c-.56,0-1.01-.46-1.01-1.01V17.22c0-.56.46-1.01,1.01-1.01h2.43c.56,0,1.01.46,1.01,1.01v21.1l10.14-11.41c.3-.35.51-.46,1.01-.46h3.55c.51,0,.76.25.76.56,0,.2-.1.41-.25.56l-11.16,12.07,11.26,13.59c.1.1.15.3.15.46,0,.36-.2.66-.56.66Z"/>
    <path d="m426.2,41.82h-16.99v.71c0,6.03,2.38,8.27,7.05,8.27,2.94,0,6.69-.2,9.03-.56h.25c.41,0,.81.2.81.71v1.72c0,.66-.2,1.01-1.01,1.17-2.89.56-5.68.86-9.08.86-5.83,0-11.51-2.74-11.51-12.17v-4.56c0-7.25,4.01-11.87,11.26-11.87s11.16,4.67,11.16,11.87v2.74c0,.66-.35,1.12-.96,1.12Zm-3.55-3.85c0-5.73-2.18-7.96-6.64-7.96s-6.8,2.49-6.8,7.96v.46h13.44v-.46Z"/>
    <path d="m445.12,54.4c-.96.15-3.04.3-4.87.3-4.77,0-7.51-1.57-7.51-7.05v-26.17c0-.51.46-.86,1.01-.96l2.49-.41h.1c.51,0,.86.46.86.96v5.38h7.91c.56,0,.96.35.96.91v1.72c0,.51-.41.91-.96.91h-7.91v17.65c0,2.94.96,3.45,3.75,3.45h4.11c.71,0,1.07.2,1.07.71v1.72c0,.46-.25.76-1.01.86Z"/>
    <path d="m460.74,54.7c-1.57,0-3.96-.2-5.93-.56v9.18c0,.51-.41.96-.96.96h-2.59c-.51,0-.91-.41-.91-.96V28.43c0-.66.15-.96,1.06-1.17,2.69-.66,6.24-1.17,9.33-1.17,7.56,0,11.06,4.92,11.06,12.53v3.65c0,7.96-3.65,12.43-11.06,12.43Zm6.59-16.08c0-5.32-1.57-8.77-6.59-8.77-2.13,0-4.51.25-5.93.51v20.08c1.67.3,4.31.51,5.93.51,4.97,0,6.59-3.25,6.59-8.67v-3.65Z"/>
    <path d="m481.34,54.34h-2.64c-.51,0-.91-.46-.91-1.01V17.17c0-.51.35-.96.91-.96h2.64c.51,0,.91.41.91.96v36.16c0,.51-.35,1.01-.91,1.01Z"/>
    <path d="m508.62,53.53c-2.69.66-6.24,1.17-9.33,1.17-7.56,0-11.06-4.92-11.06-12.53v-3.55c0-7.61,3.45-12.53,11.06-12.53,3.04,0,6.64.51,9.33,1.17.91.2,1.06.46,1.06,1.17v23.94c0,.66-.15.96-1.06,1.17Zm-3.4-23.18c-1.37-.25-3.8-.51-5.93-.51-5.02,0-6.59,3.4-6.59,8.77v3.55c0,5.32,1.57,8.77,6.59,8.77,2.13,0,4.51-.25,5.93-.51v-20.08Z"/>
    <path d="m532.31,54.14c-1.67.3-3.96.56-6.34.56-6.9,0-10.8-4.87-10.8-12.32v-3.96c0-7.45,3.85-12.32,10.8-12.32,2.33,0,4.67.25,6.34.56.81.15,1.01.41,1.01,1.12v1.83c0,.51-.41.76-.86.76h-.2c-2.23-.25-3.8-.35-6.29-.35-4.06,0-6.34,2.69-6.34,8.42v3.96c0,5.68,2.23,8.42,6.34,8.42,2.49,0,4.06-.1,6.29-.36h.2c.46,0,.86.25.86.76v1.83c0,.66-.2.96-1.01,1.12Z"/>
    <path d="m559.04,41.82h-16.99v.71c0,6.03,2.38,8.27,7.05,8.27,2.94,0,6.69-.2,9.03-.56h.25c.41,0,.81.2.81.71v1.72c0,.66-.2,1.01-1.01,1.17-2.89.56-5.68.86-9.08.86-5.83,0-11.51-2.74-11.51-12.17v-4.56c0-7.25,4.01-11.87,11.26-11.87s11.16,4.67,11.16,11.87v2.74c0,.66-.35,1.12-.96,1.12Zm-3.55-3.85c0-5.73-2.18-7.96-6.64-7.96s-6.8,2.49-6.8,7.96v.46h13.44v-.46Z"/>
  </g>
  <g>
    <path d="m66.27,6.75c-1.7-1.01-3.75-1.74-6.1-2.13-2.33-.39-4.75-.39-7.13-.06-2.37.32-4.7.97-6.88,1.89-2.18.92-4.21,2.12-5.97,3.54-1.76,1.42-3.25,3.08-4.34,4.92-1.1,1.85-1.68,3.71-1.8,5.5-.12,1.81.24,3.54,1.04,5.09.8,1.58,2.05,2.98,3.7,4.11,1.66,1.14,3.72,2,6.15,2.49,2.43.49,4.99.55,7.52.24,2.54-.31,5.04-1,7.37-2,2.33-1,4.47-2.31,6.28-3.86,1.81-1.55,3.29-3.33,4.29-5.29,1-1.94,1.45-3.87,1.4-5.69-.05-1.8-.57-3.49-1.53-4.98-.94-1.48-2.29-2.77-4-3.79Z"/>
    <path d="m78.4,12.55c-1.65-2.51-3.98-4.69-6.89-6.39-2.87-1.68-6.31-2.9-10.24-3.53-3.88-.62-7.89-.62-11.82-.08-3.92.54-7.79,1.61-11.4,3.14-3.62,1.52-7.01,3.51-9.97,5.88-2.98,2.38-5.53,5.16-7.44,8.25-1.93,3.13-3.03,6.31-3.35,9.38-.33,3.11.15,6.12,1.38,8.86,1.25,2.78,3.26,5.28,5.98,7.33,2.76,2.07,6.23,3.67,10.36,4.61,4.17.94,8.57,1.12,12.96.62,4.41-.51,8.76-1.69,12.82-3.45,4.04-1.75,7.75-4.06,10.88-6.81,3.11-2.73,5.62-5.88,7.31-9.33,1.66-3.4,2.36-6.76,2.21-9.9-.15-3.11-1.12-6.01-2.79-8.55Zm-3.78,13.49c-1.35,2.68-3.34,5.13-5.79,7.25-2.46,2.14-5.37,3.93-8.54,5.3-3.17,1.37-6.59,2.3-10.04,2.71-3.44.41-6.91.3-10.2-.4-3.26-.7-6.03-1.91-8.24-3.5-2.19-1.57-3.82-3.51-4.86-5.67-1.02-2.13-1.45-4.49-1.24-6.94.21-2.42,1.04-4.94,2.54-7.42,1.49-2.47,3.5-4.69,5.87-6.59,2.35-1.9,5.06-3.49,7.97-4.71,2.9-1.22,6-2.09,9.15-2.52,3.16-.43,6.37-.43,9.49.08,3.13.51,5.88,1.49,8.16,2.83,2.31,1.36,4.15,3.09,5.43,5.08,1.3,2.02,2.04,4.31,2.13,6.74.09,2.48-.49,5.1-1.82,7.76Z"/>
    <path d="m90.97,26.91c-.31-4.49-1.8-8.66-4.26-12.31-2.41-3.57-5.78-6.65-9.93-9.04-4.07-2.34-8.92-4.04-14.41-4.92-5.42-.86-11-.84-16.46-.08-5.44.76-10.8,2.25-15.84,4.36-5.05,2.12-9.8,4.88-13.97,8.17-4.22,3.33-7.87,7.23-10.67,11.59C2.6,29.14.89,33.68.27,38.09c-.64,4.51-.14,8.9,1.42,12.93,1.6,4.12,4.31,7.87,8.07,10.96,3.83,3.16,8.75,5.63,14.64,7.13,5.98,1.52,12.36,1.88,18.74,1.2,6.42-.68,12.79-2.39,18.7-4.98,5.9-2.59,11.3-6.01,15.83-10.11,4.48-4.05,8.06-8.72,10.42-13.81,2.31-5,3.21-9.91,2.89-14.5Zm-7.51,9.22c-2.02,4.25-5.07,8.13-8.85,11.51-3.82,3.4-8.36,6.26-13.31,8.41-4.96,2.16-10.3,3.61-15.69,4.2-5.37.6-10.74.34-15.81-.88-5-1.2-9.19-3.21-12.49-5.81-3.24-2.55-5.62-5.65-7.05-9.09-1.4-3.37-1.9-7.05-1.44-10.86.46-3.73,1.85-7.58,4.22-11.37,2.35-3.73,5.44-7.07,9.04-9.92,3.56-2.83,7.63-5.21,11.97-7.03,4.33-1.82,8.95-3.11,13.63-3.76,4.7-.65,9.5-.66,14.15.09,4.71.75,8.85,2.21,12.32,4.23,3.52,2.04,6.36,4.66,8.39,7.71,2.06,3.09,3.28,6.62,3.5,10.41.22,3.85-.58,7.97-2.57,12.15Z"/>
  </g>
</svg>