<?xml version="1.0" encoding="UTF-8"?>
<svg id="Livello_1" data-name="Livello 1" xmlns="http://www.w3.org/2000/svg" xmlns:xlink="http://www.w3.org/1999/xlink" viewBox="0 0 560 118.6">
  <defs>
    <linearGradient id="Sfumatura_senza_nome_7" data-name="Sfumatura senza nome 7" x1="-5.36" y1="69.38" x2="51.68" y2="12.34" gradientUnits="userSpaceOnUse">
      <stop offset="0" stop-color="#000"/>
      <stop offset=".86" stop-color="#000" stop-opacity=".37"/>
      <stop offset="1" stop-color="#000" stop-opacity="0"/>
    </linearGradient>
    <linearGradient id="Sfumatura_senza_nome_7-2" data-name="Sfumatura senza nome 7" x1="12.92" y1="123.96" x2="125.17" y2="11.71" xlink:href="#Sfumatura_senza_nome_7"/>
    <linearGradient id="Sfumatura_senza_nome_7-3" data-name="Sfumatura senza nome 7" x1="-5.36" y1="105.82" x2="48.68" y2="51.79" xlink:href="#Sfumatura_senza_nome_7"/>
    <linearGradient id="Sfumatura_senza_nome_7-4" data-name="Sfumatura senza nome 7" x1="49.35" y1="123.96" x2="134.54" y2="38.77" xlink:href="#Sfumatura_senza_nome_7"/>
  </defs>
  <path d="m337.74,13.08v-.41c0-5.89-3.83-7.83-11.2-7.83-1.82,0-5.06,0-6.48.18v16.14c2.59.06,5.13.12,6.48.12,7.25,0,11.2-1.83,11.2-8.19Z" style="fill: none;"/>
  <path d="m373.64,77.99c-7.17,0-11.17,4.09-11.17,13.09v.75h22.1v-.75c0-9.42-3.59-13.09-10.92-13.09Z" style="fill: none;"/>
  <path d="m312.94,77.99c-7.17,0-11.17,4.09-11.17,13.09v.75h22.1v-.75c0-9.42-3.59-13.09-10.92-13.09Z" style="fill: none;"/>
  <path d="m197.96,62.15h-4.84c-7.59,0-10.34,1.92-10.34,10.59v12.26h25.52v-12.26c0-8.67-2.75-10.59-10.34-10.59Z" style="fill: none;"/>
  <path d="m432.34,92.17v5.84c0,8.76,2.58,14.43,10.84,14.43,3.5,0,7.42-.42,9.76-.83v-33.02c-2.25-.42-6.25-.83-9.76-.83-8.26,0-10.84,5.59-10.84,14.43Z" style="fill: none;"/>
  <path d="m300.21,12.2c0-6.13-1.94-7.48-7.3-7.48h-3.42c-5.36,0-7.31,1.35-7.31,7.48v8.66h18.03v-8.66Z" style="fill: none;"/>
  <path d="m513.39,77.99c-7.75,0-11.17,5.34-11.17,13.93v6.34c0,8.51,3.34,13.93,11.17,13.93s11.26-5.34,11.26-13.93v-6.34c0-8.51-3.42-13.93-11.26-13.93Z" style="fill: none;"/>
  <path d="m176.18,44.19h3c.65,0,1.18-.53,1.18-1.18v-19.26h18.08c.65,0,1.18-.53,1.18-1.18v-2.24c0-.65-.53-1.18-1.18-1.18h-18.08v-8.19c0-4.48,1-6.12,7.25-6.12h11.37c.41,0,.65-.3.65-.71V1.18c0-.35-.24-.76-.59-.82-2.47-.23-8.01-.35-11.49-.35-8.25,0-12.55,3.12-12.55,10.95v32.04c0,.65.53,1.18,1.18,1.18Z"/>
  <path d="m209.11,44.19h3.24c.64,0,1.05-.59,1.05-1.18V1.54c0-.65-.47-1.12-1.05-1.12h-3.24c-.65,0-1.06.53-1.06,1.12v41.47c0,.65.47,1.18,1.06,1.18Z"/>
  <path d="m267.64,28.52V1.54c0-.59-.53-1.12-1.12-1.12h-3.13c-.64,0-1.11.53-1.11,1.12v26.98c0,7.95-1.59,11.55-8.25,11.55-1,0-4.12-.18-5.42-.53V1.48c0-.65-.4-1.06-1.06-1.06h-3.19c-.65,0-1.12.53-1.12,1.12v37.99c-1.3.35-4.42.53-5.42.53-6.65,0-8.25-3.6-8.25-11.55V1.54c0-.59-.53-1.12-1.12-1.12h-3.12c-.65,0-1.12.53-1.12,1.12v26.98c0,10.24,3.53,16.08,12.49,16.08,3.06,0,5.83-.29,9.19-1.47,3.36,1.18,6.19,1.47,9.25,1.47,8.95,0,12.49-5.84,12.49-16.08Z"/>
  <path d="m277.88,44.19h3.25c.64,0,1.06-.59,1.06-1.18v-17.44h18.03v17.44c0,.65.47,1.18,1.06,1.18h3.24c.59,0,1.06-.59,1.06-1.18V12.2C305.57,3.19,301.33,0,292.91,0h-3.42C281,0,276.82,3.19,276.82,12.2v30.81c0,.59.47,1.18,1.06,1.18Zm4.3-31.98c0-6.13,1.95-7.48,7.31-7.48h3.42c5.36,0,7.3,1.35,7.3,7.48v8.66h-18.03v-8.66Z"/>
  <path d="m343.92,44.19c.47,0,.77-.35.77-.77,0-.17-.06-.35-.18-.53l-10.72-17.91c5.36-1.41,9.24-5.3,9.24-11.9v-.41C343.04,3.13,335.85,0,326.54,0c-3.42,0-7.83.18-10.37.48-1.06.12-1.41.47-1.41,1.3v41.24c0,.65.47,1.18,1.06,1.18h3.18c.66,0,1.06-.59,1.06-1.18v-17.32c3.12.11,4.54.17,6.48.17h1.53l10.54,17.56c.47.77.82.77,1.53.77h3.77Zm-17.38-22.92c-1.35,0-3.88-.06-6.48-.12V5.01c1.42-.18,4.65-.18,6.48-.18,7.36,0,11.2,1.94,11.2,7.83v.41c0,6.36-3.94,8.19-11.2,8.19Z"/>
  <path d="m375.61,44.3c.35-.06.59-.47.59-.82v-3c0-.41-.23-.71-.65-.71h-11.37c-6.24,0-7.24-1.65-7.24-6.13v-9.89h18.09c.65,0,1.18-.54,1.18-1.18v-2.24c0-.65-.53-1.18-1.18-1.18h-18.09v-8.19c0-4.48,1-6.13,7.24-6.13h11.37c.41,0,.65-.3.65-.71V1.18c0-.35-.23-.76-.59-.82C373.13.12,367.6,0,364.12,0,355.88,0,351.57,3.13,351.57,10.96v22.68c0,7.84,4.3,10.96,12.55,10.96,3.48,0,9.25-.05,11.49-.29Z"/>
  <path d="m197.96,55.48h-4.84c-12.01,0-17.93,4.5-17.93,17.26v43.61c0,.83.67,1.67,1.5,1.67h4.59c.92,0,1.5-.83,1.5-1.67v-24.68h25.52v24.68c0,.92.67,1.67,1.5,1.67h4.59c.83,0,1.5-.83,1.5-1.67v-43.61c0-12.76-6-17.26-17.93-17.26Zm10.34,29.52h-25.52v-12.26c0-8.67,2.75-10.59,10.34-10.59h4.84c7.59,0,10.34,1.92,10.34,10.59v12.26Z"/>
  <path d="m252.24,72.49c-2.75-.5-6.59-.92-10.42-.92-11.42,0-17.76,8.01-17.76,20.26v6.5c0,12.26,6.42,20.26,17.76,20.26,3.92,0,7.67-.42,10.42-.92,1.33-.25,1.67-.75,1.67-1.83v-3c0-.83-.67-1.25-1.42-1.25h-.33c-3.67.42-6.25.58-10.34.58-6.75,0-10.42-4.5-10.42-13.84v-6.5c0-9.42,3.75-13.84,10.42-13.84,4.09,0,6.67.17,10.34.58h.33c.75,0,1.42-.42,1.42-1.25v-3c0-1.17-.33-1.58-1.67-1.83Z"/>
  <path d="m287.43,72.49c-2.75-.5-6.59-.92-10.42-.92-11.42,0-17.76,8.01-17.76,20.26v6.5c0,12.26,6.42,20.26,17.76,20.26,3.92,0,7.67-.42,10.42-.92,1.33-.25,1.67-.75,1.67-1.83v-3c0-.83-.67-1.25-1.42-1.25h-.33c-3.67.42-6.25.58-10.34.58-6.75,0-10.42-4.5-10.42-13.84v-6.5c0-9.42,3.75-13.84,10.42-13.84,4.09,0,6.67.17,10.34.58h.33c.75,0,1.42-.42,1.42-1.25v-3c0-1.17-.33-1.58-1.67-1.83Z"/>
  <path d="m312.94,71.57c-11.92,0-18.51,7.59-18.51,19.51v7.5c0,15.51,9.34,20.01,18.93,20.01,5.59,0,10.17-.5,14.93-1.42,1.33-.25,1.67-.83,1.67-1.92v-2.84c0-.83-.67-1.17-1.33-1.17h-.42c-3.84.58-10.01.92-14.84.92-7.67,0-11.59-3.67-11.59-13.59v-1.17h27.94c1,0,1.58-.75,1.58-1.83v-4.5c0-11.84-6.17-19.51-18.34-19.51Zm10.92,20.26h-22.1v-.75c0-9.01,4-13.09,11.17-13.09s10.92,3.67,10.92,13.09v.75Z"/>
  <path d="m345.46,55.31h-4.34c-.92,0-1.5.75-1.5,1.58v59.45c0,.92.67,1.67,1.5,1.67h4.34c.92,0,1.5-.83,1.5-1.67v-59.45c0-.92-.67-1.58-1.5-1.58Z"/>
  <path d="m373.64,71.57c-11.92,0-18.51,7.59-18.51,19.51v7.5c0,15.51,9.34,20.01,18.93,20.01,5.59,0,10.17-.5,14.93-1.42,1.33-.25,1.67-.83,1.67-1.92v-2.84c0-.83-.67-1.17-1.33-1.17h-.42c-3.84.58-10.01.92-14.84.92-7.67,0-11.59-3.67-11.59-13.59v-1.17h27.93c1,0,1.58-.75,1.58-1.83v-4.5c0-11.84-6.17-19.51-18.34-19.51Zm10.92,20.26h-22.1v-.75c0-9.01,4-13.09,11.17-13.09s10.92,3.67,10.92,13.09v.75Z"/>
  <path d="m418.42,71.57c-6.92,0-12.67.25-17.43,2.33-.92.42-1.5,1-1.5,1.92v40.53c0,.92.67,1.67,1.5,1.67h4.34c.92,0,1.5-.83,1.5-1.67v-37.52c3.17-.67,5.92-.83,11.59-.83,1.58,0,1.75-.42,1.75-1.33v-3.84c0-1.17-.67-1.25-1.75-1.25Z"/>
  <path d="m458.53,73.49c-4.42-1.08-10.34-1.92-15.34-1.92-12.51,0-18.18,8.09-18.18,20.6v5.84c0,12.51,5.75,20.6,18.18,20.6,5.09,0,10.92-.83,15.34-1.92,1.5-.33,1.75-.83,1.75-1.92v-39.36c0-1.17-.25-1.58-1.75-1.92Zm-5.59,38.11c-2.33.42-6.25.83-9.76.83-8.26,0-10.84-5.67-10.84-14.43v-5.84c0-8.84,2.58-14.43,10.84-14.43,3.5,0,7.51.42,9.76.83v33.02Z"/>
  <path d="m489.38,112.68h-6.75c-4.59,0-6.17-.83-6.17-5.67v-29.02h13.01c.92,0,1.58-.67,1.58-1.5v-2.84c0-.92-.67-1.5-1.58-1.5h-13.01v-8.84c0-.83-.58-1.58-1.42-1.58h-.17l-4.09.67c-.92.17-1.67.75-1.67,1.58v43.03c0,9.01,4.5,11.59,12.34,11.59,3,0,6.42-.25,8-.5,1.25-.17,1.67-.67,1.67-1.42v-2.83c0-.83-.58-1.17-1.75-1.17Z"/>
  <path d="m513.39,71.57c-12.26,0-18.51,8.09-18.51,20.35v6.34c0,12.26,6.25,20.35,18.51,20.35s18.59-8.09,18.59-20.35v-6.34c0-12.26-6.34-20.35-18.59-20.35Zm11.26,26.68c0,8.59-3.5,13.93-11.26,13.93s-11.17-5.42-11.17-13.93v-6.34c0-8.59,3.42-13.93,11.17-13.93s11.26,5.42,11.26,13.93v6.34Z"/>
  <path d="m558.25,71.57c-6.92,0-12.67.25-17.43,2.33-.92.42-1.5,1-1.5,1.92v40.53c0,.92.67,1.67,1.5,1.67h4.34c.92,0,1.5-.83,1.5-1.67v-37.52c3.17-.67,5.92-.83,11.59-.83,1.58,0,1.75-.42,1.75-1.33v-3.84c0-1.17-.67-1.25-1.75-1.25Z"/>
  <path d="m46.23,8.21c0-.42.04-.82.09-1.23L0,53.3v21.44L57.04,17.7c-.4.05-.81.09-1.23.09-5.28,0-9.58-4.3-9.58-9.58Z" style="fill: url(#Sfumatura_senza_nome_7);"/>
  <circle cx="55.81" cy="8.21" r="7.58"/>
  <path d="m119.72,7.58c0-.42.04-.82.09-1.23L7.56,118.6h21.44L130.53,17.07c-.4.05-.81.09-1.23.09-5.28,0-9.58-4.3-9.58-9.58Z" style="fill: url(#Sfumatura_senza_nome_7-2);"/>
  <circle cx="129.3" cy="7.58" r="7.58"/>
  <path d="m43.23,47.65c0-.42.04-.82.09-1.23L0,89.74v21.44l54.04-54.04c-.4.05-.81.09-1.23.09-5.28,0-9.58-4.3-9.58-9.58Z" style="fill: url(#Sfumatura_senza_nome_7-3);"/>
  <circle cx="52.81" cy="47.65" r="7.58"/>
  <path d="m129.09,34.64c0-.42.04-.82.09-1.23L43.99,118.6h21.44l74.47-74.47c-.4.05-.81.09-1.23.09-5.28,0-9.58-4.3-9.58-9.58Z" style="fill: url(#Sfumatura_senza_nome_7-4);"/>
  <circle cx="138.67" cy="34.63" r="7.58" transform="translate(72.02 161.07) rotate(-76.23)"/>
</svg>