<?xml version="1.0" encoding="UTF-8"?>
<svg id="Livello_1" data-name="Livello 1" xmlns="http://www.w3.org/2000/svg" xmlns:xlink="http://www.w3.org/1999/xlink" viewBox="0 0 560 118.93">
  <defs>
    <linearGradient id="Sfumatura_senza_nome_10" data-name="Sfumatura senza nome 10" x1="-5.36" y1="69.71" x2="55.81" y2="8.54" gradientUnits="userSpaceOnUse">
      <stop offset=".2" stop-color="#002e67"/>
      <stop offset=".44" stop-color="#002e67" stop-opacity=".98"/>
      <stop offset=".59" stop-color="#002e67" stop-opacity=".89"/>
      <stop offset=".71" stop-color="#002e67" stop-opacity=".76"/>
      <stop offset=".81" stop-color="#002e67" stop-opacity=".56"/>
      <stop offset=".91" stop-color="#002e67" stop-opacity=".31"/>
      <stop offset="1" stop-color="#002e67" stop-opacity="0"/>
    </linearGradient>
    <linearGradient id="Sfumatura_senza_nome_10-2" data-name="Sfumatura senza nome 10" x1="12.92" y1="124.29" x2="129.3" y2="7.91" xlink:href="#Sfumatura_senza_nome_10"/>
    <linearGradient id="Sfumatura_senza_nome_14" data-name="Sfumatura senza nome 14" x1="0" y1="77.07" x2="58.17" y2="77.07" gradientUnits="userSpaceOnUse">
      <stop offset=".2" stop-color="#5dc0cf"/>
      <stop offset=".39" stop-color="#5dc0cf" stop-opacity=".99"/>
      <stop offset=".51" stop-color="#5dc0cf" stop-opacity=".95"/>
      <stop offset=".61" stop-color="#5dc0cf" stop-opacity=".88"/>
      <stop offset=".69" stop-color="#5dc0cf" stop-opacity=".78"/>
      <stop offset=".77" stop-color="#5dc0cf" stop-opacity=".65"/>
      <stop offset=".84" stop-color="#5dc0cf" stop-opacity=".5"/>
      <stop offset=".91" stop-color="#5dc0cf" stop-opacity=".31"/>
      <stop offset=".97" stop-color="#5dc0cf" stop-opacity=".1"/>
      <stop offset="1" stop-color="#5dc0cf" stop-opacity="0"/>
    </linearGradient>
    <linearGradient id="Sfumatura_senza_nome_14-2" data-name="Sfumatura senza nome 14" x1="43.99" y1="74.27" x2="144.03" y2="74.27" xlink:href="#Sfumatura_senza_nome_14"/>
  </defs>
  <g>
    <polygon points="50.45 3.18 0 53.63 0 75.07 61.17 13.9 50.45 3.18" style="fill: url(#Sfumatura_senza_nome_10);"/>
    <polygon points="123.94 2.55 7.56 118.93 29 118.93 134.66 13.27 123.94 2.55" style="fill: url(#Sfumatura_senza_nome_10-2);"/>
    <polygon points="47.45 42.62 0 90.07 0 111.51 58.17 53.34 47.45 42.62" style="fill: url(#Sfumatura_senza_nome_14);"/>
    <polygon points="133.31 29.6 43.99 118.93 65.43 118.93 144.03 40.33 133.31 29.6" style="fill: url(#Sfumatura_senza_nome_14-2);"/>
    <g>
      <circle cx="55.81" cy="8.54" r="7.58" style="fill: #002e67;"/>
      <circle cx="129.3" cy="7.91" r="7.58" style="fill: #002e67;"/>
      <circle cx="52.81" cy="47.98" r="7.58" style="fill: #5dc0cf;"/>
      <circle cx="138.67" cy="34.97" r="7.58" transform="translate(71.7 161.33) rotate(-76.23)" style="fill: #5dc0cf;"/>
    </g>
  </g>
  <g>
    <path d="m198.45,23.74h-18.08v19.26c0,.65-.53,1.18-1.18,1.18h-3c-.65,0-1.18-.53-1.18-1.18V10.96C175.01,3.12,179.3,0,187.55,0c3.47,0,9.01.12,11.49.35.35.06.59.47.59.82v2.95c0,.41-.24.71-.65.71h-11.37c-6.24,0-7.25,1.65-7.25,6.12v8.19h18.08c.65,0,1.18.53,1.18,1.18v2.24c0,.65-.53,1.18-1.18,1.18" style="fill: #002e67;"/>
    <path d="m212.35,44.19h-3.24c-.59,0-1.06-.53-1.06-1.18V1.54c0-.59.42-1.12,1.06-1.12h3.24c.59,0,1.05.47,1.05,1.12v41.47c0,.59-.41,1.18-1.05,1.18" style="fill: #002e67;"/>
    <path d="m255.15,44.6c-3.06,0-5.89-.29-9.25-1.47-3.36,1.18-6.13,1.47-9.19,1.47-8.96,0-12.49-5.84-12.49-16.08V1.54c0-.59.47-1.12,1.12-1.12h3.12c.59,0,1.12.53,1.12,1.12v26.98c0,7.95,1.59,11.55,8.25,11.55,1,0,4.13-.18,5.42-.53V1.54c0-.59.47-1.12,1.12-1.12h3.19c.65,0,1.06.41,1.06,1.06v38.05c1.3.35,4.42.53,5.42.53,6.66,0,8.25-3.6,8.25-11.55V1.54c0-.59.47-1.12,1.11-1.12h3.13c.58,0,1.12.53,1.12,1.12v26.98c0,10.24-3.53,16.08-12.49,16.08" style="fill: #002e67;"/>
    <path d="m304.51,44.19h-3.24c-.59,0-1.06-.53-1.06-1.18v-17.44h-18.03v17.44c0,.59-.41,1.18-1.06,1.18h-3.25c-.58,0-1.06-.59-1.06-1.18V12.2c0-9.02,4.18-12.2,12.67-12.2h3.42c8.42,0,12.66,3.19,12.66,12.2v30.81c0,.59-.47,1.18-1.06,1.18m-4.3-31.98c0-6.13-1.94-7.48-7.3-7.48h-3.42c-5.36,0-7.31,1.35-7.31,7.48v8.66h18.03v-8.66Z" style="fill: #002e67;"/>
    <path d="m343.92,44.19h-3.77c-.71,0-1.06,0-1.53-.77l-10.54-17.56h-1.53c-1.94,0-3.36-.06-6.48-.17v17.32c0,.59-.41,1.18-1.06,1.18h-3.18c-.59,0-1.06-.53-1.06-1.18V1.77c0-.82.35-1.18,1.41-1.3,2.53-.3,6.95-.48,10.37-.48,9.31,0,16.5,3.13,16.5,12.67v.41c0,6.6-3.89,10.49-9.24,11.9l10.72,17.91c.12.18.18.35.18.53,0,.41-.29.77-.77.77m-6.18-31.52c0-5.89-3.83-7.83-11.2-7.83-1.82,0-5.06,0-6.48.18v16.14c2.59.06,5.13.12,6.48.12,7.25,0,11.2-1.83,11.2-8.19v-.41Z" style="fill: #002e67;"/>
    <path d="m375.61,44.3c-2.24.24-8.01.29-11.49.29-8.25,0-12.55-3.12-12.55-10.96V10.96c0-7.84,4.3-10.96,12.55-10.96,3.48,0,9.01.12,11.49.36.35.06.59.47.59.82v2.95c0,.41-.23.71-.65.71h-11.37c-6.24,0-7.24,1.65-7.24,6.13v8.19h18.09c.65,0,1.18.53,1.18,1.18v2.24c0,.65-.53,1.18-1.18,1.18h-18.09v9.89c0,4.47,1,6.13,7.24,6.13h11.37c.41,0,.65.29.65.71v3c0,.35-.23.77-.59.82" style="fill: #002e67;"/>
  </g>
  <g>
    <path d="m214.38,118.02h-4.59c-.83,0-1.5-.75-1.5-1.67v-24.68h-25.52v24.68c0,.83-.58,1.67-1.5,1.67h-4.59c-.83,0-1.5-.83-1.5-1.67v-43.61c0-12.76,5.92-17.26,17.93-17.26h4.84c11.92,0,17.93,4.5,17.93,17.26v43.61c0,.83-.67,1.67-1.5,1.67Zm-6.09-45.28c0-8.67-2.75-10.59-10.34-10.59h-4.84c-7.59,0-10.34,1.92-10.34,10.59v12.26h25.52v-12.26Z" style="fill: #5dc0cf;"/>
    <path d="m252.24,117.68c-2.75.5-6.5.92-10.42.92-11.34,0-17.76-8-17.76-20.26v-6.5c0-12.26,6.34-20.26,17.76-20.26,3.84,0,7.67.42,10.42.92,1.33.25,1.67.67,1.67,1.83v3c0,.83-.67,1.25-1.42,1.25h-.33c-3.67-.42-6.25-.58-10.34-.58-6.67,0-10.42,4.42-10.42,13.84v6.5c0,9.34,3.67,13.84,10.42,13.84,4.09,0,6.67-.17,10.34-.58h.33c.75,0,1.42.42,1.42,1.25v3c0,1.08-.33,1.58-1.67,1.83Z" style="fill: #5dc0cf;"/>
    <path d="m287.43,117.68c-2.75.5-6.5.92-10.42.92-11.34,0-17.76-8-17.76-20.26v-6.5c0-12.26,6.34-20.26,17.76-20.26,3.84,0,7.67.42,10.42.92,1.33.25,1.67.67,1.67,1.83v3c0,.83-.67,1.25-1.42,1.25h-.33c-3.67-.42-6.25-.58-10.34-.58-6.67,0-10.42,4.42-10.42,13.84v6.5c0,9.34,3.67,13.84,10.42,13.84,4.09,0,6.67-.17,10.34-.58h.33c.75,0,1.42.42,1.42,1.25v3c0,1.08-.33,1.58-1.67,1.83Z" style="fill: #5dc0cf;"/>
    <path d="m329.7,97.42h-27.94v1.17c0,9.92,3.92,13.59,11.59,13.59,4.84,0,11.01-.33,14.84-.92h.42c.67,0,1.33.33,1.33,1.17v2.84c0,1.08-.33,1.67-1.67,1.92-4.75.92-9.34,1.42-14.93,1.42-9.59,0-18.93-4.5-18.93-20.01v-7.5c0-11.92,6.59-19.51,18.51-19.51s18.34,7.67,18.34,19.51v4.5c0,1.08-.58,1.83-1.58,1.83Zm-5.84-6.34c0-9.42-3.59-13.09-10.92-13.09s-11.17,4.09-11.17,13.09v.75h22.1v-.75Z" style="fill: #5dc0cf;"/>
    <path d="m345.46,118.02h-4.34c-.83,0-1.5-.75-1.5-1.67v-59.45c0-.83.58-1.58,1.5-1.58h4.34c.83,0,1.5.67,1.5,1.58v59.45c0,.83-.58,1.67-1.5,1.67Z" style="fill: #5dc0cf;"/>
    <path d="m390.4,97.42h-27.93v1.17c0,9.92,3.92,13.59,11.59,13.59,4.84,0,11.01-.33,14.84-.92h.42c.67,0,1.33.33,1.33,1.17v2.84c0,1.08-.33,1.67-1.67,1.92-4.75.92-9.34,1.42-14.93,1.42-9.59,0-18.93-4.5-18.93-20.01v-7.5c0-11.92,6.59-19.51,18.51-19.51s18.34,7.67,18.34,19.51v4.5c0,1.08-.58,1.83-1.58,1.83Zm-5.84-6.34c0-9.42-3.59-13.09-10.92-13.09s-11.17,4.09-11.17,13.09v.75h22.1v-.75Z" style="fill: #5dc0cf;"/>
    <path d="m418.42,77.99c-5.67,0-8.42.17-11.59.83v37.52c0,.83-.58,1.67-1.5,1.67h-4.34c-.83,0-1.5-.75-1.5-1.67v-40.53c0-.92.58-1.5,1.5-1.92,4.75-2.08,10.51-2.33,17.43-2.33,1.08,0,1.75.08,1.75,1.25v3.84c0,.92-.17,1.33-1.75,1.33Z" style="fill: #5dc0cf;"/>
    <path d="m458.53,116.68c-4.42,1.08-10.26,1.92-15.34,1.92-12.42,0-18.18-8.09-18.18-20.6v-5.84c0-12.51,5.67-20.6,18.18-20.6,5,0,10.92.83,15.34,1.92,1.5.33,1.75.75,1.75,1.92v39.36c0,1.08-.25,1.58-1.75,1.92Zm-5.59-38.11c-2.25-.42-6.25-.83-9.76-.83-8.26,0-10.84,5.59-10.84,14.43v5.84c0,8.76,2.58,14.43,10.84,14.43,3.5,0,7.42-.42,9.76-.83v-33.02Z" style="fill: #5dc0cf;"/>
    <path d="m489.46,118.1c-1.58.25-5,.5-8,.5-7.84,0-12.34-2.58-12.34-11.59v-43.03c0-.83.75-1.42,1.67-1.58l4.09-.67h.17c.83,0,1.42.75,1.42,1.58v8.84h13.01c.92,0,1.58.58,1.58,1.5v2.84c0,.83-.67,1.5-1.58,1.5h-13.01v29.02c0,4.84,1.58,5.67,6.17,5.67h6.75c1.17,0,1.75.33,1.75,1.17v2.83c0,.75-.42,1.25-1.67,1.42Z" style="fill: #5dc0cf;"/>
    <path d="m513.39,118.6c-12.26,0-18.51-8.09-18.51-20.35v-6.34c0-12.26,6.25-20.35,18.51-20.35s18.59,8.09,18.59,20.35v6.34c0,12.26-6.34,20.35-18.59,20.35Zm11.26-26.68c0-8.51-3.42-13.93-11.26-13.93s-11.17,5.34-11.17,13.93v6.34c0,8.51,3.34,13.93,11.17,13.93s11.26-5.34,11.26-13.93v-6.34Z" style="fill: #5dc0cf;"/>
    <path d="m558.25,77.99c-5.67,0-8.42.17-11.59.83v37.52c0,.83-.58,1.67-1.5,1.67h-4.34c-.83,0-1.5-.75-1.5-1.67v-40.53c0-.92.58-1.5,1.5-1.92,4.75-2.08,10.51-2.33,17.43-2.33,1.08,0,1.75.08,1.75,1.25v3.84c0,.92-.17,1.33-1.75,1.33Z" style="fill: #5dc0cf;"/>
  </g>
</svg>