<?xml version="1.0" encoding="UTF-8"?>
<svg id="Livello_1" data-name="Livello 1" xmlns="http://www.w3.org/2000/svg" viewBox="0 0 560 122.41">
  <g>
    <g>
      <path d="m82.81,59.41c7.6-5.59,18.29-3.97,23.88,3.63,5.59,7.6,3.96,18.28-3.63,23.88-7.59,5.59-18.28,3.97-23.87-3.63-5.59-7.6-3.97-18.29,3.62-23.88" style="fill: #fff;"/>
      <path d="m37.95,69.23c-5.84,4.25-14.05,2.95-18.3-2.89-4.24-5.83-2.95-14.05,2.89-18.29,5.84-4.25,14.06-2.94,18.3,2.89,4.25,5.84,2.95,14.05-2.88,18.3m17.87-28.65c-10.13-13.75-29.48-16.69-43.23-6.57C-1.16,44.14-4.1,63.49,6.02,77.25c10.12,13.75,29.48,16.69,43.23,6.57,13.76-10.12,16.69-29.49,6.57-43.24" style="fill: #fff;"/>
    </g>
    <g>
      <path d="m68.63,103.48c3.89,5.29,2.76,12.73-2.53,16.61-5.29,3.89-12.73,2.76-16.62-2.52-3.89-5.29-2.76-12.73,2.52-16.62,5.29-3.89,12.73-2.76,16.62,2.53" style="fill: #fff;"/>
      <path d="m86.62,26.07c-3.63,2.64-8.74,1.83-11.38-1.8-2.64-3.62-1.83-8.74,1.8-11.38,3.63-2.64,8.74-1.83,11.38,1.8,2.64,3.63,1.83,8.75-1.79,11.39m10.91-18.24c-6.3-8.56-18.34-10.39-26.9-4.09-8.56,6.3-10.39,18.34-4.08,26.9,6.3,8.56,18.34,10.39,26.9,4.09,8.56-6.3,10.39-18.34,4.09-26.9" style="fill: #fff;"/>
    </g>
  </g>
  <g>
    <g>
      <g>
        <path d="m169.66,63.19h-24.9v26.52c0,.89-.73,1.63-1.62,1.63h-4.14c-.89,0-1.62-.73-1.62-1.63v-44.12c0-10.79,5.92-15.08,17.28-15.08,4.78,0,12.4.16,15.81.48.48.08.81.65.81,1.14v4.06c0,.57-.33.97-.89.97h-15.65c-8.59,0-9.97,2.27-9.97,8.43v11.27h24.9c.89,0,1.62.73,1.62,1.62v3.08c0,.89-.73,1.62-1.62,1.62" style="fill: #fff;"/>
        <path d="m188.8,91.34h-4.46c-.81,0-1.46-.73-1.46-1.62v-57.1c0-.81.57-1.54,1.46-1.54h4.46c.81,0,1.46.65,1.46,1.54v57.1c0,.81-.57,1.62-1.46,1.62" style="fill: #fff;"/>
      </g>
      <g>
        <path d="m247.73,91.9c-4.22,0-8.11-.41-12.74-2.03-4.62,1.62-8.43,2.03-12.65,2.03-12.33,0-17.19-8.03-17.19-22.14v-37.15c0-.81.65-1.54,1.54-1.54h4.3c.81,0,1.54.73,1.54,1.54v37.15c0,10.95,2.18,15.89,11.35,15.89,1.38,0,5.68-.24,7.47-.73v-52.31c0-.81.65-1.54,1.54-1.54h4.38c.89,0,1.46.57,1.46,1.46v52.39c1.78.49,6.08.73,7.46.73,9.17,0,11.35-4.95,11.35-15.89v-37.15c0-.81.65-1.54,1.54-1.54h4.3c.81,0,1.54.73,1.54,1.54v37.15c0,14.11-4.87,22.14-17.19,22.14" style="fill: #fff;"/>
        <path d="m315.68,91.34h-4.46c-.81,0-1.46-.73-1.46-1.62v-24.01h-24.82v24.01c0,.8-.56,1.62-1.46,1.62h-4.46c-.81,0-1.46-.82-1.46-1.62v-42.42c0-12.41,5.76-16.79,17.44-16.79h4.7c11.59,0,17.43,4.38,17.43,16.79v42.42c0,.8-.65,1.62-1.46,1.62m-5.92-44.04c0-8.43-2.68-10.3-10.05-10.3h-4.7c-7.38,0-10.06,1.87-10.06,10.3v11.92h24.82v-11.92Z" style="fill: #fff;"/>
        <path d="m369.94,91.34h-5.19c-.97,0-1.46,0-2.11-1.06l-14.52-24.17h-2.11c-2.68,0-4.63-.08-8.93-.24v23.84c0,.82-.56,1.63-1.46,1.63h-4.38c-.81,0-1.46-.73-1.46-1.63v-56.77c0-1.13.49-1.62,1.95-1.78,3.49-.41,9.57-.65,14.28-.65,12.81,0,22.7,4.3,22.7,17.44v.57c0,9.08-5.35,14.44-12.73,16.38l14.76,24.66c.16.24.24.48.24.73,0,.57-.41,1.06-1.05,1.06m-8.52-43.39c0-8.11-5.27-10.79-15.4-10.79-2.52,0-6.97,0-8.93.24v22.22c3.57.08,7.06.16,8.93.16,9.97,0,15.4-2.52,15.4-11.28v-.57Z" style="fill: #fff;"/>
        <path d="m413.56,91.5c-3.08.32-11.03.41-15.81.41-11.36,0-17.28-4.3-17.28-15.09v-31.22c0-10.79,5.92-15.09,17.28-15.09,4.78,0,12.4.17,15.81.49.49.08.82.65.82,1.13v4.06c0,.57-.33.97-.9.97h-15.65c-8.6,0-9.98,2.27-9.98,8.43v11.27h24.9c.9,0,1.63.73,1.63,1.62v3.08c0,.89-.73,1.63-1.63,1.63h-24.9v13.62c0,6.16,1.38,8.44,9.98,8.44h15.65c.57,0,.9.41.9.97v4.14c0,.48-.33,1.05-.82,1.14" style="fill: #fff;"/>
      </g>
    </g>
    <g>
      <path d="m474.09,91.17c-2.11.33-8.18.73-15.8.73-8.67,0-17.27-1.7-17.27-15.08v-44.1c0-.89.73-1.62,1.63-1.62h4.13c.89,0,1.62.73,1.62,1.62v44.1c0,6.16,1.38,8.43,9.97,8.43h15.65c.57,0,.89.41.89.97v3.81c0,.48-.32,1.05-.81,1.13" style="fill: #fff;"/>
      <path d="m507.56,53c-2.18-.41-6.08-.81-9.48-.81-8.03,0-10.54,5.43-10.54,14.02v5.67c0,8.52,2.51,14.03,10.54,14.03,3.41,0,7.21-.41,9.48-.81v-32.1Zm5.44,37.05c-4.29,1.05-9.97,1.86-14.92,1.86-12.08,0-17.67-7.86-17.67-20.03v-5.67c0-12.16,5.51-20.03,17.67-20.03,4.86,0,10.63.81,14.92,1.87,1.46.32,1.7.73,1.7,1.87v38.26c0,1.06-.24,1.54-1.7,1.87" style="fill: #fff;"/>
      <path d="m552.87,66.05c0-8.68-2.59-13.62-10.54-13.62-2.51,0-6.8.08-9.48.57v32.18c2.76.24,6.73.48,9.48.48,8.03,0,10.54-4.95,10.54-13.78v-5.84Zm-10.54,25.86c-4.86,0-9.89-.41-14.91-1.38-1.46-.24-1.7-.73-1.7-1.86V31.92c0-.81.56-1.54,1.46-1.54h4.14c.81,0,1.54.65,1.54,1.54v15.08c3.08-.57,6.89-.81,9.48-.81,11.76,0,17.67,7.13,17.67,19.86v5.84c0,12.16-5.51,20.02-17.67,20.02" style="fill: #fff;"/>
    </g>
  </g>
</svg>