<?xml version="1.0" encoding="UTF-8"?>
<svg id="Capa_1" data-name="Capa 1" xmlns="http://www.w3.org/2000/svg" xmlns:xlink="http://www.w3.org/1999/xlink" viewBox="0 0 600 160">
  <defs>
    <filter id="drop-shadow-1" filterUnits="userSpaceOnUse">
      <feOffset dx="0" dy="5"/>
      <feGaussianBlur result="blur" stdDeviation="4"/>
      <feFlood flood-color="#000" flood-opacity=".6"/>
      <feComposite in2="blur" operator="in"/>
      <feComposite in="SourceGraphic"/>
    </filter>
  </defs>
  <g style="fill: none; filter: url(#drop-shadow-1);">
    <g>
      <g>
        <path d="m134.16,27.21c-3.18-1.59-6.94-2.64-11.2-3.05-4.23-.4-8.56-.1-12.78.78-4.21.88-8.31,2.34-12.1,4.25-3.8,1.93-7.29,4.32-10.26,7.09-2.98,2.77-5.45,5.93-7.17,9.37-1.74,3.45-2.55,6.87-2.54,10.09.02,3.25.88,6.31,2.5,9,1.64,2.72,4.05,5.08,7.14,6.9,3.12,1.84,6.93,3.13,11.33,3.7,4.42.58,9.01.37,13.51-.51,4.51-.88,8.91-2.43,12.97-4.51,4.04-2.08,7.72-4.7,10.78-7.7,3.05-3,5.47-6.38,7.03-10.02,1.55-3.6,2.11-7.12,1.81-10.37-.31-3.22-1.46-6.18-3.36-8.74-1.87-2.54-4.46-4.68-7.65-6.29Z" style="fill: #5dc0cf;"/>
        <path d="m156.63,36.09c-3.27-4.3-7.72-7.91-13.15-10.58-5.36-2.65-11.68-4.41-18.79-5.05-7.04-.63-14.22-.13-21.2,1.33-6.96,1.46-13.76,3.87-20.05,7.05-6.3,3.18-12.13,7.17-17.13,11.78-5.04,4.63-9.26,9.93-12.3,15.72-3.07,5.86-4.64,11.68-4.82,17.23-.19,5.62,1.04,10.96,3.58,15.71,2.58,4.83,6.5,9.06,11.64,12.38,5.2,3.37,11.64,5.8,19.15,6.96,7.59,1.17,15.51.93,23.3-.52,7.84-1.47,15.5-4.14,22.54-7.79,7.02-3.64,13.38-8.25,18.65-13.57,5.23-5.28,9.34-11.24,11.93-17.63,2.56-6.3,3.38-12.41,2.73-18.03-.65-5.55-2.75-10.63-6.07-14.98Zm-5.08,24.66c-2.08,4.98-5.34,9.61-9.46,13.72-4.14,4.14-9.14,7.72-14.64,10.56-5.52,2.85-11.52,4.95-17.66,6.12-6.12,1.16-12.35,1.4-18.34.56-5.94-.84-11.05-2.68-15.22-5.24-4.12-2.55-7.29-5.81-9.42-9.56-2.09-3.69-3.17-7.87-3.1-12.28.06-4.37,1.24-8.98,3.62-13.62,2.36-4.61,5.69-8.84,9.7-12.54,3.98-3.69,8.64-6.89,13.7-9.44,5.04-2.56,10.5-4.49,16.09-5.67,5.61-1.17,11.37-1.58,17.02-1.05,5.68.52,10.73,1.93,14.98,4.05,4.31,2.15,7.82,5.01,10.38,8.43,2.58,3.45,4.2,7.46,4.66,11.82.47,4.43-.23,9.21-2.3,14.14Z" style="fill: #5dc0cf;"/>
        <path d="m180.97,60.27c-1.12-8.01-4.31-15.3-9.18-21.53-4.77-6.1-11.19-11.19-18.93-14.96-7.59-3.69-16.5-6.13-26.45-7.01-9.82-.86-19.82-.13-29.52,1.92-9.65,2.03-19.09,5.38-27.84,9.8-8.78,4.43-16.95,9.98-24.01,16.4-7.14,6.5-13.2,13.94-17.67,22.12-4.55,8.33-7.04,16.67-7.59,24.66-.58,8.16.86,15.97,4.16,23,3.38,7.19,8.71,13.56,15.84,18.64,7.27,5.18,16.38,9,27.14,10.95,10.91,1.97,22.39,1.82,33.74-.19,11.42-2.02,22.62-5.89,32.9-11.28,10.25-5.38,19.5-12.2,27.11-20.11,7.52-7.81,13.36-16.64,16.95-26.06,3.52-9.26,4.51-18.17,3.36-26.35Zm-12.31,17.46c-3.1,7.87-8.07,15.22-14.42,21.74-6.42,6.58-14.2,12.26-22.81,16.75-8.63,4.5-18.01,7.76-27.61,9.5-9.54,1.74-19.21,1.96-28.44.41-9.11-1.52-16.88-4.61-23.13-8.85-6.13-4.17-10.78-9.43-13.78-15.41-2.94-5.86-4.29-12.41-3.94-19.28.35-6.75,2.36-13.82,6.15-20.91,3.74-6.98,8.87-13.35,14.95-18.91,6.03-5.52,13.03-10.29,20.58-14.1,7.53-3.81,15.65-6.69,23.96-8.44,8.35-1.75,16.94-2.37,25.37-1.62,8.53.76,16.15,2.86,22.62,6.03,6.57,3.22,11.99,7.56,16,12.76,4.08,5.29,6.7,11.45,7.57,18.22.88,6.88-.04,14.36-3.08,22.11Z" style="fill: #5dc0cf;"/>
      </g>
      <g>
        <path d="m87.74,71.65c3.12,1.84,6.93,3.13,11.33,3.7,4.42.58,9.02.36,13.51-.51,4.51-.88,8.92-2.42,12.97-4.51,3.61-1.85,6.92-4.14,9.77-6.75-17.34-7.94-36.62-12.22-56.79-11.92-.28,1.39-.43,2.76-.42,4.09.02,3.25.87,6.31,2.49,9.01,1.64,2.72,4.05,5.08,7.14,6.9Z" style="fill: #002e67;"/>
        <path d="m64.4,101.66c5.2,3.37,11.64,5.8,19.15,6.96,7.59,1.17,15.51.92,23.31-.52,7.83-1.46,15.5-4.13,22.54-7.79,7.03-3.64,13.39-8.25,18.66-13.57,3.34-3.38,6.22-7.04,8.54-10.9-3.25-2.3-6.61-4.46-10.06-6.46-1.33,1.76-2.82,3.47-4.44,5.09-4.15,4.14-9.14,7.72-14.65,10.57-5.51,2.84-11.52,4.95-17.66,6.12-6.12,1.17-12.35,1.4-18.34.56-5.94-.84-11.06-2.67-15.22-5.24-4.12-2.55-7.3-5.81-9.42-9.55-2.09-3.7-3.17-7.87-3.1-12.28.06-3.94,1.03-8.07,2.97-12.26-3.85.4-7.65.96-11.38,1.68-.45.76-.88,1.52-1.28,2.29-3.07,5.86-4.64,11.69-4.82,17.23-.19,5.62,1.04,10.96,3.58,15.72,2.58,4.83,6.5,9.06,11.63,12.38Z" style="fill: #002e67;"/>
        <path d="m166.14,83.25c-3.02,5.8-7.06,11.25-11.9,16.22-6.41,6.58-14.2,12.26-22.8,16.75-8.63,4.5-18.02,7.76-27.61,9.5-9.54,1.74-19.21,1.95-28.44.41-9.11-1.53-16.89-4.61-23.12-8.86-6.14-4.16-10.78-9.43-13.77-15.41-2.95-5.86-4.3-12.41-3.95-19.28.35-6.75,2.36-13.82,6.15-20.91.88-1.64,1.84-3.24,2.87-4.81-4.32,1.25-8.55,2.71-12.67,4.37-1.26,1.88-2.43,3.81-3.5,5.78-4.55,8.32-7.04,16.67-7.6,24.66-.57,8.16.86,15.97,4.16,23,3.38,7.18,8.71,13.55,15.83,18.63,7.27,5.18,16.39,9,27.14,10.95,10.91,1.98,22.39,1.82,33.74-.19,11.42-2.02,22.61-5.89,32.89-11.28,10.25-5.37,19.5-12.2,27.1-20.11,6.1-6.34,11.1-13.35,14.69-20.8-2.93-3.02-6.01-5.91-9.21-8.64Z" style="fill: #002e67;"/>
      </g>
    </g>
    <g>
      <path d="m249.79,30.67c-4.57-.11-14.75.38-21.12.82-15.13,1.06-22.62,7.33-21.61,21.71l4.11,58.79c.08,1.19,1.12,2.1,2.31,2.02l5.51-.39c1.19-.08,2.09-1.13,2.01-2.32l-2.47-35.34,33.18-2.32c1.19-.08,2.09-1.13,2.01-2.31l-.29-4.11c-.08-1.19-1.13-2.09-2.31-2.01l-33.18,2.32-1.05-15.02c-.57-8.22,1.05-11.37,12.51-12.17l20.86-1.46c.75-.05,1.15-.63,1.1-1.38l-.38-5.4c-.05-.65-.54-1.37-1.19-1.44Z" style="fill: #002e67;"/>
      <path d="m274.22,29.07l-5.95.42c-1.19.08-1.88,1.11-1.8,2.19l5.32,76.08c.08,1.19,1.02,2.1,2.1,2.03l5.95-.42c1.18-.08,1.87-1.21,1.79-2.3l-5.32-76.08c-.08-1.19-1-1.99-2.08-1.91Z" style="fill: #002e67;"/>
    </g>
    <g>
      <path d="m373.61,22.12l-5.73.4c-1.18.08-1.98,1.11-1.91,2.2l3.46,49.5c1.02,14.59-1.43,21.39-13.65,22.24-1.84.13-7.59.2-10.01-.28l-4.88-69.81c-.08-1.19-.89-1.9-2.08-1.81l-5.84.41c-1.19.08-1.98,1.11-1.91,2.2l4.87,69.71c-2.34.81-8.04,1.54-9.88,1.67-12.21.85-15.59-5.53-16.61-20.13l-3.46-49.5c-.08-1.08-1.12-1.99-2.2-1.91l-5.73.4c-1.19.08-1.98,1.11-1.91,2.2l3.46,49.5c1.31,18.8,8.54,29.05,24.97,27.9,5.63-.39,10.66-1.29,16.67-3.88,6.31,1.73,11.54,1.91,17.16,1.52,16.43-1.15,22.16-12.3,20.85-31.11l-3.46-49.5c-.08-1.08-1.12-1.99-2.19-1.91Z" style="fill: #5dc0cf;"/>
      <path d="m421.96,17.98l-6.27.44c-15.57,1.09-22.82,7.46-21.67,24l3.95,56.52c.08,1.08,1.02,2.11,2.09,2.03l5.95-.42c1.19-.08,1.87-1.22,1.79-2.3l-2.24-31.99,33.07-2.31,2.24,31.99c.08,1.2,1.01,2.11,2.1,2.03l5.94-.42c1.09-.08,1.87-1.22,1.8-2.3l-3.95-56.52c-1.16-16.54-9.35-21.83-24.8-20.75Zm16.08,37.32l-33.07,2.31-1.11-15.88c-.79-11.24,2.61-13.97,12.44-14.66l6.27-.44c9.83-.69,13.58,1.55,14.36,12.79l1.11,15.88Z" style="fill: #5dc0cf;"/>
      <path d="m500.16,58.56c9.66-3.28,16.29-10.91,15.44-23.02l-.05-.76c-1.22-17.51-14.81-22.32-31.88-21.12-6.27.44-14.35,1.33-18.96,2.2-1.93.35-2.53,1.04-2.43,2.56l5.29,75.66c.08,1.19,1.02,2.1,2.1,2.02l5.83-.41c1.19-.08,1.87-1.21,1.79-2.29l-2.22-31.77c5.74-.19,8.34-.26,11.91-.51l1.84-.13.97-.07,21.6,30.85c.96,1.34,1.61,1.3,2.9,1.21l6.92-.48c.87-.06,1.36-.74,1.31-1.5-.02-.33-.16-.64-.39-.95l-21.97-31.48Zm-13.77-5.88c-2.48.17-7.14.39-11.9.62l-2.07-29.62c2.57-.51,8.51-.92,11.87-1.16,13.51-.94,20.78,2.13,21.54,12.94l.05.76c.82,11.67-6.19,15.53-19.48,16.46Z" style="fill: #5dc0cf;"/>
      <path d="m553.34,17.7l20.86-1.46c.75-.05,1.15-.62,1.09-1.37l-.38-5.41c-.05-.65-.53-1.37-1.19-1.44-4.57-.12-14.74.38-21.12.82-15.13,1.06-22.62,7.34-21.62,21.71l2.91,41.61c1.01,14.37,9.3,19.55,24.43,18.49,6.37-.45,16.96-1.3,21.03-2.02.64-.15,1.02-.94.97-1.59l-.39-5.51c-.05-.75-.52-1.27-1.27-1.21l-20.86,1.46c-11.46.8-13.51-2.1-14.09-10.31l-1.27-18.16,33.18-2.32c1.19-.08,2.09-1.12,2.01-2.31l-.29-4.1c-.08-1.19-1.12-2.09-2.31-2.01l-33.18,2.32-1.05-15.02c-.57-8.21,1.06-11.37,12.51-12.17Z" style="fill: #5dc0cf;"/>
    </g>
  </g>
</svg>